<?xml version="1.0" encoding="utf-8"?>
<!-- Generator: Adobe Illustrator 24.3.0, SVG Export Plug-In . SVG Version: 6.00 Build 0)  -->
<svg version="1.1" id="Capa_1" xmlns="http://www.w3.org/2000/svg" xmlns:xlink="http://www.w3.org/1999/xlink" x="0px" y="0px"
	 viewBox="0 0 512 512" style="enable-background:new 0 0 512 512;" xml:space="preserve">
<g>
	<path d="M18,353.6c0,2.1-0.9,4.2-2.4,5.7c-1.5,1.5-3.5,2.3-5.6,2.3s-4.2-0.8-5.7-2.3c-1.5-1.5-2.3-3.5-2.3-5.7
		c0-2.1,0.8-4.2,2.3-5.6c1.5-1.5,3.6-2.4,5.7-2.4c1,0,2.1,0.2,3.1,0.6c1,0.4,1.8,1,2.6,1.7C17.2,349.5,18,351.5,18,353.6z"/>
	<path d="M202.7,475c0,2.1-0.9,4.2-2.3,5.7s-3.5,2.3-5.7,2.3c-2.1,0-4.2-0.9-5.7-2.4c-1.5-1.5-2.3-3.5-2.3-5.6s0.9-4.2,2.3-5.7
		c1.5-1.5,3.5-2.3,5.7-2.3c2.1,0,4.2,0.9,5.7,2.3C201.8,470.8,202.7,472.9,202.7,475z"/>
	<path d="M493.6,45.4C483,34.8,469,29,454,29c-4.4,0-8,3.6-8,8v104h-63.5l-0.2-1.7C373.8,76.4,319.5,29,256,29
		c-63.5,0-117.8,47.4-126.3,110.3l-0.2,1.7H66V37c0-4.4-3.6-8-8-8c-15,0-29,5.8-39.6,16.4C7.8,56,2,70.1,2,85l0,222.6
		c0,4.4,3.6,8,8,8c4.4,0,8-3.6,8-8L18,85c0-10.7,4.2-20.7,11.7-28.3c5-5,11.1-8.5,17.8-10.3l2.5-0.7v325.8l-1.7,0.3
		C21.5,376.5,2,399.7,2,427c0,30.9,25.1,56,56,56h93c4.4,0,8-3.6,8-8c0-4.4-3.6-8-8-8H58c-22.1,0-40-17.9-40-40c0-22,17.9-40,40-40
		c4.4,0,8-3.6,8-8v-88.8l2.5,0.6c0.6,0.2,1.3,0.2,1.9,0.2h79.5c13.3,0,24.2,10.8,24.2,24.2c0,22.2,18,40.2,40.2,40.2h25
		c4.9,0,8.8,4,8.8,8.8V393c0,22.2,18,40.2,40.2,40.2h9.1c11.7,0,21.3,9.5,21.3,21.3V467h-81.7c-4.4,0-8,3.6-8,8c0,4.4,3.6,8,8,8H454
		c30.9,0,56-25.1,56-56l0-342C510,70.1,504.2,56,493.6,45.4z M383.4,159l0-2H446v123.7h-18.5c-9.8,0-17.7-8-17.7-17.7
		c0-18.6-15.1-33.7-33.8-33.7h-15.2l2-3.1C375.8,206.1,383,182.8,383.4,159z M66,157h62.5l0,2c0.2,9.9,1.6,19.8,4.1,29.5l0.6,2.5
		h-9.5c-15.5,0-28.1,12.6-28.1,28.1c0,6.7-5.4,12.1-12.1,12.1H66V157z M214.2,339.3c-13.3,0-24.2-10.8-24.2-24.2
		c0-22.1-18-40.2-40.2-40.2H70.3c-0.6,0-1.2,0.1-1.9,0.2l-2.5,0.6V247h17.7c15.5,0,28.1-12.6,28.1-28.1c0-6.7,5.4-12.1,12.1-12.1
		H139l0.5,1.2c4.5,10.3,10.4,19.9,17.4,28.5l0.1,0.1l79.7,102.5H214.2z M256,338l-86.1-110.7c-0.1-0.2-0.2-0.3-0.3-0.4
		c-16.1-19.8-25-44.8-25-70.4c0-29.7,11.6-57.7,32.7-78.8C198.3,56.6,226.3,45,256,45c61.5,0,111.5,50,111.5,111.4
		c0,25.9-9.1,51.1-25.5,70.9c-0.2,0.3-0.4,0.6-0.6,0.9l-0.1,0.2L256,338z M482.3,455.3c-7.6,7.6-17.6,11.7-28.3,11.7H334.5v-12.6
		c0-20.6-16.7-37.3-37.3-37.3h-9.1c-13.3,0-24.2-10.8-24.2-24.2v-28.8c0-2.5-0.4-5.1-1.2-7.5l-0.3-1l85.9-110.5H376
		c9.8,0,17.8,8,17.8,17.7c0,18.6,15.1,33.7,33.7,33.7H446v30h-23.1c-21,0-38.2,17.1-38.2,38.2c0,12.2-9.9,22.2-22.2,22.2h-41.9
		c-4.4,0-8,3.6-8,8c0,4.4,3.6,8,8,8h41.9c21,0,38.2-17.1,38.2-38.2c0-12.2,9.9-22.2,22.2-22.2H446V379c0,4.4,3.6,8,8,8
		c22.1,0,40,18,40,40C494,437.7,489.8,447.7,482.3,455.3z M494,387.6l-3.3-2.9c-7.7-6.7-17-11.2-27-12.9l-1.7-0.3V45.7l2.5,0.7
		c6.7,1.8,12.8,5.4,17.8,10.3C489.8,64.3,494,74.3,494,85L494,387.6z"/>
	<path d="M117.6,415l-11.5,17c-1.5,2.2-4,3.5-6.6,3.5c-2.7,0-5.1-1.3-6.6-3.5l-11.5-17c-1.2-1.8-1.6-3.9-1.2-6
		c0.4-2.1,1.6-3.9,3.4-5.1c1.3-0.9,2.9-1.4,4.5-1.4c0.5,0,1,0,1.5,0.1c2.1,0.4,3.9,1.6,5.1,3.4l4.9,7.2l4.9-7.2
		c2.5-3.7,7.5-4.6,11.1-2.1C119.1,406.3,120,411.3,117.6,415z"/>
	<path d="M177.7,415l-11.5,17c-1.5,2.2-4,3.5-6.6,3.5c-2.7,0-5.1-1.3-6.6-3.5l-11.5-17c-2.5-3.6-1.5-8.6,2.1-11.1
		c1.4-0.9,2.9-1.4,4.5-1.4c2.6,0,5.1,1.2,6.6,3.5l4.9,7.2l4.9-7.2c2.5-3.7,7.5-4.6,11.1-2.1C179.2,406.3,180.1,411.3,177.7,415z"/>
	<path d="M117.6,366.9l-11.5,17c-1.5,2.2-4,3.5-6.6,3.5c-2.7,0-5.1-1.3-6.6-3.5l-11.5-17c-1.2-1.8-1.6-3.9-1.2-6
		c0.4-2.1,1.6-3.9,3.4-5.1c1.3-0.9,2.9-1.4,4.5-1.4c0.5,0,1,0,1.5,0.2c2.1,0.4,3.9,1.6,5.1,3.4l4.9,7.2l4.9-7.2
		c1.5-2.3,4.1-3.5,6.6-3.5c1.5,0,3.1,0.4,4.5,1.4C119.1,358.3,120,363.2,117.6,366.9z"/>
	<path d="M177.7,366.9l-11.5,17c-1.5,2.2-4,3.5-6.6,3.5c-2.7,0-5.1-1.3-6.6-3.5l-11.5-17c-2.5-3.6-1.5-8.6,2.1-11.1
		c1.4-0.9,2.9-1.4,4.5-1.4c2.6,0,5.1,1.2,6.6,3.5l4.9,7.2l4.9-7.2c1.5-2.3,4.1-3.5,6.6-3.5c1.5,0,3.1,0.4,4.5,1.4
		C179.2,358.3,180.1,363.2,177.7,366.9z"/>
	<path d="M237.8,415l-11.5,17c-1.5,2.2-4,3.5-6.6,3.5c-2.7,0-5.1-1.3-6.6-3.5l-11.5-17c-2.5-3.6-1.5-8.6,2.1-11.1
		c1.4-0.9,2.9-1.4,4.5-1.4c2.6,0,5.1,1.2,6.6,3.5l4.9,7.2l4.9-7.2c2.5-3.7,7.5-4.6,11.1-2.1C239.3,406.3,240.2,411.3,237.8,415z"/>
	<path d="M437.1,423.5l-11.5,17c-1.5,2.2-4,3.5-6.6,3.5s-5.1-1.3-6.6-3.5l-11.5-17c-2.5-3.7-1.5-8.6,2.1-11.1
		c1.4-0.9,2.9-1.4,4.5-1.4c2.6,0,5.1,1.2,6.6,3.5l4.9,7.2l4.9-7.2c2.5-3.7,7.5-4.6,11.1-2.1c1.8,1.2,3,3,3.4,5.1
		C438.8,419.6,438.3,421.7,437.1,423.5z"/>
	<path d="M256,69c-49.6,0-90,40.4-90,90c0,49.6,40.4,90,90,90s90-40.4,90-90C346,109.4,305.6,69,256,69z M256,235.2
		c-42,0-76.2-34.2-76.2-76.2c0-42,34.2-76.2,76.2-76.2s76.2,34.2,76.2,76.2C332.2,201,298,235.2,256,235.2z"/>
	<path d="M264,100.8h-16l-43.7,21.9v16.9h103.4v-16.9L264,100.8z M225.2,126.7l25.9-12.9h9.9l25.8,12.9H225.2z"/>
	<polygon points="230.2,191.3 223.7,191.3 223.7,159 230.2,159 230.2,146.1 204.3,146.1 204.3,159 210.8,159 210.8,191.3 
		204.3,191.3 204.3,204.2 230.2,204.2 	"/>
	<polygon points="281.9,159 288.3,159 288.3,191.3 281.9,191.3 281.9,204.2 307.7,204.2 307.7,191.3 301.2,191.3 301.2,159 
		307.7,159 307.7,146.1 281.9,146.1 	"/>
	<polygon points="243.1,159 249.5,159 249.5,191.3 243.1,191.3 243.1,204.2 268.9,204.2 268.9,191.3 262.5,191.3 262.5,159 
		268.9,159 268.9,146.1 243.1,146.1 	"/>
</g>
</svg>
