<?xml version="1.0" encoding="utf-8"?>
<!-- Generator: Adobe Illustrator 24.3.0, SVG Export Plug-In . SVG Version: 6.00 Build 0)  -->
<svg version="1.1" id="Capa_1" xmlns="http://www.w3.org/2000/svg" xmlns:xlink="http://www.w3.org/1999/xlink" x="0px" y="0px"
	 viewBox="0 0 512 512" style="enable-background:new 0 0 512 512;" xml:space="preserve">
<g>
	<g>
		<path d="M17.1,346.6c-1.9-1.9-4.4-2.9-7.1-2.9s-5.2,1.1-7.1,2.9S0,351,0,353.6c0,2.6,1.1,5.2,2.9,7.1c1.9,1.9,4.4,2.9,7.1,2.9
			s5.2-1.1,7.1-2.9c1.9-1.9,2.9-4.4,2.9-7.1C20,351,18.9,348.4,17.1,346.6z"/>
	</g>
</g>
<g>
	<g>
		<path d="M201.7,467.9c-1.9-1.9-4.4-2.9-7.1-2.9c-2.6,0-5.2,1.1-7.1,2.9c-1.9,1.9-2.9,4.4-2.9,7.1s1.1,5.2,2.9,7.1
			c1.9,1.9,4.4,2.9,7.1,2.9c2.6,0,5.2-1.1,7.1-2.9s2.9-4.4,2.9-7.1S203.6,469.8,201.7,467.9z"/>
	</g>
</g>
<g>
	<g>
		<path d="M495,44c-11-11-25.5-17-41-17c-5.5,0-10,4.5-10,10v102h-59.7C375.7,75.8,321.5,27,256,27S136.3,75.8,127.7,139H68V37
			c0-5.5-4.5-10-10-10c-15.5,0-30.1,6-41,17S0,69.5,0,85l0,222.6c0,5.5,4.5,10,10,10s10-4.5,10-10L20,85c0-10.2,4-19.7,11.1-26.9
			c4.8-4.8,10.6-8.1,16.9-9.8v321.5C20.8,374.6,0,398.4,0,427c0,32,26,58,58,58h93c5.5,0,10-4.5,10-10s-4.5-10-10-10H58
			c-21,0-38-17-38-38c0-21,17-38,38-38c5.5,0,10-4.5,10-10v-86.3c0.8,0.2,1.5,0.3,2.3,0.3h79.5c12.2,0,22.2,9.9,22.2,22.2
			c0,23.2,18.9,42.2,42.2,42.2h25c3.8,0,6.8,3.1,6.8,6.8V393c0,23.2,18.9,42.2,42.2,42.2h9.1c10.6,0,19.3,8.7,19.3,19.3V465h-79.7
			c-5.5,0-10,4.5-10,10s4.5,10,10,10H454c32,0,58-26,58-58l0-342C512,69.5,506,55,495,44z M385.4,159H444v119.7h-16.6
			c-8.7,0-15.7-7.1-15.7-15.7c0-19.7-16-35.7-35.7-35.7h-11.5C377.6,207,385,183.3,385.4,159z M68,159h58.6
			c0.2,10.1,1.6,20.2,4.1,29.9h-6.9c-16.6,0-30.1,13.5-30.1,30.1c0,5.5-4.5,10.1-10.1,10.1H68V159z M214.2,337.3
			c-12.2,0-22.2-9.9-22.2-22.2c0-23.2-18.9-42.2-42.2-42.2H70.3c-0.8,0-1.6,0.1-2.3,0.3V249h15.7c16.6,0,30.1-13.5,30.1-30.1
			c0-5.5,4.5-10.1,10.1-10.1h13.9c4.6,10.3,10.5,20.1,17.7,29c0,0,0.1,0.1,0.1,0.1l77.2,99.3L214.2,337.3L214.2,337.3z M256,334.7
			L171.5,226c-0.1-0.2-0.2-0.3-0.4-0.5c-15.8-19.4-24.6-44-24.6-69.1C146.5,96.1,195.6,47,256,47c60.4,0,109.5,49.1,109.5,109.5
			c0,25.4-8.9,50.1-25,69.7c-0.3,0.3-0.5,0.7-0.8,1.1L256,334.7z M454,465H336.5v-10.6c0-21.7-17.6-39.3-39.3-39.3h-9.1
			c-12.2,0-22.2-9.9-22.2-22.2v-28.8c0-2.8-0.4-5.5-1.2-8.1l84.7-108.9H376c8.7,0,15.7,7.1,15.7,15.7c0,19.7,16,35.7,35.7,35.7H444
			v26h-21.1c-22.1,0-40.2,18-40.2,40.2c0,11.1-9,20.2-20.2,20.2h-41.9c-5.5,0-10,4.5-10,10s4.5,10,10,10h41.9
			c22.1,0,40.2-18,40.2-40.2c0-11.1,9-20.2,20.2-20.2H444V379c0,5.5,4.5,10,10,10c21,0,38,17,38,38C492,447.9,474.9,465,454,465z
			 M492,383.2c-7.8-6.8-17.4-11.5-28-13.4V48.3c6.3,1.7,12.1,5.1,16.9,9.8C488,65.3,492,74.9,492,85L492,383.2z"/>
	</g>
</g>
<g>
	<g>
		<path d="M116.5,402.2c-4.6-3.1-10.8-1.9-13.9,2.7l-3.2,4.7l-3.2-4.7c-3.1-4.6-9.3-5.8-13.9-2.7c-4.6,3.1-5.8,9.3-2.7,13.9l11.5,17
			c1.9,2.7,5,4.4,8.3,4.4s6.4-1.6,8.3-4.4l11.5-17C122.3,411.5,121.1,405.3,116.5,402.2z"/>
	</g>
</g>
<g>
	<g>
		<path d="M176.6,402.2c-4.6-3.1-10.8-1.9-13.9,2.7l-3.2,4.7l-3.2-4.7c-3.1-4.6-9.3-5.8-13.9-2.7c-4.6,3.1-5.8,9.3-2.7,13.9l11.5,17
			c1.9,2.7,5,4.4,8.3,4.4s6.4-1.6,8.3-4.4l11.5-17C182.4,411.5,181.2,405.3,176.6,402.2z"/>
	</g>
</g>
<g>
	<g>
		<path d="M116.5,354.1c-4.6-3.1-10.8-1.9-13.9,2.7l-3.2,4.7l-3.2-4.7c-3.1-4.6-9.3-5.8-13.9-2.7c-4.6,3.1-5.8,9.3-2.7,13.9l11.5,17
			c1.9,2.7,5,4.4,8.3,4.4s6.4-1.6,8.3-4.4l11.5-17C122.3,363.4,121.1,357.2,116.5,354.1z"/>
	</g>
</g>
<g>
	<g>
		<path d="M176.6,354.1c-4.6-3.1-10.8-1.9-13.9,2.7l-3.2,4.7l-3.2-4.7c-3.1-4.6-9.3-5.8-13.9-2.7c-4.6,3.1-5.8,9.3-2.7,13.9l11.5,17
			c1.9,2.7,5,4.4,8.3,4.4s6.4-1.6,8.3-4.4l11.5-17C182.4,363.4,181.2,357.2,176.6,354.1z"/>
	</g>
</g>
<g>
	<g>
		<path d="M236.7,402.2c-4.6-3.1-10.8-1.9-13.9,2.7l-3.2,4.7l-3.2-4.7c-3.1-4.6-9.3-5.8-13.9-2.7c-4.6,3.1-5.8,9.3-2.7,13.9l11.5,17
			c1.9,2.7,5,4.4,8.3,4.4s6.4-1.6,8.3-4.4l11.5-17C242.5,411.5,241.3,405.3,236.7,402.2z"/>
	</g>
</g>
<g>
	<g>
		<path d="M436.1,410.7c-4.6-3.1-10.8-1.9-13.9,2.7l-3.2,4.7l-3.2-4.7c-3.1-4.6-9.3-5.8-13.9-2.7c-4.6,3.1-5.8,9.3-2.7,13.9l11.5,17
			c1.9,2.7,5,4.4,8.3,4.4s6.4-1.6,8.3-4.4l11.5-17C441.9,420,440.7,413.8,436.1,410.7z"/>
	</g>
</g>
<g>
	<path d="M256,66.5c-51,0-92.5,41.5-92.5,92.5c0,51,41.5,92.5,92.5,92.5s92.5-41.5,92.5-92.5C348.5,108,307,66.5,256,66.5z
		 M256,232.7c-40.6,0-73.7-33-73.7-73.7c0-40.6,33-73.7,73.7-73.7s73.7,33.1,73.7,73.7C329.7,199.6,296.6,232.7,256,232.7z"/>
</g>
<g>
	<path d="M264.5,92.8h-16.9l-45.2,22.6v20.2h107.4v-20.2L264.5,92.8z M233.7,118.7l17.8-8.9h8.9l17.8,8.9H233.7z"/>
</g>
<g>
	<polygon points="225.7,159 225.7,187.3 232.2,187.3 232.2,204.2 202.3,204.2 202.3,187.3 208.8,187.3 208.8,159 202.3,159 
		202.3,142.1 232.2,142.1 232.2,159 	"/>
</g>
<g>
	<polygon points="303.2,159 303.2,187.3 309.7,187.3 309.7,204.2 279.8,204.2 279.8,187.3 286.3,187.3 286.3,159 279.8,159 
		279.8,142.1 309.7,142.1 309.7,159 	"/>
</g>
<g>
	<polygon points="264.5,159 264.5,187.3 270.9,187.3 270.9,204.2 241.1,204.2 241.1,187.3 247.5,187.3 247.5,159 241.1,159 
		241.1,142.1 270.9,142.1 270.9,159 	"/>
</g>
</svg>
