<?xml version="1.0" encoding="utf-8"?>
<!-- Generator: Adobe Illustrator 24.3.0, SVG Export Plug-In . SVG Version: 6.00 Build 0)  -->
<svg version="1.1" id="Capa_1" xmlns="http://www.w3.org/2000/svg" xmlns:xlink="http://www.w3.org/1999/xlink" x="0px" y="0px"
	 viewBox="0 0 512 512" style="enable-background:new 0 0 512 512;" xml:space="preserve">
<g>
	<path d="M442.8,93.2c-1.6-3.9,0.3-8.2,4.1-9.8c3.9-1.5,8.2,0.3,9.8,4.2c1.7,4.3,3,8.7,3.9,13.2c0.9,4.5,1.3,9.1,1.3,13.7
		c0,4.3-0.4,8.5-1.1,12.7c-0.5,2.9-1.2,5.9-2.1,8.7c-2.5,7.9-3.5,3.5,2.1,9.3c8,8.5,14.6,18.4,19.2,29.4c5,11.8,7.7,24.6,7.7,38.1
		c0,11.3-1.9,22.2-5.5,32.3h22.3c4.1,0,7.5,3.3,7.5,7.5v169.5c0,13.4-5.5,25.6-14.3,34.4c-8.8,8.8-21,14.3-34.4,14.3H48.8
		c-13.4,0-25.6-5.5-34.4-14.3C5.5,447.5,0,435.3,0,421.9c0-56.5,0-113,0-169.5c0-4.1,3.4-7.5,7.5-7.5h117c4.1,0,7.5,3.3,7.5,7.5
		c0,4.1-3.4,7.5-7.5,7.5H15V302h57.2c4.1,0,7.5,3.4,7.5,7.5s-3.3,7.5-7.5,7.5H15v63.4h90.3c6.3,0,12.3-1.2,17.8-3.6
		c5.8-2.4,11-6,15.5-10.4c4.4-4.4,8.1-9.6,10.9-15.4c2.7-5.6,4.5-11.8,5.2-18.4c0.2-7,2.9-13.4,7.3-18c4.6-4.9,10.9-8,18-8v0h38.5
		c6.6,0,12.9-1.4,18.7-4c6.1-2.8,11.6-6.7,16.2-11.7c4.6-5,8.4-11,11-17.7c1.6-4.2,2.8-8.6,3.3-13.3H158.5c-4.1,0-7.5-3.4-7.5-7.5
		c0-4.1,3.4-7.5,7.5-7.5h117h17.9c-3.5-10.1-5.5-21-5.5-32.3c0-13.4,2.7-26.2,7.7-37.9c4.4-10.5,10.6-20.1,18.3-28.4
		c7.7-8.4,5.6-1,2.4-13.2c-1.6-6.1-2.4-12.3-2.4-18.6c0-20.2,8.3-38.5,21.8-51.8c13.4-13.2,31.9-21.4,52.3-21.4
		c8.6,0,16.9,1.5,24.6,4.2c8,2.8,15.4,6.9,21.8,12c3.3,2.6,3.8,7.3,1.2,10.5c-2.6,3.2-7.3,3.8-10.5,1.2c-5.2-4.1-11.1-7.4-17.4-9.6
		c-6.1-2.1-12.8-3.3-19.7-3.3c-16.4,0-31.1,6.5-41.8,17.1c-10.7,10.5-17.3,25.1-17.3,41.1c0,6.7,1.1,13.3,3.4,19.6
		c1.6,4.5,2.5,6.8,1.8,10.3c-0.7,3.5-2.5,5.5-6,9c-7.9,7.7-14.2,17-18.5,27.2c-4.1,9.8-6.4,20.7-6.4,32.1c0,23.1,9.5,44,24.8,59.2
		c13.7,13.5,32.1,22.5,52.6,24.2v-20.4L352.7,248c-2.9-2.9-2.9-7.7,0-10.6c2.9-2.9,7.7-2.9,10.6,0l17,17v-28.1l-27.6-27.7
		c-2.9-2.9-2.9-7.7,0-10.6c2.9-2.9,7.7-2.9,10.6,0l17,17v-28.1l-27.6-27.7c-2.9-2.9-2.9-7.7,0-10.6c2.9-2.9,7.7-2.9,10.6,0l17,17
		v-29.1c0-4.1,3.4-7.5,7.5-7.5s7.5,3.4,7.5,7.5v29.1l17-17c2.9-2.9,7.7-2.9,10.6,0s2.9,7.7,0,10.6l-27.6,27.7v28.1l17-17
		c2.9-2.9,7.7-2.9,10.6,0s2.9,7.7,0,10.6l-27.6,27.7v28.1l17-17c2.9-2.9,7.7-2.9,10.6,0s2.9,7.7,0,10.6l-27.6,27.6v20.4
		c20.5-1.8,38.9-10.7,52.6-24.2c15.3-15.1,24.8-36.1,24.8-59.2c0-11.5-2.3-22.4-6.5-32.3c-4.4-10.3-10.8-19.6-18.8-27.3
		c-3.4-3.3-5.1-5.7-5.7-9.1c-0.6-3.3,0.2-5.8,1.6-9.7c1.1-3.1,2-6.3,2.6-9.7c0.6-3.3,0.9-6.6,0.9-10.1c0-3.8-0.4-7.4-1-10.9
		C445.2,100,444.1,96.5,442.8,93.2L442.8,93.2z M176.9,92.4c-2.5-3.3-1.8-8,1.5-10.5c3.3-2.5,8-1.8,10.5,1.4
		c2.9,3.8,5.1,8.1,6.7,12.7c1.4,4.4,2.3,9,2.3,13.7c4.7,2.7,8.7,6.3,11.8,10.7c4,5.8,6.4,12.8,6.4,20.3c0,9.8-4,18.7-10.5,25.2
		c-6.5,6.5-15.4,10.5-25.2,10.5H81.5c-9.8,0-18.7-4-25.2-10.5c-6.5-6.4-10.5-15.4-10.5-25.2c0-9.8,4-18.7,10.5-25.2
		c4.9-4.9,11.3-8.4,18.5-9.8c1.3-5.6,4.2-10.6,8.1-14.5c5.5-5.5,13-8.9,21.4-8.9c3.7,0,7.2,0.7,10.4,1.9c0.5,0.2,1.1,0.4,1.6,0.6
		c3.3-4.8,7.6-9,12.4-12.1c7.2-4.7,15.7-7.3,24.6-7.2c4.1,0,7.5,3.4,7.4,7.5c0,4.1-3.4,7.5-7.5,7.4c-6,0-11.6,1.7-16.4,4.8
		c-4.7,3.1-8.6,7.5-10.9,12.8c-0.3,0.7-0.7,1.4-1.2,2c-2.7,3.1-7.4,3.5-10.5,0.8c-2.8-2.4-6.3-3.6-9.9-3.6c-4.2,0-8,1.7-10.8,4.5
		c-2.8,2.8-4.5,6.6-4.5,10.8c0,4.2-3.3,7.5-7.5,7.5c-5.7,0-10.8,2.3-14.6,6.1c-3.7,3.8-6.1,8.9-6.1,14.6c0,5.7,2.3,10.8,6.1,14.6
		c3.7,3.8,8.9,6.1,14.6,6.1h98.9c5.7,0,10.8-2.3,14.6-6.1c3.7-3.7,6.1-8.9,6.1-14.6c0-4.4-1.4-8.4-3.7-11.8c-2.3-3.3-5.6-6-9.4-7.5
		c-3.4-1-5.6-4.4-5.2-8c0.1-1.1,0.2-2.2,0.2-3.3c0-3.4-0.5-6.5-1.5-9.4C180.3,97.8,178.8,95,176.9,92.4z M53,357.4
		c-4.1,0-7.5-3.4-7.5-7.5s3.3-7.5,7.5-7.5h64.7c4.1,0,7.5,3.3,7.5,7.5s-3.3,7.5-7.5,7.5H53z M133,290.8c-4.1,0-7.5-3.4-7.5-7.5
		s3.3-7.5,7.5-7.5h88.6c4.1,0,7.5,3.3,7.5,7.5c0,4.1-3.3,7.5-7.5,7.5H133z M395.3,372.7c0,4.1-3.4,7.5-7.5,7.5s-7.5-3.3-7.5-7.5
		v-61.5c-24.5-1.8-46.7-12.4-63.1-28.6c-6.7-6.7-12.5-14.3-17.1-22.6h-17.5c-0.7,6.5-2.2,12.8-4.5,18.7c-3.3,8.4-8,16-13.9,22.4
		c-6,6.5-13.1,11.7-21,15.2c-7.7,3.5-16.1,5.4-24.8,5.4h-38.5c-2.7,0-5.2,1.2-7.1,3.2c-2.8,3.1-2.9,5.4-3.3,9.2
		c-0.9,8.3-3.1,16.2-6.5,23.4c-3.5,7.4-8.3,14.1-14,19.7c-5.8,5.8-12.7,10.4-20.2,13.6c-7.3,3.1-15.2,4.8-23.5,4.8H15v26.5
		c0,9.3,3.8,17.7,9.9,23.8c6.1,6.1,14.6,9.9,23.8,9.9h414.5c9.3,0,17.7-3.8,23.8-9.9c6.1-6.1,9.9-14.6,9.9-23.8V260h-21.5
		c-4.6,8.3-10.4,15.9-17.1,22.6c-16.4,16.2-38.5,26.8-63.1,28.6L395.3,372.7L395.3,372.7z"/>
</g>
</svg>
