<?xml version="1.0" encoding="utf-8"?>
<!-- Generator: Adobe Illustrator 24.3.0, SVG Export Plug-In . SVG Version: 6.00 Build 0)  -->
<svg version="1.1" id="Capa_1" xmlns="http://www.w3.org/2000/svg" xmlns:xlink="http://www.w3.org/1999/xlink" x="0px" y="0px"
	 viewBox="0 0 512 512" style="enable-background:new 0 0 512 512;" xml:space="preserve">
<g>
	<g>
		<g>
			<path d="M219.5,145.6c0,10-3.9,19.5-11.1,26.6c-7.1,7.1-16.6,11.1-26.6,11.1H84.3c-10,0-19.5-3.9-26.6-11.1
				c-7.1-7.1-11.1-16.6-11.1-26.6c0-10,3.9-19.5,11.1-26.6c5-5,11.2-8.4,17.9-10.1c1.5-5.3,4.3-10.1,8.2-13.9
				c6.1-6.1,14.3-9.5,22.9-9.5c3.8,0,7.5,0.7,11,1.9c3.3-4.3,7.2-8,11.8-11c7.6-4.9,16.4-7.5,25.5-7.5h0.2c5.5,0,9.9,4.5,9.8,9.9
				c0,2.6-1,5.1-2.9,7c-1.9,1.9-4.3,2.8-7,2.8c-5.3,0-10.4,1.5-14.8,4.4c-4.3,2.8-7.8,6.8-9.9,11.6c-0.5,1-1,1.9-1.6,2.6
				c-3.5,4.1-9.8,4.6-13.9,1.1c-2.3-1.9-5.1-3-8.1-3c-3.4,0-6.5,1.3-8.8,3.7c-2.4,2.4-3.7,5.5-3.7,8.8c0,5.5-4.4,9.9-9.9,9.9
				c-4.7,0-9.2,1.9-12.6,5.2c-3.4,3.4-5.2,7.9-5.2,12.6c0,4.7,1.9,9.2,5.2,12.6c3.4,3.4,7.9,5.3,12.6,5.3h97.5
				c4.7,0,9.2-1.9,12.6-5.3c3.4-3.4,5.3-7.9,5.3-12.6c0-3.6-1.1-7.1-3.2-10.2c-2-2.9-4.9-5.2-8.1-6.4c-4.5-1.5-7.3-5.9-6.8-10.5
				c0.1-1,0.2-1.9,0.2-3c0-3-0.5-5.9-1.4-8.5c-0.9-2.8-2.3-5.3-4-7.6c-1.6-2.1-2.3-4.7-1.9-7.3c0.4-2.6,1.8-4.9,3.9-6.5
				c2.1-1.6,4.7-2.2,7.3-1.9s4.9,1.7,6.5,3.8c3,4,5.4,8.5,7,13.3c1.4,4.2,2.2,8.5,2.4,12.8c4.4,2.7,8.2,6.4,11.2,10.6
				c2.2,3.2,3.9,6.6,5,10.2C218.9,137.9,219.5,141.7,219.5,145.6z"/>
		</g>
		<g>
			<path d="M501.3,245.7h-18.5c2.9-9.5,4.4-19.3,4.4-29.3c0-13.3-2.6-26.3-7.8-38.5c-4.6-11-11.2-21-19.4-29.7
				c-1.3-1.4-2.3-2.2-3-2.8c0.4-0.8,0.9-2.1,1.5-4c0.9-2.9,1.6-5.9,2.2-8.9c0.8-4.4,1.1-8.7,1.1-12.9c0-4.6-0.5-9.3-1.3-14
				c-0.8-4.4-2.2-9-4-13.5c-2-5-7.8-7.5-12.9-5.5c-5,2.1-7.5,7.8-5.5,12.9c1.2,3.1,2.2,6.4,2.9,9.8c0.7,3.5,1,6.9,1,10.3
				c0,3.1-0.3,6.3-0.8,9.5c-0.6,3.2-1.4,6.3-2.5,9.2c-1.5,4-2.4,7-1.7,10.8c0.7,4.2,2.9,6.9,6.3,10.3c7.8,7.6,13.8,16.3,17.9,26.1
				c4.1,9.8,6.2,20.1,6.2,30.9c0,21.4-8.4,41.5-23.7,56.6c-12.8,12.7-29.6,20.8-47.6,22.9v-16.3l26.5-26.5c3.8-3.9,3.8-10.1,0-14
				c-3.9-3.8-10.1-3.8-14,0l-12.5,12.5v-20.6l26.5-26.5c1.9-1.9,2.9-4.4,2.9-7c0-2.6-1-5.1-2.9-7c-1.9-1.9-4.4-2.9-7-2.9
				c-2.6,0-5.1,1-7,2.9l-12.5,12.5v-20.6l26.5-26.5c3.8-3.9,3.8-10.1,0-14c-3.9-3.9-10.1-3.9-14,0l-12.5,12.5v-22.6
				c0-5.5-4.4-9.9-9.9-9.9c-5.5,0-9.9,4.4-9.9,9.9v22.6l-12.5-12.5c-3.9-3.9-10.1-3.9-14,0c-3.8,3.9-3.8,10.1,0,14l26.5,26.5v20.6
				l-12.5-12.5c-1.9-1.9-4.3-2.9-7-2.9c-2.7,0-5.1,1-7,2.9c-1.9,1.9-2.9,4.4-2.9,7c0,2.6,1,5.1,2.9,7l26.5,26.5v20.6L363.9,239
				c-1.9-1.9-4.3-2.9-7-2.9c-2.7,0-5.1,1-7,2.9c-3.8,3.9-3.8,10.1,0,14l26.5,26.5v16.3c-17.9-2.1-34.7-10.2-47.6-22.9
				c-15.3-15.1-23.7-35.2-23.7-56.6c0-10.7,2.1-21,6.1-30.6c4.1-9.8,10.1-18.6,17.7-26c3.6-3.5,5.8-5.9,6.6-10.1
				c0.8-4.2-0.2-7.1-1.8-11.5c-2.1-5.9-3.2-12.1-3.2-18.4c0-14.6,5.8-28.4,16.3-38.8c10.5-10.4,24.5-16.1,39.5-16.1
				c6.4,0,12.7,1,18.6,3.1c6,2.1,11.5,5.2,16.5,9.1c4.3,3.4,10.5,2.7,13.9-1.6c1.6-2.1,2.4-4.6,2.1-7.3c-0.3-2.6-1.6-5-3.7-6.6
				c-6.6-5.3-14.1-9.4-22.3-12.3c-8.1-2.8-16.5-4.2-25.1-4.2c-20.1,0-39.1,7.8-53.3,21.8c-14.3,14.1-22.2,32.9-22.2,52.8
				c0,6.4,0.8,12.8,2.5,19c0.9,3.5,1.8,5.6,2.4,6.8c-0.9,0.7-2.2,1.9-4.1,4c-7.8,8.5-14,18.2-18.5,28.8c-5.1,12.2-7.7,25.1-7.7,38.3
				c0,10,1.5,19.8,4.4,29.3H160.3c-5.5,0-9.9,4.4-9.9,9.9c0,5.5,4.5,9.9,9.9,9.9h104.6c-0.6,3.3-1.5,6.6-2.7,9.7
				c-2.4,6.3-5.9,11.9-10.3,16.6c-4.3,4.7-9.4,8.4-15.1,10.9c-5.6,2.5-11.4,3.8-17.4,3.8h-38l-2.5,0v0.1c-6.5,0.6-12.5,3.6-17.1,8.5
				c-4.8,5.1-7.6,12-7.9,19.3c-0.7,6-2.3,11.8-4.9,17.2c-2.6,5.5-6,10.3-10.3,14.5c-4.2,4.2-9.1,7.5-14.5,9.7
				c-5.2,2.2-10.8,3.3-16.5,3.3H21.3v-57.5h53.9c5.5,0,9.9-4.4,9.9-9.9c0-5.5-4.4-9.9-9.9-9.9H21.3v-36.5h105.5
				c5.5,0,9.9-4.5,9.9-9.9c0-5.5-4.4-9.9-9.9-9.9H11.4c-5.5,0-9.9,4.4-9.9,9.9v167.1c0,13.4,5.3,26.1,14.8,35.7
				c9.6,9.6,22.3,14.8,35.7,14.8h408.6c13.5,0,26.1-5.3,35.7-14.8c9.6-9.6,14.8-22.3,14.8-35.7V255.6
				C511.2,250.1,506.8,245.7,501.3,245.7z M460.6,453.4H52.1c-8.2,0-15.9-3.2-21.7-9c-5.8-5.8-9-13.6-9-21.7V399h86.5
				c8.3,0,16.4-1.6,24.1-4.9c7.6-3.2,14.6-7.8,20.7-13.9c5.8-5.8,10.6-12.5,14.3-20.1c3.5-7.4,5.8-15.5,6.7-23.9l0-0.5
				c0.3-3.2,0.5-4.9,2.6-7.1c1.4-1.5,3.2-2.3,5.1-2.3h38c8.8,0,17.4-1.9,25.5-5.5c8-3.6,15.2-8.8,21.5-15.6
				c6.1-6.6,10.9-14.4,14.2-22.9c2.1-5.4,3.5-11.1,4.3-16.9h13.5c4.5,7.9,10.1,15.1,16.6,21.5c16.5,16.3,38.3,26.5,61.4,28.7v58.4
				c0,5.5,4.5,9.9,9.9,9.9c5.5,0,9.9-4.4,9.9-9.9v-58.4c23.2-2.2,44.9-12.4,61.4-28.7c6.5-6.4,12.1-13.7,16.6-21.5h17.2v157.2
				c0,8.2-3.2,15.9-9,21.7C476.5,450.2,468.8,453.4,460.6,453.4z"/>
		</g>
	</g>
	<g>
		<g>
			<path d="M232.3,286c0,5.5-4.4,9.9-9.9,9.9h-87.4c-5.5,0-9.9-4.5-9.9-9.9c0-5.5,4.4-9.9,9.9-9.9h87.4
				C227.9,276.1,232.3,280.5,232.3,286z"/>
		</g>
	</g>
	<g>
		<g>
			<path d="M129.9,351.6c0,5.5-4.4,9.9-9.9,9.9H56.3c-5.5,0-9.9-4.4-9.9-9.9c0-5.5,4.4-9.9,9.9-9.9H120
				C125.5,341.8,129.9,346.2,129.9,351.6z"/>
		</g>
	</g>
</g>
</svg>
