<?xml version="1.0" encoding="utf-8"?>
<!-- Generator: Adobe Illustrator 25.1.0, SVG Export Plug-In . SVG Version: 6.00 Build 0)  -->
<svg version="1.1" id="Warstwa_1" xmlns="http://www.w3.org/2000/svg" xmlns:xlink="http://www.w3.org/1999/xlink" x="0px" y="0px"
	 viewBox="0 0 595.3 841.9" style="enable-background:new 0 0 595.3 841.9;" xml:space="preserve">
<style type="text/css">
	.st0{fill-rule:evenodd;clip-rule:evenodd;fill:#E4E6EB;}
</style>
<path class="st0" d="M295.9,662.4h0.2H296H295.9L295.9,662.4z M297.6,662.4L297.6,662.4h0.1H297.6z M295.1,662.4h0.2H295.1
	L295.1,662.4z M298.4,662.4h-0.1H298.4L298.4,662.4z M294.4,662.4h0.2H294.4L294.4,662.4L294.4,662.4z M299.1,662.4H299H299.1
	L299.1,662.4L299.1,662.4z M299.9,662.4L299.9,662.4h0.2H299.9L299.9,662.4z M293.5,662.4h0.2h-0.1H293.5L293.5,662.4z M300.7,662.3
	h-0.1h0.3H300.7L300.7,662.3z M292.7,662.3h0.3h-0.1H292.7L292.7,662.3z M301.5,662.3h-0.2H301.5L301.5,662.3z M292,662.3h0.2H292
	L292,662.3L292,662.3z M291.1,662.3h0.2l0,0H291.1L291.1,662.3z M302.3,662.3L302.3,662.3h0.2H302.3z M290.4,662.3h0.3h-0.1H290.4z
	 M303,662.3h-0.1h0.3H303z M303.8,662.3h-0.2H303.8L303.8,662.3L303.8,662.3z M289.6,662.3h0.3H289.6L289.6,662.3L289.6,662.3z
	 M289,662.3h0.2H289h-0.2H289z M304.6,662.3h-0.2H304.6h0.2H304.6z M305.4,662.2h-0.1h0.3H305.4z M288,662.2h0.3h-0.1H288z
	 M287.3,662.2h0.3H287.3L287.3,662.2z M306.2,662.2H306H306.2L306.2,662.2z M286.6,662.2h0.3H286.6L286.6,662.2L286.6,662.2z
	 M306.9,662.2h-0.3H306.9L306.9,662.2L306.9,662.2z M285.6,662.1h0.4h-0.1H285.6z M307.7,662.1L307.7,662.1h0.3H307.7L307.7,662.1z
	 M284.9,662.1h0.4h-0.2H284.9z M308.5,662.1h-0.2h0.4H308.5z M284.2,662.1h0.4h-0.3H284.2z M309.3,662.1H309h0.4H309.3z M310,662
	h-0.3H310h0.3H310L310,662z M283.6,662h0.3H283.6h-0.4H283.6L283.6,662z M310.8,662h-0.2h0.4H310.8z M282.5,662h0.4h-0.2H282.5z
	 M281.9,661.9h0.4h-0.2H281.9L281.9,661.9z M311.6,661.9h-0.2h0.4H311.6L311.6,661.9z M281.2,661.9h0.3H281.2h-0.3H281.2
	L281.2,661.9z M312.3,661.9H312H312.3h0.3H312.3L312.3,661.9z M313.1,661.8H313h0.4H313.1L313.1,661.8z M280.2,661.8h0.4h-0.1H280.2
	z M279.5,661.8h0.4h-0.2H279.5L279.5,661.8z M313.9,661.8h-0.2h0.4H313.9z M278.8,661.7h0.3H278.8L278.8,661.7L278.8,661.7z
	 M314.7,661.7h-0.3H314.7L314.7,661.7L314.7,661.7z M277.9,661.7h0.3h-0.1H277.9z M315.4,661.7L315.4,661.7h0.2H315.4z M316.2,661.6
	h-0.1h0.3H316.2z M277.2,661.6h0.3h-0.1H277.2L277.2,661.6z M276.5,661.5h0.3H276.5L276.5,661.5z M317,661.5h-0.2H317L317,661.5z
	 M275.8,661.5L275.8,661.5L275.8,661.5L275.8,661.5L275.8,661.5z M317.7,661.5L317.7,661.5L317.7,661.5L317.7,661.5L317.7,661.5z
	 M318.5,661.4L318.5,661.4h0.1H318.5L318.5,661.4z M275,661.4h0.2h-0.1H275L275,661.4z M274.3,661.3h0.1H274.3L274.3,661.3z
	 M319.3,661.3L319.3,661.3L319.3,661.3L319.3,661.3z M258.9,659.4C143.1,641.2,54.3,540.8,54.3,419.9
	c0-133.8,108.6-242.5,242.5-242.5S539.3,286,539.3,419.9c0,120.9-88.7,221.3-204.6,239.5V490h56.5l10.7-70.1h-67.2v-45.5
	c0-19.2,9.4-37.9,39.5-37.9h30.6v-59.7c0,0-27.7-4.7-54.3-4.7c-55.4,0-91.6,33.6-91.6,94.3v53.4h-61.6V490h61.6L258.9,659.4
	L258.9,659.4z"/>
</svg>
