<?xml version="1.0" encoding="utf-8"?>
<!-- Generator: Adobe Illustrator 25.1.0, SVG Export Plug-In . SVG Version: 6.00 Build 0)  -->
<svg version="1.1" id="Warstwa_1" xmlns="http://www.w3.org/2000/svg" xmlns:xlink="http://www.w3.org/1999/xlink" x="0px" y="0px"
	 viewBox="0 0 595.3 841.9" style="enable-background:new 0 0 595.3 841.9;" xml:space="preserve">
<style type="text/css">
	.st0{fill:#E4E6EB;}
</style>
<path class="st0" d="M449.4,294.8c0,3.7-0.7,7.3-2.1,10.7c-1.4,3.4-3.4,6.5-6,9c-2.6,2.6-5.6,4.6-9,6s-7,2.1-10.6,2.1
	s-7.3-0.7-10.6-2.1c-3.4-1.4-6.4-3.5-9-6c-2.6-2.6-4.6-5.7-6-9c-1.4-3.4-2.1-7-2.1-10.7c0-7.4,2.9-14.5,8.1-19.7s12.3-8.2,19.7-8.2
	c7.4,0,14.4,2.9,19.7,8.2C446.4,280.3,449.4,287.4,449.4,294.8z M537.7,420.5v0.4l-1.6,101c-0.4,36.4-15,71.2-40.7,97
	s-60.4,40.4-96.8,40.8l-101.2,1.6H297l-100.8-1.6c-36.4-0.4-71.1-15.1-96.8-40.8s-40.3-60.6-40.7-97l-1.6-101.3v-0.4l1.6-101
	c0.4-36.4,15-71.2,40.7-97s60.4-40.4,96.8-40.8l101.2-1.6h0.4l100.8,1.6c36.4,0.4,71.1,15.1,96.8,40.8c25.7,25.7,40.3,60.6,40.8,97
	L537.7,420.5z M492.9,420.5l-1.6-100.6c-0.3-24.8-10.2-48.4-27.7-65.9s-41.1-27.5-65.8-27.7l-100.5-1.6l-100.5,1.6
	c-24.7,0.3-48.3,10.2-65.8,27.7s-27.4,41.2-27.7,65.9l-1.6,100.6l1.6,100.6c0.3,24.8,10.2,48.4,27.7,65.9s41.1,27.5,65.8,27.7
	l100.5,1.6l100.5-1.6c24.7-0.3,48.3-10.2,65.8-27.7s27.4-41.2,27.7-65.9L492.9,420.5z M420.8,420.5c0,32.8-13,64.2-36.1,87.4
	s-54.5,36.2-87.2,36.2s-64.1-13-87.2-36.2C187,484.7,174,453.3,174,420.5s13-64.2,36.1-87.4s54.5-36.2,87.2-36.2s64.1,13,87.2,36.2
	C407.8,356.3,420.8,387.7,420.8,420.5z M376,420.5c0-20.9-8.3-40.9-23-55.7c-14.7-14.8-34.7-23.1-55.6-23.1s-40.9,8.3-55.6,23.1
	c-14.7,14.8-23,34.8-23,55.7c0,20.9,8.3,40.9,23,55.7c14.7,14.8,34.7,23.1,55.6,23.1s40.9-8.3,55.6-23.1
	C367.7,461.5,376,441.4,376,420.5z"/>
</svg>
