<?xml version="1.0" encoding="utf-8"?>
<!-- Generator: Adobe Illustrator 24.3.0, SVG Export Plug-In . SVG Version: 6.00 Build 0)  -->
<svg version="1.1" id="Warstwa_1" xmlns="http://www.w3.org/2000/svg" xmlns:xlink="http://www.w3.org/1999/xlink" x="0px" y="0px"
	 viewBox="0 0 512 512" style="enable-background:new 0 0 512 512;" xml:space="preserve">
<style type="text/css">
	.st0{fill:#358535;}
</style>
<g>
	<g>
		<path class="st0" d="M226.7,313.8v-22.3c3,0,5.6-2.3,5.6-5.3c0-2.9-2.5-5.3-5.6-5.3h-94.2c-3,0-5.6,2.3-5.6,5.3
			c0,2.9,2.5,5.3,5.6,5.3v22.3c-3,0-5.6,2.3-5.6,5.3c0,2.9,2.5,5.3,5.6,5.3h94.2c3,0,5.6-2.3,5.6-5.3
			C232.3,316.1,229.8,313.8,226.7,313.8z M160.2,313.8h-16.6v-22.3h16.6V313.8z M187.9,313.8h-16.6v-22.3h16.6V313.8z M215.6,313.8
			H199v-22.3h16.6V313.8z"/>
		<path class="st0" d="M285.2,251.6L184,179.5c-1.3-0.9-2.9-1.4-4.5-1.4s-3.1,0.5-4.4,1.4L74,251.6c-2.6,1.8-3.8,5.3-2.8,8.4
			c0.9,3.1,4,5.3,7.3,5.3h26.1v95.9H11c-4.2,0-7.6,3.4-7.6,7.5v122.1c0,4.2,3.4,7.5,7.6,7.5h257.3c-1.4-0.3-2.7-1-3.7-2
			c-1.4-1.4-2.3-3.3-2.3-5.3c0-2.3,1-4.3,2.6-5.7c1.3-1.1,3.1-1.8,5-1.8h0.3l0.2-0.2h-15.6v-218h26.1c3.3,0,6.2-2.1,7.3-5.2l0,0l0,0
			C289.1,256.9,287.9,253.5,285.2,251.6z M59.6,483.1h-41V415h41V483.1z M104.6,483.1H74.8v-75.7c0-4.2-3.4-7.5-7.6-7.5H18.6v-23.7
			h86V483.1z M205.8,483.1h-6.2v-61.6H161v61.6h-7.5V415h52.2v68.1H205.8z M239.5,483.1H221v-75.7c0-4.2-3.4-7.5-7.6-7.5h-67.5
			c-4.2,0-7.6,3.4-7.6,7.5v75.7h-18.5V376.2h119.7L239.5,483.1L239.5,483.1z M239.5,361.2H119.8v-95.9h119.7V361.2z M102,250.2
			l77.5-55.2l77.5,55.2H102z"/>
		<g>
			<path class="st0" d="M322.1,311.4c0,4.2,3.4,7.6,7.6,7.6h172.4c0.5,0,1.1-0.1,1.6-0.2c1.4-0.3,2.7-1,3.7-2
				c1.5-1.4,2.3-3.4,2.3-5.4c0-2.2-1-4.3-2.7-5.8c-1.4-1.2-3.2-1.8-5-1.8h-12v-43.1h1.6c3.9,0,7.5-2.3,9.2-5.9
				c1.7-3.7,1-7.8-1.7-10.8l-24.2-26.8c0,0-4.6-5.1-9-10c-4.3-5-7.6-5.6-9.7-5.6c-0.4,0-0.7,0-1,0l0,0l0,0c-0.1,0-0.2,0-0.3,0h-71.5
				c-2.9,0-5.6,1.2-7.6,3.3l-33.8,39c-2.6,3-3.2,7.2-1.5,10.8c1.7,3.5,5.3,5.8,9.2,5.8h1.6v43.1h-21.9
				C325.3,303.7,322.1,307.1,322.1,311.4z M371.1,291.9v11.8h-4.5v-43.1h34v43.1h-14.2v-11.8c0-4.2-3.4-7.6-7.7-7.6
				C374.6,284.3,371.1,287.7,371.1,291.9z M361.3,245.4l22-25.5l19.5,25.5H361.3z M400.2,216.8h54l25.7,28.5H422L400.2,216.8z
				 M474.6,260.6v43.1h-58.5v-43.1H474.6z"/>
			<path class="st0" d="M383.5,273v4.8c0,3.2,2.6,5.8,5.9,5.8s5.9-2.6,5.9-5.8V273c0-3.2-2.7-5.8-5.9-5.8S383.5,269.8,383.5,273z"/>
			<path class="st0" d="M451.6,272.9v4.8c0,3.2,2.6,5.8,5.9,5.8s5.9-2.6,5.9-5.8v-4.8c0-3.2-2.6-5.8-5.9-5.8
				C454.3,267.1,451.6,269.8,451.6,272.9z"/>
			<path class="st0" d="M427,272.9v4.8c0,3.2,2.7,5.8,5.9,5.8s5.9-2.6,5.9-5.8v-4.8c0-3.2-2.6-5.8-5.9-5.8
				C429.7,267.1,427,269.8,427,272.9z"/>
			<path class="st0" d="M308.8,329.4l-11.5,18.1c-1.5,2.3-4,3.7-6.6,3.7s-5.1-1.4-6.6-3.7l-11.5-18.1c-2.5-3.9-1.5-9.2,2.1-11.8
				c1.4-1,2.9-1.5,4.5-1.5c2.6,0,5.1,1.3,6.6,3.7l4.9,7.7l4.9-7.7c2.5-3.9,7.5-4.9,11.1-2.2c1.8,1.3,3,3.2,3.4,5.4
				S310,327.4,308.8,329.4z"/>
		</g>
		<g>
			<path class="st0" d="M402.3,446.9v5.5c0,3.1-2.5,5.5-5.6,5.5s-5.6-2.5-5.6-5.5v-5.5c0-3.1,2.5-5.5,5.6-5.5
				S402.3,443.9,402.3,446.9z"/>
			<path class="st0" d="M352.6,446.8v5.5c0,3.1-2.5,5.5-5.6,5.5s-5.6-2.5-5.6-5.5v-5.5c0-3.1,2.5-5.5,5.6-5.5
				S352.6,443.9,352.6,446.8z"/>
			<path class="st0" d="M324.4,446.8v5.5c0,3.1-2.5,5.5-5.6,5.5s-5.6-2.5-5.6-5.5v-5.5c0-3.1,2.5-5.5,5.6-5.5
				S324.4,443.9,324.4,446.8z"/>
			<g>
				<path class="st0" d="M465.2,483.1H439v-51.6h3c4,0,7.8-2.3,9.5-6s1.1-8-1.6-11l-38.6-44.6c-2-2.2-4.8-3.4-7.8-3.4h-81.7
					c-0.2,0-0.3,0-0.5,0c-2.1-0.1-6-0.4-11.4,5.9c-5,5.6-10.3,11.4-10.3,11.4L272,414.4c-2.8,3.1-3.4,7.4-1.7,11.2
					c1.7,3.7,5.5,6.1,9.5,6.1h3v51.6h-14.9c-1.9,0-3.6,0.7-5,1.8c-1.6,1.4-2.6,3.4-2.6,5.7c0,2.1,0.9,4,2.3,5.3c1,1,2.3,1.7,3.7,2
					c0.5,0.1,1.1,0.2,1.6,0.2H465c4.2,0,7.6-3.4,7.6-7.5C472.6,486.5,469.3,483.1,465.2,483.1z M322.2,381.5h64.6L360,416.4h-69.3
					L322.2,381.5z M367.4,483.1h-69.2v-51.6h69.2L367.4,483.1z M423.9,483.1h-7.4v-14.7c0-4.1-3.4-7.5-7.6-7.5s-7.6,3.4-7.6,7.5
					v14.7h-18.5v-51.6h41.1V483.1z M379.1,416.4l24.5-32l27.7,32H379.1z"/>
			</g>
			<path class="st0" d="M507.7,476.4l-11.5,18.1c-1.5,2.3-4,3.7-6.6,3.7s-5.1-1.4-6.6-3.7l-11.5-18.1c-2.5-3.9-1.5-9.2,2.1-11.8
				c1.4-1,2.9-1.5,4.5-1.5c2.6,0,5.1,1.3,6.6,3.7l4.9,7.7l4.9-7.7c2.5-3.9,7.5-4.9,11.1-2.2c1.8,1.3,3,3.2,3.4,5.4
				S508.9,474.5,507.7,476.4z"/>
		</g>
	</g>
	<g>
		<path class="st0" d="M414.4,72.6h-9.1c0-0.5,0.1-1,0.1-1.5c0-10.1-8.2-18.3-18.2-18.3h-24.5c-5.2-10.8-13.1-20.1-22.9-26.9
			c-11.6-8-25.1-12.3-39.2-12.3c-22.2,0-43,10.7-56,28.8h-35.9c-10,0-18.2,8.2-18.2,18.3c0,0.5,0,1,0.1,1.5h-9.1
			c-10,0-18.2,8.2-18.2,18.3s8.2,18.3,18.2,18.3H233c1.5,6.6,4,13,7.4,19c1.3,2.3,3.7,3.7,6.4,3.7c1.3,0,2.5-0.3,3.6-1
			c3.5-2,4.7-6.5,2.7-10c-3.1-5.4-5.2-11.1-6.3-17.2c3.3-3.4,5.2-8,5.2-12.8c0-0.5,0-1-0.1-1.5h9.1c10,0,18.2-8.2,18.2-18.3
			c0-9.2-6.8-16.8-15.6-18.1c10-9.1,23-14.3,36.6-14.3c11.1,0,21.8,3.3,30.9,9.7c5.7,4,10.6,9,14.5,14.8h-11.3
			c-10,0-18.2,8.2-18.2,18.3s8.2,18.3,18.2,18.3h9.1c0,0.5-0.1,1-0.1,1.5c0,5.5,2.5,10.8,6.7,14.2c-3.8,8.6-9.9,16.4-17.3,22
			c-9.5,7.1-20.7,10.9-32.6,10.9c-13.8,0-27-5.2-37.1-14.7c-1.4-1.3-3.1-2-5-2c-2,0-4,0.9-5.4,2.3c-2.7,3-2.6,7.6,0.4,10.4
			c12.8,12,29.5,18.6,47.1,18.6c15,0,29.4-4.8,41.4-13.8c10-7.5,18-18,22.7-29.7h17.4c4,0,7.3-3.3,7.3-7.3s-3.3-7.3-7.3-7.3h-20.1
			c-2,0-3.6-1.6-3.6-3.6c0-1.2,0.5-2.2,1.5-2.9c2.6-1.9,3.6-5.2,2.6-8.2s-3.8-5.1-7-5.1h-20.9c-2,0-3.6-1.6-3.6-3.6s1.6-3.6,3.6-3.6
			h52.6c2,0,3.5,1.6,3.5,3.6c0,1.2-0.5,2.2-1.5,2.9c-2.6,1.9-3.6,5.2-2.7,8.2c1,3,3.8,5.1,7,5.1h20.9c2,0,3.6,1.6,3.6,3.6
			s-1.6,3.6-3.6,3.6h-14.1c-4,0-7.3,3.3-7.3,7.3c0,4.1,3.3,7.3,7.3,7.3h14.1c10,0,18.2-8.2,18.2-18.3S424.4,72.6,414.4,72.6z
			 M261.1,64.3h-20.9c-3.2,0-6,2-7,5.1c-1,3,0.1,6.3,2.7,8.2c1,0.7,1.5,1.7,1.5,2.9c0,2-1.6,3.6-3.6,3.6h-52.6c-2,0-3.6-1.6-3.6-3.6
			s1.6-3.6,3.6-3.6h20.9c3.2,0,6-2,7-5.1c1-3-0.1-6.3-2.7-8.2c-0.9-0.7-1.5-1.7-1.5-2.9c0-2,1.6-3.6,3.5-3.6H261
			c2,0,3.6,1.6,3.6,3.6C264.7,62.7,263.1,64.3,261.1,64.3z"/>
	</g>
	<path class="st0" d="M475.6,362.2l-11.5,18.1c-1.5,2.3-4,3.7-6.6,3.7s-5.1-1.4-6.6-3.7l-11.5-18.1c-2.5-3.9-1.5-9.2,2.1-11.8
		c1.4-1,2.9-1.5,4.5-1.5c2.6,0,5.1,1.3,6.6,3.7l4.9,7.7l4.9-7.7c2.5-3.9,7.5-4.9,11.1-2.2c1.8,1.3,3,3.2,3.4,5.4
		S476.8,360.2,475.6,362.2z"/>
</g>
</svg>
