<?xml version="1.0" encoding="utf-8"?>
<!-- Generator: Adobe Illustrator 24.3.0, SVG Export Plug-In . SVG Version: 6.00 Build 0)  -->
<svg version="1.1" id="Warstwa_1" xmlns="http://www.w3.org/2000/svg" xmlns:xlink="http://www.w3.org/1999/xlink" x="0px" y="0px"
	 viewBox="0 0 512 512" style="enable-background:new 0 0 512 512;" xml:space="preserve">
<style type="text/css">
	.st0{fill:#358535;}
</style>
<g>
	<path class="st0" d="M7.5,459.3h497c4.1,0,7.5-3.4,7.5-7.6s-3.4-7.6-7.5-7.6h-53.8v-71c33.4-3.8,59.5-32.4,59.5-67
		c0-17.7-6.9-34.6-19.1-47.1c2.5-6.2,3.8-12.8,3.8-19.5c0-28.7-23.2-52-51.7-52s-51.7,23.3-51.7,52c0,4.9,0.7,9.8,2.1,14.5
		c-2.1-2.9-5.4-4.6-8.9-4.6l0,0c-4.1,0-7.8,2.3-9.8,5.9l-19.6,37.1c-1.5,2.8-1.4,6.2,0.2,8.9c0.5,0.9,1.2,1.6,1.9,2.2l-2.2,4.1
		c-10.4-7.5-23-11.8-36.3-11.8c-29.6,0-54.4,20.9-60.6,48.8c-3.1-10.4-8.7-20-16.3-27.9c2.5-6.2,3.8-12.8,3.8-19.5
		c0-28.7-23.2-52-51.7-52c-8.7,0-17,2.2-24.2,6.1l-23.3-44c-2-3.7-5.8-6-9.9-6c-4.2,0-8,2.3-9.9,6L101,256c-1.6,3.1-1.5,6.7,0.2,9.7
		c0.8,1.4,1.9,2.5,3.2,3.3l-4.4,8.3c-8.9-4.3-18.9-6.7-29.4-6.7c-37.7,0-68.4,30.9-68.4,68.9c0,35.4,26.7,64.7,61,68.4
		c0,15.5,0,28.5,0,36.2H7.5c-4.1,0-7.5,3.4-7.5,7.6C0,456,3.4,459.3,7.5,459.3L7.5,459.3z M78.4,408c21-2.3,39.1-14.3,50-31.3
		c0.4,2.4,1,4.7,1.7,6.9c0,0.2,0,0.4,0,0.6v59.9H78.3c0-3.3,0-7.4,0-12.3C78.4,425.1,78.4,416.8,78.4,408L78.4,408z M365.8,399.8
		h11.4v44.4h-50.6c0-2.5,0-5.7,0-9.5c0-4.1,0-8.9,0-14C342,418.8,355.9,411.2,365.8,399.8z M311.5,444.2H201.6V431
		c28.9-3.3,52.3-25.1,58.1-53.4c7.3,22.9,27.4,40.1,51.8,43.1C311.5,430.9,311.5,439.3,311.5,444.2L311.5,444.2z M186.6,444.2H145
		v-34.4c10.6,11.5,25.2,19.3,41.6,21.2V444.2z M392.2,444.2v-44.4h43.5v44.4H392.2z M443.2,202.6c20.2,0,36.6,16.5,36.6,36.9
		c0,6.2-1.5,12.3-4.4,17.6c-1.7,3.1-1,7,1.7,9.4c11.5,10,18.1,24.4,18.1,39.7c0,26.3-19.3,48.1-44.5,51.8v-45l14.8-13.1
		c3.1-2.8,3.4-7.5,0.7-10.7c-2.7-3.1-7.5-3.4-10.6-0.7l-4.9,4.3v-14.5c0-4.2-3.4-7.6-7.5-7.6s-7.5,3.4-7.5,7.6v93.8l-13.8-26.8
		c2-0.7,3.7-2.1,4.9-4c1.7-2.9,1.8-6.3,0.2-9.3l-15-28.2c0.8-0.6,1.5-1.4,2-2.3c1.6-2.7,1.7-6,0.2-8.7l-10.7-20.3
		c1.8-2.1,3.7-4.2,5.9-6c2.7-2.3,3.4-6.2,1.7-9.4c-2.9-5.4-4.4-11.5-4.4-17.6C406.6,219.2,423,202.6,443.2,202.6L443.2,202.6z
		 M319,311.1c19.9,0,37.7,12.6,44.4,31.5c1.4,3.9,5.7,6,9.6,4.6s5.9-5.7,4.5-9.7c-2.5-7.1-6.2-13.5-10.9-19.1l6.7-12.6h0.1
		c4.1,0,7.5-3.4,7.5-7.6s-3.4-7.6-7.5-7.6h-0.2l11.4-21.6l11.6,21.9c-3.2,0.9-5.5,3.8-5.5,7.3c0,3.3,2.1,6.2,5.1,7.2l13.4,25.3h-6.4
		c-4.1,0-7.5,3.4-7.5,7.6s3.4,7.6,7.5,7.6h2.3l20.1,38.8h-49.8c1.5-3.4,2.8-6.9,3.7-10.5c1-4-1.4-8.2-5.4-9.2s-8.1,1.4-9.1,5.5
		c-4.7,18.5-19.8,32.1-38.1,35.1c0-0.9,0-1.9,0-2.8c0-23.3-0.1-46.5-0.1-46.5c0-4.2-3.4-7.5-7.5-7.5l0,0c-4.1,0-7.5,3.4-7.5,7.6
		c0,1.7,0,3.5,0,5.3l-7.9-2.9c-3.9-1.4-8.2,0.6-9.6,4.5s0.6,8.3,4.5,9.7l13.2,4.9c0,9.3,0,18.9,0,27.9
		c-22.5-3.6-39.7-23.3-39.7-46.9C271.8,332.4,293,311.1,319,311.1z M230.7,297.4c0,6.2-1.5,12.3-4.4,17.6c-1.7,3.1-1,7,1.7,9.4
		c11.5,10,18.1,24.4,18.1,39.7c0,26.3-19.3,48.1-44.5,51.8V371l14.8-13.1c3.1-2.8,3.4-7.5,0.7-10.7c-2.7-3.1-7.5-3.4-10.6-0.7
		l-4.9,4.3v-14.5c0-4.2-3.4-7.6-7.5-7.6s-7.5,3.4-7.5,7.6v79.6c-25.1-3.7-44.5-25.5-44.5-51.8c0-15.2,6.6-29.7,18.1-39.7
		c2.7-2.3,3.4-6.2,1.7-9.4c-2.9-5.4-4.4-11.5-4.4-17.6c0-20.3,16.4-36.9,36.6-36.9C214.3,260.5,230.7,277.1,230.7,297.4L230.7,297.4
		z M120.8,270.7h1.5c4.1,0,7.5-3.4,7.5-7.6s-3.4-7.6-7.5-7.6h-3.8l18.3-34.7l21,39.7c-9.4,9.4-15.3,22.5-15.3,36.9
		c0,6.7,1.3,13.3,3.8,19.5c-3.1,3.2-5.8,6.6-8.2,10.3c-3.1-16.8-12.2-31.5-25.1-41.7L120.8,270.7z M17.4,339.6
		c0-29.6,23.9-53.7,53.4-53.7c29.4,0,53.4,24.1,53.4,53.7c0,27-19.9,49.4-45.8,53.2c0-1.4,0-2.8,0-4.2c0-31.5-0.1-63.1-0.1-63.1
		c0-4.2-3.4-7.6-7.5-7.6l0,0c-4.1,0-7.5,3.4-7.5,7.6c0,3.3,0,6.6,0,10.1l-9.8-3.3c-3.9-1.3-8.2,0.8-9.5,4.8s0.8,8.2,4.8,9.6
		l14.5,4.9c0,13.7,0,28,0,41.3C37.4,389.2,17.4,366.7,17.4,339.6L17.4,339.6z"/>
	<path class="st0" d="M502.7,482.1H7.5c-4.1,0-7.5,3.4-7.5,7.6s3.4,7.6,7.5,7.6h495.2c4.1,0,7.5-3.4,7.5-7.6
		S506.9,482.1,502.7,482.1z"/>
	<path class="st0" d="M48.8,150.8h91.5c1,0,1.9-0.1,2.8-0.2c2.4,12.6,6.8,24.6,13.2,35.8c1.4,2.4,3.9,3.8,6.5,3.8
		c1.3,0,2.6-0.3,3.7-1c3.6-2.1,4.8-6.7,2.8-10.3c-6.1-10.7-10.1-22.2-12-34.4c5.7-4.9,9.4-12.2,9.4-20.3c0-2.7-0.4-5.3-1.2-7.8h22.2
		c14.6,0,26.4-11.9,26.4-26.6s-11.9-26.6-26.4-26.6h-7.4c18.9-22.1,46.2-34.9,75.7-34.9c20.4,0,40,6.1,56.7,17.8
		c13.2,9.2,23.9,21.2,31.4,35.3h-28.8c-14.6,0-26.4,11.9-26.4,26.6s11.9,26.6,26.4,26.6h22.2c-0.8,2.5-1.2,5.1-1.2,7.8
		c0,9.7,5.2,18.2,12.9,22.8c-6.7,17.4-18.4,33-33.4,44.3c-17.4,13.1-38.1,20-59.8,20c-25.3,0-49.5-9.6-68.1-27
		c-3-2.8-7.8-2.7-10.6,0.4c-2.8,3.1-2.7,7.8,0.4,10.7c21.3,20,49.1,31,78.3,31c25,0,48.8-8,68.8-23c17.7-13.3,31.4-31.9,39-52.6
		h33.9c4.1,0,7.5-3.4,7.5-7.6c0-4.2-3.4-7.6-7.5-7.6h-35c-6.3,0-11.4-5.1-11.4-11.5c0-3.7,1.7-7.1,4.7-9.3c2.6-1.9,3.7-5.3,2.7-8.5
		c-1-3.1-3.9-5.2-7.1-5.2h-36.4c-6.3,0-11.4-5.1-11.4-11.5s5.1-11.5,11.4-11.5h40.6l0,0l0,0h50.9c6.3,0,11.4,5.1,11.4,11.5
		c0,3.7-1.7,7.1-4.7,9.3c-2.6,1.9-3.7,5.3-2.7,8.5c1,3.1,3.9,5.2,7.1,5.2h36.4c6.3,0,11.4,5.1,11.4,11.5c0,6.3-5.1,11.5-11.4,11.5
		h-24.5c-4.1,0-7.5,3.4-7.5,7.6c0,4.2,3.4,7.6,7.5,7.6h24.5c14.6,0,26.4-11.9,26.4-26.6c0-14.7-11.9-26.6-26.4-26.6H432
		c0.8-2.5,1.2-5.1,1.2-7.8c0-14.7-11.9-26.6-26.4-26.6h-46c-8.6-19.2-22.2-35.7-39.6-47.7c-19.2-13.4-41.8-20.5-65.3-20.5
		c-38.1,0-73.1,18.6-94.6,50H96.2c-14.6,0-26.4,11.9-26.4,26.6c0,2.7,0.4,5.3,1.2,7.8H48.8c-14.6,0-26.4,11.9-26.4,26.6
		S34.2,150.8,48.8,150.8L48.8,150.8z M48.8,112.7h36.4c3.3,0,6.1-2.1,7.1-5.2s-0.1-6.5-2.7-8.5c-3-2.2-4.7-5.6-4.7-9.3
		c0-6.3,5.1-11.5,11.4-11.5h91.5c6.3,0,11.4,5.1,11.4,11.5s-5.1,11.5-11.4,11.5h-36.4c-3.3,0-6.1,2.1-7.1,5.2s0.1,6.5,2.7,8.5
		c3,2.2,4.7,5.6,4.7,9.3c0,6.3-5.1,11.5-11.4,11.5H48.8c-6.3,0-11.4-5.1-11.4-11.5C37.4,117.9,42.5,112.7,48.8,112.7L48.8,112.7z"/>
</g>
</svg>
