<?xml version="1.0" encoding="utf-8"?>
<!-- Generator: Adobe Illustrator 24.3.0, SVG Export Plug-In . SVG Version: 6.00 Build 0)  -->
<svg version="1.1" id="Warstwa_1" xmlns="http://www.w3.org/2000/svg" xmlns:xlink="http://www.w3.org/1999/xlink" x="0px" y="0px"
	 viewBox="0 0 512 512" style="enable-background:new 0 0 512 512;" xml:space="preserve">
<style type="text/css">
	.st0{fill:#358535;}
</style>
<g>
	<path class="st0" d="M18,359.3c0,2.2-0.9,4.5-2.4,6.1s-3.5,2.5-5.6,2.5s-4.2-0.9-5.7-2.5S2,361.7,2,359.3c0-2.2,0.8-4.5,2.3-6
		c1.5-1.6,3.6-2.6,5.7-2.6c1,0,2.1,0.2,3.1,0.6s1.8,1.1,2.6,1.8C17.2,354.9,18,357,18,359.3z"/>
	<path class="st0" d="M202.7,488.7c0,2.2-0.9,4.5-2.3,6.1s-3.5,2.5-5.7,2.5c-2.1,0-4.2-1-5.7-2.6s-2.3-3.7-2.3-6s0.9-4.5,2.3-6.1
		c1.5-1.6,3.5-2.5,5.7-2.5c2.1,0,4.2,1,5.7,2.5C201.8,484.2,202.7,486.4,202.7,488.7z"/>
	<path class="st0" d="M493.6,30.8C483,19.5,469,13.3,454,13.3c-4.4,0-8,3.8-8,8.5v110.8h-63.5l-0.2-1.8
		c-8.5-67-62.8-117.6-126.3-117.6S138.2,63.8,129.7,130.9l-0.2,1.8H66V21.8c0-4.7-3.6-8.5-8-8.5c-15,0-29,6.2-39.6,17.5S2,57.1,2,73
		v237.3c0,4.7,3.6,8.5,8,8.5s8-3.8,8-8.5V73c0-11.4,4.2-22.1,11.7-30.2c5-5.3,11.1-9.1,17.8-11l2.5-0.7v347.3l-1.7,0.3
		C21.5,383.7,2,408.4,2,437.5c0,32.9,25.1,59.7,56,59.7h93c4.4,0,8-3.8,8-8.5s-3.6-8.5-8-8.5H58c-22.1,0-40-19.1-40-42.6
		c0-23.4,17.9-42.6,40-42.6c4.4,0,8-3.8,8-8.5v-94.6l2.5,0.6c0.6,0.2,1.3,0.2,1.9,0.2h79.5c13.3,0,24.2,11.5,24.2,25.8
		c0,23.7,18,42.8,40.2,42.8h25c4.9,0,8.8,4.3,8.8,9.4v30.7c0,23.7,18,42.8,40.2,42.8h9.1c11.7,0,21.3,10.1,21.3,22.7v13.3H237
		c-4.4,0-8,3.8-8,8.5s3.6,8.5,8,8.5h217c30.9,0,56-26.8,56-59.7V73C510,57.1,504.2,42.1,493.6,30.8z M383.4,151.9v-2.1H446v131.8
		h-18.5c-9.8,0-17.7-8.5-17.7-18.9c0-19.8-15.1-35.9-33.8-35.9h-15.2l2-3.3C375.8,202.1,383,177.2,383.4,151.9z M66,149.7h62.5v2.1
		c0.2,10.6,1.6,21.1,4.1,31.4l0.6,2.7h-9.5c-15.5,0-28.1,13.4-28.1,30c0,7.1-5.4,12.9-12.1,12.9H66V149.7z M214.2,344
		c-13.3,0-24.2-11.5-24.2-25.8c0-23.6-18-42.8-40.2-42.8H70.3c-0.6,0-1.2,0.1-1.9,0.2l-2.5,0.6v-30.6h17.7c15.5,0,28.1-13.4,28.1-30
		c0-7.1,5.4-12.9,12.1-12.9H139l0.5,1.3c4.5,11,10.4,21.2,17.4,30.4l0.1,0.1l79.7,109.3h-22.5V344z M256,342.7l-86.1-118
		c-0.1-0.2-0.2-0.3-0.3-0.4c-16.1-21.1-25-47.8-25-75c0-31.7,11.6-61.5,32.7-84c21-22.5,49-34.9,78.7-34.9
		c61.5,0,111.5,53.3,111.5,118.7c0,27.6-9.1,54.5-25.5,75.6c-0.2,0.3-0.4,0.6-0.6,1l-0.1,0.2L256,342.7z M482.3,467.7
		c-7.6,8.1-17.6,12.5-28.3,12.5H334.5v-13.4c0-22-16.7-39.8-37.3-39.8h-9.1c-13.3,0-24.2-11.5-24.2-25.8v-30.7c0-2.7-0.4-5.4-1.2-8
		l-0.3-1.1l85.9-117.8H376c9.8,0,17.8,8.5,17.8,18.9c0,19.8,15.1,35.9,33.7,35.9H446v32h-23.1c-21,0-38.2,18.2-38.2,40.7
		c0,13-9.9,23.7-22.2,23.7h-41.9c-4.4,0-8,3.8-8,8.5s3.6,8.5,8,8.5h41.9c21,0,38.2-18.2,38.2-40.7c0-13,9.9-23.7,22.2-23.7H446v38.9
		c0,4.7,3.6,8.5,8,8.5c22.1,0,40,19.2,40,42.6C494,448.9,489.8,459.6,482.3,467.7z M494,395.5l-3.3-3.1c-7.7-7.1-17-11.9-27-13.7
		l-1.7-0.3V31.1l2.5,0.7c6.7,1.9,12.8,5.8,17.8,11C489.8,50.9,494,61.6,494,73V395.5z"/>
	<path class="st0" d="M117.6,424.7l-11.5,18.1c-1.5,2.3-4,3.7-6.6,3.7c-2.7,0-5.1-1.4-6.6-3.7l-11.5-18.1c-1.2-1.9-1.6-4.2-1.2-6.4
		s1.6-4.2,3.4-5.4c1.3-1,2.9-1.5,4.5-1.5c0.5,0,1,0,1.5,0.1c2.1,0.4,3.9,1.7,5.1,3.6l4.9,7.7l4.9-7.7c2.5-3.9,7.5-4.9,11.1-2.2
		C119.1,415.4,120,420.8,117.6,424.7z"/>
	<path class="st0" d="M177.7,424.7l-11.5,18.1c-1.5,2.3-4,3.7-6.6,3.7c-2.7,0-5.1-1.4-6.6-3.7l-11.5-18.1c-2.5-3.8-1.5-9.2,2.1-11.8
		c1.4-1,2.9-1.5,4.5-1.5c2.6,0,5.1,1.3,6.6,3.7l4.9,7.7l4.9-7.7c2.5-3.9,7.5-4.9,11.1-2.2C179.2,415.4,180.1,420.8,177.7,424.7z"/>
	<path class="st0" d="M117.6,373.5l-11.5,18.1c-1.5,2.3-4,3.7-6.6,3.7c-2.7,0-5.1-1.4-6.6-3.7l-11.5-18.1c-1.2-1.9-1.6-4.2-1.2-6.4
		s1.6-4.2,3.4-5.4c1.3-1,2.9-1.5,4.5-1.5c0.5,0,1,0,1.5,0.2c2.1,0.4,3.9,1.7,5.1,3.6l4.9,7.7l4.9-7.7c1.5-2.5,4.1-3.7,6.6-3.7
		c1.5,0,3.1,0.4,4.5,1.5C119.1,364.3,120,369.5,117.6,373.5z"/>
	<path class="st0" d="M177.7,373.5l-11.5,18.1c-1.5,2.3-4,3.7-6.6,3.7c-2.7,0-5.1-1.4-6.6-3.7l-11.5-18.1c-2.5-3.8-1.5-9.2,2.1-11.8
		c1.4-1,2.9-1.5,4.5-1.5c2.6,0,5.1,1.3,6.6,3.7l4.9,7.7l4.9-7.7c1.5-2.5,4.1-3.7,6.6-3.7c1.5,0,3.1,0.4,4.5,1.5
		C179.2,364.3,180.1,369.5,177.7,373.5z"/>
	<path class="st0" d="M237.8,424.7l-11.5,18.1c-1.5,2.3-4,3.7-6.6,3.7c-2.7,0-5.1-1.4-6.6-3.7l-11.5-18.1c-2.5-3.8-1.5-9.2,2.1-11.8
		c1.4-1,2.9-1.5,4.5-1.5c2.6,0,5.1,1.3,6.6,3.7l4.9,7.7l4.9-7.7c2.5-3.9,7.5-4.9,11.1-2.2C239.3,415.4,240.2,420.8,237.8,424.7z"/>
	<path class="st0" d="M437.1,433.8l-11.5,18.1c-1.5,2.3-4,3.7-6.6,3.7s-5.1-1.4-6.6-3.7l-11.5-18.1c-2.5-3.9-1.5-9.2,2.1-11.8
		c1.4-1,2.9-1.5,4.5-1.5c2.6,0,5.1,1.3,6.6,3.7l4.9,7.7l4.9-7.7c2.5-3.9,7.5-4.9,11.1-2.2c1.8,1.3,3,3.2,3.4,5.4
		S438.3,431.9,437.1,433.8z"/>
	<path class="st0" d="M256,55.9c-49.6,0-90,43.1-90,95.9s40.4,95.9,90,95.9s90-43.1,90-95.9S305.6,55.9,256,55.9z M256,233.1
		c-42,0-76.2-36.5-76.2-81.2S214,70.6,256,70.6s76.2,36.5,76.2,81.2S298,233.1,256,233.1z"/>
	<path class="st0" d="M264,89.8h-16l-43.7,23.3v18h103.4v-18L264,89.8z M225.2,117.4l25.9-13.7h9.9l25.8,13.7H225.2z"/>
	<polygon class="st0" points="230.2,186.3 223.7,186.3 223.7,151.9 230.2,151.9 230.2,138.1 204.3,138.1 204.3,151.9 210.8,151.9 
		210.8,186.3 204.3,186.3 204.3,200 230.2,200 	"/>
	<polygon class="st0" points="281.9,151.9 288.3,151.9 288.3,186.3 281.9,186.3 281.9,200 307.7,200 307.7,186.3 301.2,186.3 
		301.2,151.9 307.7,151.9 307.7,138.1 281.9,138.1 	"/>
	<polygon class="st0" points="243.1,151.9 249.5,151.9 249.5,186.3 243.1,186.3 243.1,200 268.9,200 268.9,186.3 262.5,186.3 
		262.5,151.9 268.9,151.9 268.9,138.1 243.1,138.1 	"/>
</g>
</svg>
