<?xml version="1.0" encoding="utf-8"?>
<!-- Generator: Adobe Illustrator 24.3.0, SVG Export Plug-In . SVG Version: 6.00 Build 0)  -->
<svg version="1.1" id="Warstwa_1" xmlns="http://www.w3.org/2000/svg" xmlns:xlink="http://www.w3.org/1999/xlink" x="0px" y="0px"
	 viewBox="0 0 512 512" style="enable-background:new 0 0 512 512;" xml:space="preserve">
<style type="text/css">
	.st0{fill:#358535;}
</style>
<g>
	<path class="st0" d="M339.9,40c4.1,0,7.5-3.4,7.5-7.5v-10c0-4.1-3.4-7.5-7.5-7.5s-7.5,3.4-7.5,7.5v10C332.4,36.6,335.7,40,339.9,40
		z"/>
	<path class="st0" d="M383.7,58.1c1.9,0,3.8-0.7,5.3-2.2l7.1-7.1c2.9-2.9,2.9-7.7,0-10.6s-7.7-2.9-10.6,0l-7.1,7.1
		c-2.9,2.9-2.9,7.7,0,10.6C379.9,57.4,381.8,58.1,383.7,58.1z"/>
	<path class="st0" d="M394.4,94.5c0,4.1,3.4,7.5,7.5,7.5h10c4.1,0,7.5-3.4,7.5-7.5S416,87,411.9,87h-10
		C397.7,87,394.4,90.3,394.4,94.5z"/>
	<path class="st0" d="M389,133c-2.9-2.9-7.7-2.9-10.6,0s-2.9,7.7,0,10.6l7.1,7.1c1.5,1.5,3.4,2.2,5.3,2.2s3.8-0.7,5.3-2.2
		c2.9-2.9,2.9-7.7,0-10.6L389,133z"/>
	<path class="st0" d="M290.7,55.9c1.5,1.5,3.4,2.2,5.3,2.2s3.8-0.7,5.3-2.2c2.9-2.9,2.9-7.7,0-10.6l-7.1-7.1
		c-2.9-2.9-7.7-2.9-10.6,0s-2.9,7.7,0,10.6L290.7,55.9z"/>
	<path class="st0" d="M114.5,160.6h252c3.1,0,6-1.3,8-3.7c2-2.3,2.9-5.4,2.4-8.5c-1.2-7.4-4.6-14-9.5-19c10.6-8.3,17-21.2,17-35
		c0-24.5-20-44.5-44.5-44.5s-44.5,20-44.5,44.5c0,0.7,0,1.5,0.1,2.2c-2.5,0.2-5,0.6-7.4,1.3c-3-26.1-25.2-46.4-52.1-46.4
		c-4.1,0-7.5,3.4-7.5,7.5s3.4,7.5,7.5,7.5c20.7,0,37.5,16.8,37.5,37.5c0,1.5-0.1,3-0.3,4.6c-0.4,2.9,1,5.8,3.5,7.3s5.7,1.5,8.1-0.2
		c4.1-2.8,9-4.2,14-4.2c11.7,0,21.8,7.9,24.6,19.2c0.5,2.2,2,4,4,4.9c2,1,4.3,1,6.4,0.1c2.6-1.2,5.5-1.8,8.4-1.8
		c8.1,0,15.2,4.7,18.4,11.7H120.5c3.2-7,10.3-11.7,18.4-11.7c1.1,0,2.2,0.1,3.3,0.3c2,0.3,4-0.1,5.6-1.3s2.7-2.9,3-4.9
		c2.4-14.2,14.5-24.6,29-24.6c3.1,0,6.2,0.5,9.2,1.5c2.1,0.7,4.4,0.4,6.3-0.8c1.9-1.2,3.2-3.1,3.5-5.3c1.1-8.1,4.8-15.5,10.7-21.3
		c2.9-2.9,2.9-7.7,0-10.6s-7.7-2.9-10.6,0c-6.1,6.1-10.7,13.7-13.2,22c-1.9-0.3-3.9-0.4-5.9-0.4c-19.5,0-36.3,12.5-42.2,30.5
		c-16.9,0.6-30.9,12.8-33.6,29.6c-0.5,3,0.4,6.1,2.4,8.5C108.5,159.3,111.4,160.6,114.5,160.6L114.5,160.6z M335.2,119.6
		c-4.9-10.3-13.8-17.9-24.6-21.2c-0.2-1.3-0.3-2.6-0.3-3.9c0-16.3,13.2-29.5,29.5-29.5s29.5,13.2,29.5,29.5c0,11-6.3,21.2-16,26.2
		c-3.5-1.2-7.3-1.8-11.2-1.8C339.8,118.9,337.5,119.1,335.2,119.6z"/>
	<g>
		<g>
			<path class="st0" d="M486.8,447.7h-7.4V346.3c2.4,0.9,4.9,1.4,7.4,1.4l0,0c8,0,15.4-4.7,19.3-12.3c2.9-5.6,3.7-12.2,2.1-18.5
				s-5.3-11.5-10.4-14.7L394,237.4c-6.8-4.3-15.3-4.3-22.1,0l-3.8,2.4v-4.6c5.6-0.8,9.9-6,9.9-12.3V199c0-6.9-5.1-12.4-11.4-12.4
				h-71.2c-6.3,0-11.4,5.6-11.4,12.4v23.8c0,6.3,4.3,11.5,9.9,12.3V286L268,302.2c-5.2,3.2-8.9,8.5-10.4,14.7
				c-1.6,6.3-0.8,12.8,2.1,18.5s7.7,9.7,13.5,11.4c1.9,0.6,3.9,0.9,5.9,0.9c2.5,0,5-0.5,7.4-1.4v101.4h-61.3V346.3
				c2.4,0.9,4.9,1.4,7.4,1.4l0,0c8,0,15.4-4.7,19.3-12.3c2.9-5.6,3.7-12.2,2.1-18.5s-5.3-11.5-10.4-14.7L212,282.4
				c-3.6-2.2-8.1-0.9-10.1,3s-0.8,8.8,2.8,11.1l31.6,19.8c1.7,1.1,3,2.8,3.5,4.9s0.3,4.3-0.7,6.2c-1.3,2.5-3.8,4.1-6.5,4.1
				c-1.3,0-2.5-0.4-3.7-1.1l-96.4-60.3c-2.3-1.4-5.1-1.4-7.4,0l-96.4,60.3c-1.7,1.1-3.7,1.4-5.6,0.8s-3.5-1.9-4.5-3.8
				s-1.2-4.1-0.7-6.2s1.8-3.8,3.5-4.9l103.8-64.9c2.3-1.4,5.1-1.4,7.4,0l42,26.2c3.6,2.2,8.1,0.9,10.1-3s0.8-8.8-2.8-11.1l-42-26.2
				c-6.8-4.3-15.3-4.3-22.1,0l-3.8,2.4v-4.6c5.6-0.8,9.9-6,9.9-12.3V199c0-6.9-5.1-12.4-11.4-12.4h-71c-6.3,0-11.4,5.6-11.4,12.4
				v23.8c0,6.3,4.3,11.5,9.9,12.3V286l-25.9,16.2c-5.2,3.2-8.9,8.5-10.4,14.7c-1.6,6.3-0.8,12.8,2.1,18.5s7.7,9.7,13.5,11.4
				c1.9,0.6,3.9,0.9,5.9,0.9c2.5,0,5-0.5,7.4-1.4v101.4h-7.4C12.9,447.7,3,458.6,3,472s10,24.3,22.2,24.3h461.6
				c12.3,0,22.2-10.9,22.2-24.3C509,458.6,499,447.7,486.8,447.7L486.8,447.7z M45,202.8h64.2V219H45V202.8z M54.9,235.2h44.5V249
				l-44.5,27.8V235.2z M299,202.8h64.2V219H299V202.8z M308.9,235.2h44.5V249l-44.5,27.8V235.2z M277.3,331.2
				c-1.9-0.6-3.5-1.9-4.5-3.8s-1.2-4.1-0.7-6.2s1.8-3.8,3.5-4.9l103.8-64.9c1.1-0.7,2.4-1.1,3.7-1.1c1.3,0,2.5,0.4,3.7,1.1
				l103.8,64.9c1.7,1.1,3,2.8,3.5,4.9s0.3,4.3-0.7,6.2c-1.3,2.5-3.8,4.1-6.5,4.1c-1.3,0-2.5-0.4-3.7-1.1l-96.4-60.3
				c-2.3-1.4-5.1-1.4-7.4,0L283,330.4C281.2,331.5,279.2,331.7,277.3,331.2L277.3,331.2z M301.5,337.5l81.5-51l81.5,51v110.2H433
				v-13.6c0-4.5-3.3-8.1-7.4-8.1s-7.4,3.6-7.4,8.1v13.6H348v-91.9h70.2v41.1c0,4.5,3.3,8.1,7.4,8.1s7.4-3.6,7.4-8.1V352
				c0-6.9-5.1-12.4-11.4-12.4h-77.1c-6.3,0-11.4,5.6-11.4,12.4v95.7h-31.7L301.5,337.5L301.5,337.5z M47.4,337.5l81.5-51l81.5,51
				v110.2H179V352c0-6.9-5.1-12.4-11.4-12.4h-77c-6.3,0-11.4,5.6-11.4,12.4v95.7H47.4V337.5z M164.2,447.7H94v-91.9h70.2V447.7z
				 M486.8,480.1H25.2c-4.1,0-7.4-3.6-7.4-8.1s3.3-8.1,7.4-8.1h461.6c4.1,0,7.4,3.6,7.4,8.1S490.9,480.1,486.8,480.1z"/>
		</g>
	</g>
</g>
</svg>
