<?xml version="1.0" encoding="utf-8"?>
<!-- Generator: Adobe Illustrator 25.0.0, SVG Export Plug-In . SVG Version: 6.00 Build 0)  -->
<svg version="1.1" id="Warstwa_1" xmlns="http://www.w3.org/2000/svg" xmlns:xlink="http://www.w3.org/1999/xlink" x="0px" y="0px"
	 viewBox="0 0 595.28 595.28" style="enable-background:new 0 0 595.28 595.28;" xml:space="preserve">
<style type="text/css">
	.st0{fill:#72CFED;}
	.st1{fill:#F07B23;}
	.st2{fill:#030009;}
	.st3{fill-rule:evenodd;clip-rule:evenodd;fill:#FFD329;}
	.st4{fill:#1177B6;stroke:#020004;stroke-width:2.8566;stroke-miterlimit:10;}
	.st5{fill:#FFD329;stroke:#020004;stroke-width:2.8566;stroke-miterlimit:10;}
	.st6{fill:#E81D29;stroke:#020004;stroke-width:2.8566;stroke-miterlimit:10;}
</style>
<g>
	<circle class="st0" cx="297.83" cy="297.67" r="176.38"/>
	<polygon class="st1" points="161.06,153.12 138.79,182.89 116.52,212.66 93.4,172.15 70.27,131.64 115.67,142.38 	"/>
	<circle class="st2" cx="296.67" cy="296.87" r="144.03"/>
	<polygon class="st1" points="271.73,102.42 236.02,112.76 200.31,123.1 206.27,76.84 212.22,30.57 241.98,66.5 	"/>
	<polygon class="st1" points="394.83,123.54 359.31,112.55 323.8,101.56 354.2,66.18 384.6,30.81 389.72,77.17 	"/>
	<polygon class="st1" points="476.75,211.89 455.37,181.48 433.99,151.07 479.67,141.67 525.36,132.26 501.06,172.08 	"/>
	<polygon class="st1" points="492.9,335.18 492.76,298 492.62,260.82 535.47,279.25 578.32,297.68 535.61,316.43 	"/>
	<polygon class="st1" points="433.97,443.83 455.29,413.37 476.61,382.92 501,422.68 525.39,462.44 479.68,453.14 	"/>
	<polygon class="st1" points="323.64,494.23 359.31,483.75 394.98,473.28 389.2,519.56 383.42,565.85 353.53,530.04 	"/>
	<polygon class="st1" points="201.18,472.78 236.61,484.04 272.04,495.3 241.36,530.44 210.69,565.58 205.93,519.18 	"/>
	<polygon class="st1" points="118.08,382.69 139.69,412.94 161.3,443.19 115.68,452.93 70.06,462.67 94.07,422.68 	"/>
	<polygon class="st1" points="102.38,259.83 102.54,297 102.7,334.18 59.84,315.78 16.98,297.37 59.68,278.6 	"/>
	<path class="st3" d="M297.84,152.02c-80.19,0-145.19,65.37-145.19,146.01c0,80.64,65,146.01,145.19,146.01
		c80.19,0,145.19-65.37,145.19-146.01C443.02,217.39,378.02,152.02,297.84,152.02z M414.18,263.81v13.69H386.8v13.69h27.37v13.69
		H386.8v13.69h27.37v13.69H386.8v13.69h27.37v13.69h-41.06v-54.75h-68.44v68.44h54.75v41.06h-13.69V387h-13.69v27.37h-13.69V387
		h-13.69v27.37h-13.69V387H277.3v27.37h-13.69V387h-13.69v27.37h-13.69v-41.06h54.75v-68.44h-68.44v54.75h-41.06v-13.69h27.38
		v-13.69h-27.38v-13.69h27.38v-13.69h-27.38v-13.69h27.38V277.5h-27.38v-13.69h27.38v-13.69h-27.38v-13.69h41.06v54.75h68.44v-68.44
		h-54.75v-41.06h13.69v27.38h13.69v-27.38h13.69v27.38h13.69v-27.38h13.69v27.38h13.69v-27.38h13.69v27.38h13.69v-27.38h13.69v41.06
		h-54.75v68.44h68.44v-54.75h41.06v13.69H386.8v13.69H414.18z"/>
	<path class="st4" d="M297.83,118.99c-98.88,0-179.05,80.16-179.05,179.04c0,98.88,80.16,179.05,179.05,179.05
		c98.88,0,179.04-80.16,179.04-179.05C476.88,199.15,396.72,118.99,297.83,118.99z M467.09,331.64l-26.39,17.63
		c2.48-6.95,4.49-14.17,5.98-21.63c1.49-7.5,2.4-14.99,2.76-22.41L467.09,331.64z M449.44,290.7c-0.37-7.38-1.27-14.82-2.76-22.27
		c-1.49-7.5-3.52-14.77-6.02-21.76l26.41,17.65L449.44,290.7z M441.28,202.12l-6.19,31.13c-3.16-6.67-6.85-13.2-11.07-19.52
		c-4.25-6.36-8.9-12.3-13.89-17.8L441.28,202.12z M393.66,154.52l6.19,31.13c-5.47-4.96-11.38-9.58-17.7-13.8
		c-6.36-4.25-12.93-7.95-19.65-11.13L393.66,154.52z M331.44,128.78l17.63,26.39c-6.95-2.48-14.17-4.49-21.63-5.98
		c-7.5-1.49-14.99-2.4-22.41-2.76L331.44,128.78z M264.11,128.8l26.39,17.63c-7.38,0.37-14.81,1.27-22.27,2.76
		c-7.5,1.49-14.77,3.52-21.76,6.02L264.11,128.8z M201.92,154.58l31.13,6.19c-6.67,3.16-13.2,6.85-19.52,11.07
		c-6.36,4.25-12.3,8.9-17.8,13.89L201.92,154.58z M185.45,196.02c-4.96,5.47-9.58,11.38-13.8,17.7
		c-4.25,6.36-7.96,12.93-11.13,19.64l-6.2-31.15L185.45,196.02z M154.96,246.79c-2.48,6.95-4.49,14.17-5.98,21.63
		c-1.49,7.5-2.4,14.99-2.76,22.41l-17.65-26.41L154.96,246.79z M146.23,305.37c0.37,7.38,1.27,14.82,2.76,22.27
		c1.49,7.5,3.52,14.77,6.02,21.76l-26.41-17.65L146.23,305.37z M154.39,393.95l6.19-31.13c3.16,6.67,6.85,13.2,11.07,19.52
		c4.25,6.36,8.9,12.3,13.89,17.8L154.39,393.95z M202.01,441.54l-6.19-31.13c5.47,4.96,11.38,9.58,17.7,13.8
		c6.36,4.25,12.93,7.95,19.65,11.13L202.01,441.54z M264.22,467.29l-17.63-26.39c6.95,2.48,14.17,4.49,21.63,5.98
		c7.5,1.49,14.99,2.4,22.41,2.76L264.22,467.29z M331.55,467.27l-26.39-17.63c7.38-0.37,14.82-1.27,22.27-2.76
		c7.5-1.49,14.77-3.52,21.76-6.02L331.55,467.27z M393.75,441.48l-31.13-6.19c6.67-3.16,13.2-6.85,19.52-11.07
		c6.36-4.25,12.3-8.9,17.8-13.89L393.75,441.48z M297.83,443.22c-80.19,0-145.19-65.01-145.19-145.19
		c0-80.19,65-145.19,145.19-145.19c80.19,0,145.19,65,145.19,145.19C443.02,378.22,378.02,443.22,297.83,443.22z M410.22,400.05
		c4.96-5.47,9.58-11.38,13.8-17.7c4.25-6.36,7.95-12.93,11.13-19.64l6.2,31.15L410.22,400.05z"/>
	<g>
		<g>
			<path class="st5" d="M238.59,480.35c-16.01-5.2-30.86-12.31-44.39-20.99l12.53,119.07l80.12-88.96
				C270.8,488.53,254.6,485.55,238.59,480.35z M206.71,477.61c8.66,5.56,18.17,10.11,28.41,13.44c10.25,3.33,20.61,5.24,30.88,5.83
				l-51.28,56.94L206.71,477.61z"/>
			<path class="st6" d="M231.56,502.01c-4.72-1.53-9.09-3.63-13.08-6.19l3.69,35.08l23.61-26.21
				C241.05,504.42,236.28,503.54,231.56,502.01z"/>
		</g>
		<g>
			<path class="st5" d="M388.94,17.64l-80.12,88.96c16.05,0.93,32.25,3.91,48.26,9.11c16.01,5.2,30.86,12.31,44.4,20.99
				L388.94,17.64z M329.66,99.19l51.28-56.94l8.02,76.2c-8.66-5.56-18.17-10.11-28.41-13.44C350.3,101.69,339.94,99.78,329.66,99.19
				z"/>
			<path class="st6" d="M364.11,94.06c4.72,1.53,9.09,3.63,13.08,6.19l-3.69-35.08l-23.61,26.21
				C354.62,91.65,359.39,92.53,364.11,94.06z"/>
		</g>
	</g>
	<g>
		<g>
			<path class="st5" d="M357.07,480.35c-16.01,5.2-32.2,8.18-48.26,9.11l80.12,88.96l12.53-119.07
				C387.93,468.04,373.08,475.15,357.07,480.35z M329.66,496.88c10.27-0.6,20.64-2.5,30.88-5.83c10.24-3.33,19.75-7.88,28.41-13.44
				l-8.02,76.2L329.66,496.88z"/>
			<path class="st6" d="M364.11,502.01c-4.72,1.53-9.49,2.41-14.22,2.68l23.61,26.21l3.69-35.08
				C373.2,498.38,368.82,500.47,364.11,502.01z"/>
		</g>
		<g>
			<path class="st5" d="M206.73,17.64L194.2,136.71c13.53-8.68,28.39-15.79,44.4-20.99c16.01-5.2,32.2-8.18,48.26-9.11L206.73,17.64
				z M206.71,118.45l8.02-76.2L266,99.19c-10.27,0.6-20.64,2.5-30.88,5.83C224.87,108.35,215.37,112.9,206.71,118.45z"/>
			<path class="st6" d="M231.56,94.06c4.72-1.53,9.49-2.41,14.22-2.68l-23.61-26.21l-3.69,35.08
				C222.47,97.69,226.84,95.59,231.56,94.06z"/>
		</g>
	</g>
	<g>
		<g>
			<path class="st5" d="M452.92,410.71c-9.89,13.62-21.25,25.55-33.69,35.74l117.11,24.88L476.5,367.63
				C470.65,382.61,462.82,397.1,452.92,410.71z M440.46,440.19c7.96-6.52,15.23-14.16,21.56-22.87
				c6.33-8.72,11.35-17.99,15.09-27.57l38.3,66.36L440.46,440.19z"/>
			<path class="st6" d="M471.34,424.09c-2.91,4.01-6.26,7.53-9.92,10.53l34.5,7.33l-17.63-30.55
				C476.57,415.82,474.26,420.08,471.34,424.09z"/>
		</g>
		<g>
			<path class="st5" d="M59.32,124.74l59.85,103.69c5.85-14.98,13.68-29.46,23.58-43.08c9.89-13.62,21.25-25.55,33.68-35.74
				L59.32,124.74z M118.56,206.31l-38.3-66.36l74.95,15.92c-7.96,6.52-15.23,14.16-21.56,22.87
				C127.31,187.46,122.3,196.73,118.56,206.31z"/>
			<path class="st6" d="M124.32,171.97c2.91-4.01,6.26-7.53,9.92-10.53l-34.5-7.33l17.63,30.55
				C119.1,180.25,121.41,175.98,124.32,171.97z"/>
		</g>
	</g>
	<g>
		<g>
			<path class="st5" d="M489.54,298.03c0,16.83-2.17,33.16-6.25,48.71l109.37-48.71l-109.37-48.71
				C487.36,264.88,489.54,281.2,489.54,298.03z M496.78,329.21c2.61-9.96,4-20.4,4-31.18c0-10.77-1.39-21.22-4-31.18l70,31.18
				L496.78,329.21z"/>
			<path class="st6" d="M512.3,298.03c0,4.96-0.64,9.77-1.84,14.35l32.22-14.35l-32.22-14.35
				C511.66,288.26,512.3,293.07,512.3,298.03z"/>
		</g>
		<g>
			<path class="st5" d="M3.01,298.03l109.37,48.71c-4.07-15.55-6.25-31.88-6.25-48.71c0-16.83,2.17-33.16,6.25-48.71L3.01,298.03z
				 M98.89,329.21l-70-31.17l70-31.17c-2.61,9.95-4,20.4-4,31.17C94.89,308.81,96.28,319.25,98.89,329.21z"/>
			<path class="st6" d="M83.36,298.03c0-4.96,0.64-9.77,1.84-14.35l-32.22,14.35l32.22,14.35C84,307.8,83.36,302.99,83.36,298.03z"
				/>
		</g>
	</g>
	<g>
		<g>
			<path class="st5" d="M452.92,185.35c9.89,13.62,17.73,28.1,23.58,43.08l59.85-103.69l-117.11,24.88
				C431.68,159.81,443.03,171.74,452.92,185.35z M477.11,206.31c-3.74-9.59-8.76-18.86-15.09-27.57
				c-6.33-8.72-13.6-16.35-21.56-22.87l74.95-15.92L477.11,206.31z"/>
			<path class="st6" d="M471.34,171.97c2.91,4.01,5.22,8.28,6.95,12.69l17.63-30.55l-34.5,7.33
				C465.08,164.44,468.43,167.96,471.34,171.97z"/>
		</g>
		<g>
			<path class="st5" d="M59.32,471.32l117.11-24.88c-12.44-10.19-23.79-22.12-33.69-35.74c-9.89-13.62-17.73-28.1-23.58-43.08
				L59.32,471.32z M155.21,440.19l-74.95,15.92l38.3-66.36c3.74,9.59,8.76,18.86,15.09,27.57
				C139.98,426.04,147.24,433.67,155.21,440.19z"/>
			<path class="st6" d="M124.32,424.09c-2.91-4.01-5.22-8.28-6.95-12.69l-17.63,30.55l34.5-7.33
				C130.58,431.62,127.24,428.11,124.32,424.09z"/>
		</g>
	</g>
</g>
</svg>
