<?xml version="1.0" encoding="utf-8"?>
<!-- Generator: Adobe Illustrator 25.0.0, SVG Export Plug-In . SVG Version: 6.00 Build 0)  -->
<svg version="1.1" id="Warstwa_1" xmlns="http://www.w3.org/2000/svg" xmlns:xlink="http://www.w3.org/1999/xlink" x="0px" y="0px"
	 viewBox="0 0 595.28 595.28" style="enable-background:new 0 0 595.28 595.28;" xml:space="preserve">
<style type="text/css">
	.st0{display:none;}
	.st1{display:inline;}
	.st2{fill:#FFD600;}
	.st3{fill-rule:evenodd;clip-rule:evenodd;fill:#FFD600;}
	.st4{display:none;fill:#348234;stroke:#348234;stroke-width:5;stroke-miterlimit:10;}
	.st5{fill:#FFD400;}
</style>
<g class="st0">
	<g class="st1">
		<g>
			<path class="st2" d="M297.2,116.19c-100.28,0-181.57,81.29-181.57,181.57s81.29,181.57,181.57,181.57s181.57-81.29,181.57-181.57
				C478.77,197.48,397.48,116.19,297.2,116.19z M468.85,331.84l-26.76,17.88c2.52-7.05,4.56-14.38,6.06-21.94
				c1.51-7.61,2.43-15.2,2.8-22.72L468.85,331.84z M450.95,290.32c-0.37-7.48-1.29-15.03-2.8-22.59
				c-1.51-7.61-3.57-14.97-6.11-22.07l26.78,17.9L450.95,290.32z M442.67,200.49l-6.28,31.56c-3.21-6.77-6.94-13.39-11.23-19.8
				c-4.31-6.45-9.02-12.47-14.09-18.05L442.67,200.49z M394.38,152.22l6.28,31.56c-5.55-5.03-11.54-9.71-17.95-13.99
				c-6.45-4.31-13.11-8.07-19.92-11.29L394.38,152.22z M331.29,126.11l17.88,26.76c-7.05-2.52-14.38-4.56-21.94-6.06
				c-7.61-1.51-15.2-2.44-22.73-2.8L331.29,126.11z M263,126.14l26.76,17.88c-7.48,0.37-15.02,1.29-22.59,2.8
				c-7.61,1.51-14.98,3.57-22.07,6.11L263,126.14z M199.93,152.29l31.57,6.28c-6.77,3.2-13.39,6.94-19.8,11.23
				c-6.45,4.31-12.47,9.03-18.05,14.09L199.93,152.29z M183.23,194.3c-5.03,5.55-9.71,11.54-14,17.95
				c-4.31,6.45-8.07,13.11-11.28,19.92l-6.28-31.59L183.23,194.3z M152.32,245.79c-2.52,7.05-4.56,14.37-6.06,21.94
				c-1.51,7.61-2.44,15.2-2.8,22.72l-17.9-26.78L152.32,245.79z M143.46,305.19c0.37,7.48,1.29,15.02,2.79,22.59
				c1.51,7.61,3.57,14.98,6.11,22.07l-26.78-17.9L143.46,305.19z M151.73,395.03l6.28-31.56c3.21,6.77,6.94,13.39,11.23,19.8
				c4.31,6.45,9.03,12.47,14.09,18.05L151.73,395.03z M200.03,443.29l-6.28-31.56c5.55,5.03,11.54,9.71,17.95,14
				c6.45,4.31,13.11,8.07,19.92,11.28L200.03,443.29z M263.12,469.4l-17.88-26.76c7.05,2.52,14.37,4.56,21.94,6.06
				c7.61,1.51,15.2,2.43,22.73,2.8L263.12,469.4z M331.4,469.38l-26.76-17.88c7.48-0.37,15.03-1.29,22.59-2.8
				c7.61-1.51,14.98-3.57,22.07-6.11L331.4,469.38z M394.47,443.23l-31.56-6.28c6.77-3.2,13.39-6.94,19.8-11.23
				c6.45-4.31,12.47-9.03,18.05-14.09L394.47,443.23z M297.2,445c-81.32,0-147.24-65.92-147.24-147.24s65.92-147.23,147.24-147.23
				s147.24,65.92,147.24,147.23S378.52,445,297.2,445z M411.17,401.21c5.03-5.55,9.71-11.54,13.99-17.95
				c4.31-6.45,8.07-13.11,11.28-19.92l6.29,31.59L411.17,401.21z"/>
		</g>
		<g>
			<path class="st3" d="M297.2,157.17c-77.21,0-139.81,62.94-139.81,140.59s62.59,140.59,139.81,140.59s139.81-62.94,139.81-140.59
				S374.42,157.17,297.2,157.17z M409.23,264.81v13.18h-26.36v13.18h26.36v13.18h-26.36v13.18h26.36v13.18h-26.36v13.18h26.36v13.18
				h-39.54v-52.72h-65.9v65.9h52.72v39.54h-13.18v-26.36h-13.18v26.36h-13.18v-26.36h-13.18v26.36h-13.18v-26.36h-13.18v26.36
				h-13.18v-26.36h-13.18v26.36h-13.18v-39.54h52.72v-65.9h-65.9v52.72h-39.54v-13.18h26.36v-13.18h-26.36v-13.18h26.36v-13.18
				h-26.36v-13.18h26.36v-13.18h-26.36v-13.18h26.36v-13.18h-26.36v-13.18h39.54v52.72h65.9v-65.9h-52.72v-39.54h13.18v26.36h13.18
				v-26.36h13.18v26.36h13.18v-26.36h13.18v26.36h13.18v-26.36h13.18v26.36h13.18v-26.36h13.18v39.54h-52.72v65.9h65.9v-52.72h39.54
				v13.18h-26.36v13.18L409.23,264.81L409.23,264.81z"/>
		</g>
	</g>
	<g class="st1">
		<g>
			<g>
				<g>
					<path class="st2" d="M297.2,492.33c-14.16,0-27.9-1.83-40.99-5.26l40.99,92.03l40.99-92.02
						C325.1,490.5,311.36,492.32,297.2,492.33z M270.97,498.42c8.38,2.19,17.17,3.37,26.23,3.37c9.07,0,17.86-1.17,26.23-3.37
						l-26.23,58.9L270.97,498.42z"/>
				</g>
				<g>
					<path class="st2" d="M297.2,511.48c-4.17,0-8.22-0.54-12.08-1.55l12.07,27.12l12.08-27.12
						C305.42,510.94,301.37,511.48,297.2,511.48z"/>
				</g>
			</g>
			<g>
				<g>
					<path class="st2" d="M297.2,16.42l-40.99,92.03c13.09-3.43,26.82-5.26,40.99-5.26c14.16,0,27.9,1.83,40.99,5.26L297.2,16.42z
						 M270.97,97.1l26.23-58.9l26.23,58.9c-8.37-2.19-17.16-3.36-26.23-3.36C288.14,93.73,279.35,94.9,270.97,97.1z"/>
				</g>
				<g>
					<path class="st2" d="M297.2,84.04c4.17,0,8.22,0.54,12.08,1.55L297.2,58.47l-12.08,27.11
						C288.98,84.57,293.03,84.04,297.2,84.04z"/>
				</g>
			</g>
		</g>
		<g>
			<g>
				<g>
					<path class="st2" d="M394.48,466.26c-12.26,7.08-25.08,12.37-38.13,15.94l81.51,59.21l-10.51-100.19
						C417.73,450.73,406.75,459.18,394.48,466.26z M374.81,484.65c8.35-2.29,16.55-5.67,24.4-10.2s14.88-9.94,21.04-16.03
						l6.73,64.12L374.81,484.65z"/>
				</g>
				<g>
					<path class="st2" d="M404.06,482.85c-3.61,2.09-7.39,3.64-11.23,4.7l24.02,17.44l-3.1-29.52
						C410.91,478.27,407.68,480.76,404.06,482.85z"/>
				</g>
			</g>
			<g>
				<g>
					<path class="st2" d="M156.53,54.11l10.52,100.19c9.62-9.51,20.6-17.97,32.87-25.05c12.27-7.08,25.07-12.37,38.12-15.94
						L156.53,54.11z M174.15,137.1l-6.73-64.12l52.16,37.89c-8.35,2.29-16.55,5.67-24.4,10.2
						C187.34,125.6,180.31,131.01,174.15,137.1z"/>
				</g>
				<g>
					<path class="st2" d="M190.34,112.67c3.62-2.09,7.39-3.65,11.23-4.7l-24.02-17.44l3.1,29.52
						C183.49,117.25,186.73,114.75,190.34,112.67z"/>
				</g>
			</g>
		</g>
		<g>
			<g>
				<g>
					<path class="st2" d="M465.7,395.04c-7.08,12.26-15.53,23.25-25.05,32.87l100.19,10.52l-59.2-81.51
						C478.07,369.97,472.78,382.78,465.7,395.04z M457.86,420.81c6.09-6.16,11.5-13.18,16.03-21.03s7.91-16.05,10.2-24.4l37.9,52.17
						L457.86,420.81z"/>
				</g>
				<g>
					<path class="st2" d="M482.29,404.62c-2.09,3.61-4.58,6.85-7.38,9.68l29.52,3.1l-17.44-24.02
						C485.94,397.23,484.38,401.01,482.29,404.62z"/>
				</g>
			</g>
			<g>
				<g>
					<path class="st2" d="M53.56,157.09l59.2,81.51c3.57-13.05,8.86-25.86,15.94-38.12c7.08-12.27,15.53-23.24,25.05-32.87
						L53.56,157.09z M110.31,220.14l-37.89-52.17l64.12,6.73c-6.09,6.15-11.5,13.18-16.03,21.03
						C115.98,203.6,112.6,211.79,110.31,220.14z"/>
				</g>
				<g>
					<path class="st2" d="M112.11,190.9c2.09-3.61,4.58-6.85,7.38-9.69l-29.52-3.1l17.44,24.02
						C108.47,198.28,110.03,194.51,112.11,190.9z"/>
				</g>
			</g>
		</g>
		<g>
			<g>
				<g>
					<path class="st2" d="M491.77,297.76c0,14.16-1.83,27.9-5.26,40.99l92.03-40.99l-92.02-40.99
						C489.94,269.86,491.77,283.6,491.77,297.76z M497.86,323.99c2.2-8.38,3.37-17.17,3.37-26.23c0-9.07-1.17-17.86-3.37-26.23
						l58.9,26.23L497.86,323.99z"/>
				</g>
				<g>
					<path class="st2" d="M510.93,297.76c0,4.17-0.54,8.22-1.55,12.08l27.12-12.08l-27.12-12.08
						C510.39,289.54,510.93,293.58,510.93,297.76z"/>
				</g>
			</g>
			<g>
				<g>
					<path class="st2" d="M15.87,297.76l92.03,40.99c-3.43-13.09-5.26-26.82-5.26-40.99c0-14.16,1.83-27.9,5.26-40.99L15.87,297.76z
						 M96.54,323.99l-58.9-26.23l58.9-26.23c-2.19,8.37-3.36,17.16-3.36,26.23C93.18,306.82,94.35,315.61,96.54,323.99z"/>
				</g>
				<g>
					<path class="st2" d="M83.48,297.76c0-4.17,0.54-8.22,1.55-12.08l-27.11,12.08l27.11,12.08
						C84.02,305.98,83.48,301.93,83.48,297.76z"/>
				</g>
			</g>
		</g>
		<g>
			<g>
				<g>
					<path class="st2" d="M465.7,200.48c7.08,12.26,12.37,25.08,15.94,38.13l59.2-81.51l-100.19,10.51
						C450.17,177.23,458.62,188.21,465.7,200.48z M484.1,220.15c-2.29-8.35-5.67-16.55-10.2-24.4c-4.53-7.85-9.94-14.88-16.03-21.04
						l64.12-6.74L484.1,220.15z"/>
				</g>
				<g>
					<path class="st2" d="M482.29,190.89c2.08,3.62,3.64,7.39,4.7,11.24l17.44-24.01l-29.52,3.1
						C477.72,184.05,480.21,187.28,482.29,190.89z"/>
				</g>
			</g>
			<g>
				<g>
					<path class="st2" d="M53.56,438.43l100.19-10.52c-9.51-9.62-17.97-20.6-25.05-32.87c-7.08-12.26-12.37-25.07-15.94-38.12
						L53.56,438.43z M136.54,420.81l-64.12,6.73l37.89-52.16c2.29,8.35,5.67,16.54,10.2,24.4
						C125.04,407.62,130.45,414.65,136.54,420.81z"/>
				</g>
				<g>
					<path class="st2" d="M112.11,404.62c-2.09-3.61-3.65-7.39-4.7-11.23L89.97,417.4l29.52-3.1
						C116.69,411.47,114.2,408.23,112.11,404.62z"/>
				</g>
			</g>
		</g>
		<g>
			<g>
				<g>
					<path class="st2" d="M394.48,129.26c12.26,7.08,23.25,15.53,32.87,25.05l10.52-100.19l-81.51,59.2
						C369.41,116.89,382.22,122.18,394.48,129.26z M420.25,137.1c-6.16-6.09-13.18-11.5-21.04-16.03
						c-7.85-4.53-16.05-7.91-24.4-10.2l52.17-37.9L420.25,137.1z"/>
				</g>
				<g>
					<path class="st2" d="M404.06,112.67c3.61,2.09,6.85,4.58,9.68,7.38l3.1-29.52l-24.02,17.44
						C396.67,109.02,400.45,110.58,404.06,112.67z"/>
				</g>
			</g>
			<g>
				<g>
					<path class="st2" d="M156.53,541.4l81.51-59.21c-13.05-3.57-25.86-8.86-38.13-15.94c-12.27-7.08-23.24-15.53-32.87-25.05
						L156.53,541.4z M219.59,484.65l-52.17,37.89l6.74-64.12c6.15,6.09,13.18,11.49,21.03,16.03
						C203.04,478.98,211.24,482.36,219.59,484.65z"/>
				</g>
				<g>
					<path class="st2" d="M190.34,482.84c-3.61-2.08-6.85-4.57-9.69-7.38l-3.1,29.52l24.01-17.45
						C197.73,486.49,193.95,484.93,190.34,482.84z"/>
				</g>
			</g>
		</g>
	</g>
</g>
<circle class="st4" cx="297.2" cy="297.76" r="189.31"/>
<g>
	<path class="st5" d="M297.64,131.51c-91.75,0-166.13,74.38-166.13,166.13c0,91.75,74.38,166.13,166.13,166.13
		c91.75,0,166.13-74.38,166.13-166.13C463.77,205.89,389.39,131.51,297.64,131.51z M454.69,328.82l-24.48,16.36
		c2.31-6.45,4.17-13.15,5.55-20.07c1.38-6.96,2.23-13.91,2.56-20.79L454.69,328.82z M438.31,290.84
		c-0.34-6.84-1.18-13.75-2.56-20.67c-1.38-6.96-3.26-13.7-5.59-20.19l24.5,16.37L438.31,290.84z M430.74,208.64L425,237.52
		c-2.93-6.19-6.35-12.25-10.27-18.12c-3.94-5.9-8.26-11.41-12.89-16.52L430.74,208.64z M386.55,164.48l5.75,28.88
		c-5.08-4.6-10.56-8.89-16.42-12.81c-5.9-3.94-12-7.38-18.23-10.33L386.55,164.48z M328.83,140.59l16.36,24.48
		c-6.45-2.31-13.15-4.17-20.07-5.55c-6.96-1.39-13.91-2.23-20.79-2.56L328.83,140.59z M266.35,140.61l24.48,16.36
		c-6.84,0.34-13.75,1.18-20.67,2.56c-6.96,1.39-13.7,3.26-20.19,5.59L266.35,140.61z M208.64,164.54l28.88,5.74
		c-6.19,2.93-12.25,6.35-18.12,10.27c-5.9,3.94-11.41,8.26-16.51,12.89L208.64,164.54z M193.36,202.98
		c-4.6,5.08-8.89,10.56-12.81,16.42c-3.94,5.9-7.38,12-10.33,18.23l-5.75-28.91L193.36,202.98z M165.08,250.09
		c-2.3,6.45-4.17,13.15-5.55,20.07c-1.38,6.96-2.23,13.91-2.56,20.79l-16.37-24.51L165.08,250.09z M156.97,304.44
		c0.34,6.84,1.18,13.75,2.56,20.67c1.39,6.96,3.26,13.7,5.59,20.19l-24.51-16.37L156.97,304.44z M164.54,386.64l5.74-28.88
		c2.93,6.19,6.35,12.25,10.27,18.11c3.94,5.9,8.26,11.41,12.89,16.52L164.54,386.64z M208.73,430.8l-5.74-28.88
		c5.08,4.6,10.56,8.89,16.42,12.81c5.9,3.94,12,7.38,18.23,10.33L208.73,430.8z M266.45,454.69L250.1,430.2
		c6.45,2.3,13.15,4.17,20.07,5.55c6.96,1.39,13.91,2.23,20.79,2.56L266.45,454.69z M328.93,454.67l-24.48-16.36
		c6.84-0.34,13.75-1.18,20.67-2.56c6.96-1.38,13.7-3.26,20.19-5.59L328.93,454.67z M386.64,430.74L357.76,425
		c6.19-2.93,12.25-6.35,18.12-10.27c5.9-3.94,11.41-8.26,16.52-12.89L386.64,430.74z M297.64,432.36
		c-74.4,0-134.71-60.32-134.71-134.72c0-74.4,60.31-134.71,134.71-134.71c74.4,0,134.72,60.31,134.72,134.71
		C432.36,372.04,372.04,432.36,297.64,432.36z M401.92,392.3c4.6-5.08,8.88-10.56,12.81-16.42c3.94-5.9,7.38-12,10.32-18.23
		l5.75,28.9L401.92,392.3z"/>
	<g>
		<g>
			<g>
				<path class="st5" d="M242.67,466.81c-14.85-4.83-28.64-11.42-41.19-19.48l11.63,110.48l74.34-82.54
					C272.56,474.4,257.53,471.63,242.67,466.81z M213.09,464.26c8.04,5.16,16.86,9.38,26.36,12.47c9.51,3.09,19.12,4.86,28.66,5.41
					l-47.58,52.83L213.09,464.26z"/>
				<path class="st5" d="M236.15,486.9c-4.38-1.42-8.44-3.37-12.14-5.74l3.43,32.55l21.9-24.32
					C244.95,489.13,240.52,488.32,236.15,486.9z"/>
			</g>
			<g>
				<path class="st5" d="M382.17,37.48l-74.34,82.54c14.89,0.86,29.92,3.63,44.77,8.45c14.85,4.83,28.64,11.42,41.19,19.48
					L382.17,37.48z M327.17,113.14l47.58-52.83l7.44,70.71c-8.04-5.16-16.86-9.38-26.36-12.47
					C346.32,115.46,336.71,113.69,327.17,113.14z"/>
				<path class="st5" d="M359.13,108.38c4.38,1.42,8.44,3.37,12.14,5.74l-3.43-32.55l-21.9,24.32
					C350.33,106.14,354.76,106.96,359.13,108.38z"/>
			</g>
		</g>
		<g>
			<g>
				<path class="st5" d="M352.61,466.81c-14.85,4.83-29.88,7.59-44.77,8.45l74.34,82.54l11.63-110.48
					C381.24,455.38,367.46,461.98,352.61,466.81z M327.17,482.14c9.53-0.55,19.15-2.32,28.66-5.41c9.51-3.09,18.33-7.31,26.36-12.47
					l-7.44,70.71L327.17,482.14z"/>
				<path class="st5" d="M359.13,486.9c-4.38,1.42-8.8,2.24-13.19,2.49l21.9,24.32l3.43-32.55
					C367.57,483.53,363.51,485.48,359.13,486.9z"/>
			</g>
			<g>
				<path class="st5" d="M213.11,37.48l-11.63,110.48c12.56-8.06,26.34-14.65,41.19-19.48c14.85-4.83,29.88-7.59,44.77-8.45
					L213.11,37.48z M213.09,131.02l7.44-70.71l47.58,52.83c-9.53,0.55-19.15,2.32-28.66,5.41
					C229.94,121.64,221.12,125.86,213.09,131.02z"/>
				<path class="st5" d="M236.15,108.38c4.38-1.42,8.8-2.24,13.19-2.49l-21.9-24.32l-3.43,32.55
					C227.71,111.75,231.77,109.8,236.15,108.38z"/>
			</g>
		</g>
		<g>
			<g>
				<path class="st5" d="M441.54,402.19c-9.18,12.63-19.71,23.7-31.26,33.16l108.66,23.08l-55.53-96.21
					C457.99,376.12,450.72,389.56,441.54,402.19z M429.98,429.54c7.39-6.05,14.13-13.13,20-21.22c5.88-8.09,10.53-16.69,14-25.58
					l35.54,61.58L429.98,429.54z"/>
				<path class="st5" d="M458.63,414.61c-2.7,3.72-5.81,6.98-9.21,9.77l32.01,6.8l-16.36-28.35
					C463.48,406.93,461.34,410.89,458.63,414.61z"/>
			</g>
			<g>
				<path class="st5" d="M76.33,136.85l55.53,96.21c5.42-13.9,12.7-27.34,21.88-39.97c9.18-12.63,19.71-23.7,31.25-33.16
					L76.33,136.85z M131.3,212.54l-35.54-61.58l69.54,14.77c-7.39,6.05-14.13,13.13-20,21.22
					C139.42,195.04,134.77,203.64,131.3,212.54z"/>
				<path class="st5" d="M136.65,180.67c2.7-3.72,5.81-6.98,9.21-9.77l-32.02-6.8l16.36,28.35
					C131.8,188.35,133.94,184.39,136.65,180.67z"/>
			</g>
		</g>
		<g>
			<g>
				<path class="st5" d="M475.51,297.64c0,15.62-2.02,30.76-5.8,45.2l101.48-45.2l-101.48-45.2
					C473.5,266.88,475.51,282.02,475.51,297.64z M482.24,326.57c2.42-9.24,3.71-18.93,3.71-28.93c0-10-1.29-19.69-3.71-28.93
					l64.95,28.93L482.24,326.57z"/>
				<path class="st5" d="M496.64,297.64c0,4.6-0.59,9.06-1.71,13.32l29.9-13.32l-29.9-13.32
					C496.04,288.58,496.64,293.04,496.64,297.64z"/>
			</g>
			<g>
				<path class="st5" d="M24.09,297.64l101.48,45.2c-3.78-14.43-5.8-29.58-5.8-45.2c0-15.62,2.02-30.76,5.8-45.2L24.09,297.64z
					 M113.04,326.57L48.1,297.64l64.95-28.93c-2.42,9.24-3.71,18.93-3.71,28.93C109.33,307.64,110.62,317.33,113.04,326.57z"/>
				<path class="st5" d="M98.64,297.64c0-4.6,0.59-9.06,1.71-13.32l-29.9,13.32l29.9,13.32C99.24,306.7,98.64,302.24,98.64,297.64z"
					/>
			</g>
		</g>
		<g>
			<g>
				<path class="st5" d="M441.54,193.09c9.18,12.63,16.45,26.07,21.88,39.97l55.53-96.21l-108.66,23.08
					C421.83,169.38,432.36,180.45,441.54,193.09z M463.98,212.54c-3.47-8.89-8.13-17.5-14-25.58c-5.88-8.09-12.62-15.17-20-21.22
					l69.55-14.77L463.98,212.54z"/>
				<path class="st5" d="M458.63,180.67c2.7,3.72,4.85,7.68,6.45,11.78l16.36-28.35l-32.02,6.8
					C452.82,173.69,455.93,176.95,458.63,180.67z"/>
			</g>
			<g>
				<path class="st5" d="M76.33,458.43l108.66-23.08c-11.54-9.45-22.08-20.52-31.26-33.16c-9.18-12.63-16.45-26.07-21.88-39.97
					L76.33,458.43z M165.3,429.54l-69.54,14.77l35.54-61.58c3.47,8.89,8.13,17.5,14,25.58C151.17,416.41,157.91,423.49,165.3,429.54
					z"/>
				<path class="st5" d="M136.65,414.61c-2.7-3.72-4.85-7.68-6.45-11.78l-16.36,28.35l32.02-6.8
					C142.46,421.59,139.35,418.33,136.65,414.61z"/>
			</g>
		</g>
	</g>
	<polygon class="st5" points="404.55,253.62 404.55,241.04 366.82,241.04 366.82,291.35 303.93,291.35 303.93,228.46 354.24,228.46 
		354.24,190.73 341.66,190.73 341.66,215.88 329.08,215.88 329.08,190.73 316.51,190.73 316.51,215.88 303.93,215.88 303.93,190.73 
		291.35,190.73 291.35,215.88 278.77,215.88 278.77,190.73 266.2,190.73 266.2,215.88 253.62,215.88 253.62,190.73 241.04,190.73 
		241.04,228.46 291.35,228.46 291.35,291.35 228.46,291.35 228.46,241.04 190.73,241.04 190.73,253.62 215.88,253.62 215.88,266.2 
		190.73,266.2 190.73,278.77 215.88,278.77 215.88,291.35 190.73,291.35 190.73,303.93 215.88,303.93 215.88,316.51 190.73,316.51 
		190.73,329.08 215.88,329.08 215.88,341.66 190.73,341.66 190.73,354.24 228.46,354.24 228.46,303.93 291.35,303.93 291.35,366.82 
		241.04,366.82 241.04,404.55 253.62,404.55 253.62,379.4 266.2,379.4 266.2,404.55 278.77,404.55 278.77,379.4 291.35,379.4 
		291.35,404.55 303.93,404.55 303.93,379.4 316.51,379.4 316.51,404.55 329.08,404.55 329.08,379.4 341.66,379.4 341.66,404.55 
		354.24,404.55 354.24,366.82 303.93,366.82 303.93,303.93 366.82,303.93 366.82,354.24 404.55,354.24 404.55,341.66 379.4,341.66 
		379.4,329.08 404.55,329.08 404.55,316.51 379.4,316.51 379.4,303.93 404.55,303.93 404.55,291.35 379.4,291.35 379.4,278.77 
		404.55,278.77 404.55,266.2 379.4,266.2 379.4,253.62 	"/>
</g>
</svg>
