<?xml version="1.0" encoding="utf-8"?>
<!-- Generator: Adobe Illustrator 25.0.0, SVG Export Plug-In . SVG Version: 6.00 Build 0)  -->
<svg version="1.1" id="Warstwa_1" xmlns="http://www.w3.org/2000/svg" xmlns:xlink="http://www.w3.org/1999/xlink" x="0px" y="0px"
	 viewBox="0 0 595.28 595.28" style="enable-background:new 0 0 595.28 595.28;" xml:space="preserve">
<style type="text/css">
	.st0{fill:#FFD400;}
	.st1{fill-rule:evenodd;clip-rule:evenodd;fill:#FFD400;}
</style>
<g>
	<path class="st0" d="M297.64,131.51c-91.75,0-166.13,74.38-166.13,166.13c0,91.75,74.38,166.13,166.13,166.13
		c91.75,0,166.13-74.38,166.13-166.13C463.77,205.89,389.39,131.51,297.64,131.51z M454.69,328.82l-24.48,16.36
		c2.31-6.45,4.17-13.15,5.55-20.07c1.38-6.96,2.23-13.91,2.56-20.79L454.69,328.82z M438.31,290.84
		c-0.34-6.84-1.18-13.75-2.56-20.67c-1.38-6.96-3.26-13.7-5.59-20.19l24.5,16.37L438.31,290.84z M430.74,208.64L425,237.52
		c-2.93-6.19-6.35-12.25-10.27-18.12c-3.94-5.9-8.26-11.41-12.89-16.52L430.74,208.64z M386.55,164.48l5.75,28.88
		c-5.08-4.6-10.56-8.89-16.42-12.81c-5.9-3.94-12-7.38-18.23-10.33L386.55,164.48z M328.83,140.59l16.36,24.48
		c-6.45-2.31-13.15-4.17-20.07-5.55c-6.96-1.39-13.91-2.23-20.79-2.56L328.83,140.59z M266.35,140.61l24.48,16.36
		c-6.84,0.34-13.75,1.18-20.67,2.56c-6.96,1.39-13.7,3.26-20.19,5.59L266.35,140.61z M208.64,164.54l28.88,5.74
		c-6.19,2.93-12.25,6.35-18.12,10.27c-5.9,3.94-11.41,8.26-16.51,12.89L208.64,164.54z M193.36,202.98
		c-4.6,5.08-8.89,10.56-12.81,16.42c-3.94,5.9-7.38,12-10.33,18.23l-5.75-28.91L193.36,202.98z M165.08,250.09
		c-2.3,6.45-4.17,13.15-5.55,20.07c-1.38,6.96-2.23,13.91-2.56,20.79l-16.37-24.51L165.08,250.09z M156.97,304.44
		c0.34,6.84,1.18,13.75,2.56,20.67c1.39,6.96,3.26,13.7,5.59,20.19l-24.51-16.37L156.97,304.44z M164.54,386.64l5.74-28.88
		c2.93,6.19,6.35,12.25,10.27,18.11c3.94,5.9,8.26,11.41,12.89,16.52L164.54,386.64z M208.73,430.8l-5.74-28.88
		c5.08,4.6,10.56,8.89,16.42,12.81c5.9,3.94,12,7.38,18.23,10.33L208.73,430.8z M266.45,454.69L250.1,430.2
		c6.45,2.3,13.15,4.17,20.07,5.55c6.96,1.39,13.91,2.23,20.79,2.56L266.45,454.69z M328.93,454.67l-24.48-16.36
		c6.84-0.34,13.75-1.18,20.67-2.56c6.96-1.38,13.7-3.26,20.19-5.59L328.93,454.67z M386.64,430.74L357.76,425
		c6.19-2.93,12.25-6.35,18.12-10.27c5.9-3.94,11.41-8.26,16.52-12.89L386.64,430.74z M297.64,432.36
		c-74.4,0-134.71-60.32-134.71-134.72c0-74.4,60.31-134.71,134.71-134.71c74.4,0,134.72,60.31,134.72,134.71
		C432.36,372.04,372.04,432.36,297.64,432.36z M401.92,392.3c4.6-5.08,8.88-10.56,12.81-16.42c3.94-5.9,7.38-12,10.32-18.23
		l5.75,28.9L401.92,392.3z"/>
	<g>
		<g>
			<g>
				<path class="st0" d="M242.67,466.81c-14.85-4.83-28.64-11.42-41.19-19.48l11.63,110.48l74.34-82.54
					C272.56,474.4,257.53,471.63,242.67,466.81z M213.09,464.26c8.04,5.16,16.86,9.38,26.36,12.47c9.51,3.09,19.12,4.86,28.66,5.41
					l-47.58,52.83L213.09,464.26z"/>
				<path class="st0" d="M236.15,486.9c-4.38-1.42-8.44-3.37-12.14-5.74l3.43,32.55l21.9-24.32
					C244.95,489.13,240.52,488.32,236.15,486.9z"/>
			</g>
			<g>
				<path class="st0" d="M382.17,37.48l-74.34,82.54c14.89,0.86,29.92,3.63,44.77,8.45c14.85,4.83,28.64,11.42,41.19,19.48
					L382.17,37.48z M327.17,113.14l47.58-52.83l7.44,70.71c-8.04-5.16-16.86-9.38-26.36-12.47
					C346.32,115.46,336.71,113.69,327.17,113.14z"/>
				<path class="st0" d="M359.13,108.38c4.38,1.42,8.44,3.37,12.14,5.74l-3.43-32.55l-21.9,24.32
					C350.33,106.14,354.76,106.96,359.13,108.38z"/>
			</g>
		</g>
		<g>
			<g>
				<path class="st0" d="M352.61,466.81c-14.85,4.83-29.88,7.59-44.77,8.45l74.34,82.54l11.63-110.48
					C381.24,455.38,367.46,461.98,352.61,466.81z M327.17,482.14c9.53-0.55,19.15-2.32,28.66-5.41c9.51-3.09,18.33-7.31,26.36-12.47
					l-7.44,70.71L327.17,482.14z"/>
				<path class="st0" d="M359.13,486.9c-4.38,1.42-8.8,2.24-13.19,2.49l21.9,24.32l3.43-32.55
					C367.57,483.53,363.51,485.48,359.13,486.9z"/>
			</g>
			<g>
				<path class="st0" d="M213.11,37.48l-11.63,110.48c12.56-8.06,26.34-14.65,41.19-19.48c14.85-4.83,29.88-7.59,44.77-8.45
					L213.11,37.48z M213.09,131.02l7.44-70.71l47.58,52.83c-9.53,0.55-19.15,2.32-28.66,5.41
					C229.94,121.64,221.12,125.86,213.09,131.02z"/>
				<path class="st0" d="M236.15,108.38c4.38-1.42,8.8-2.24,13.19-2.49l-21.9-24.32l-3.43,32.55
					C227.71,111.75,231.77,109.8,236.15,108.38z"/>
			</g>
		</g>
		<g>
			<g>
				<path class="st0" d="M441.54,402.19c-9.18,12.63-19.71,23.7-31.26,33.16l108.66,23.08l-55.53-96.21
					C457.99,376.12,450.72,389.56,441.54,402.19z M429.98,429.54c7.39-6.05,14.13-13.13,20-21.22c5.88-8.09,10.53-16.69,14-25.58
					l35.54,61.58L429.98,429.54z"/>
				<path class="st0" d="M458.63,414.61c-2.7,3.72-5.81,6.98-9.21,9.77l32.01,6.8l-16.36-28.35
					C463.48,406.93,461.34,410.89,458.63,414.61z"/>
			</g>
			<g>
				<path class="st0" d="M76.33,136.85l55.53,96.21c5.42-13.9,12.7-27.34,21.88-39.97c9.18-12.63,19.71-23.7,31.25-33.16
					L76.33,136.85z M131.3,212.54l-35.54-61.58l69.54,14.77c-7.39,6.05-14.13,13.13-20,21.22
					C139.42,195.04,134.77,203.64,131.3,212.54z"/>
				<path class="st0" d="M136.65,180.67c2.7-3.72,5.81-6.98,9.21-9.77l-32.02-6.8l16.36,28.35
					C131.8,188.35,133.94,184.39,136.65,180.67z"/>
			</g>
		</g>
		<g>
			<g>
				<path class="st0" d="M475.51,297.64c0,15.62-2.02,30.76-5.8,45.2l101.48-45.2l-101.48-45.2
					C473.5,266.88,475.51,282.02,475.51,297.64z M482.24,326.57c2.42-9.24,3.71-18.93,3.71-28.93c0-10-1.29-19.69-3.71-28.93
					l64.95,28.93L482.24,326.57z"/>
				<path class="st0" d="M496.64,297.64c0,4.6-0.59,9.06-1.71,13.32l29.9-13.32l-29.9-13.32
					C496.04,288.58,496.64,293.04,496.64,297.64z"/>
			</g>
			<g>
				<path class="st0" d="M24.09,297.64l101.48,45.2c-3.78-14.43-5.8-29.58-5.8-45.2c0-15.62,2.02-30.76,5.8-45.2L24.09,297.64z
					 M113.04,326.57L48.1,297.64l64.95-28.93c-2.42,9.24-3.71,18.93-3.71,28.93C109.33,307.64,110.62,317.33,113.04,326.57z"/>
				<path class="st0" d="M98.64,297.64c0-4.6,0.59-9.06,1.71-13.32l-29.9,13.32l29.9,13.32C99.24,306.7,98.64,302.24,98.64,297.64z"
					/>
			</g>
		</g>
		<g>
			<g>
				<path class="st0" d="M441.54,193.09c9.18,12.63,16.45,26.07,21.88,39.97l55.53-96.21l-108.66,23.08
					C421.83,169.38,432.36,180.45,441.54,193.09z M463.98,212.54c-3.47-8.89-8.13-17.5-14-25.58c-5.88-8.09-12.62-15.17-20-21.22
					l69.55-14.77L463.98,212.54z"/>
				<path class="st0" d="M458.63,180.67c2.7,3.72,4.85,7.68,6.45,11.78l16.36-28.35l-32.02,6.8
					C452.82,173.69,455.93,176.95,458.63,180.67z"/>
			</g>
			<g>
				<path class="st0" d="M76.33,458.43l108.66-23.08c-11.54-9.45-22.08-20.52-31.26-33.16c-9.18-12.63-16.45-26.07-21.88-39.97
					L76.33,458.43z M165.3,429.54l-69.54,14.77l35.54-61.58c3.47,8.89,8.13,17.5,14,25.58C151.17,416.41,157.91,423.49,165.3,429.54
					z"/>
				<path class="st0" d="M136.65,414.61c-2.7-3.72-4.85-7.68-6.45-11.78l-16.36,28.35l32.02-6.8
					C142.46,421.59,139.35,418.33,136.65,414.61z"/>
			</g>
		</g>
	</g>
	<path class="st1" d="M297.64,169c-70.65,0-127.92,57.59-127.92,128.64c0,71.04,57.27,128.64,127.92,128.64
		c70.65,0,127.92-57.59,127.92-128.64C425.56,226.6,368.29,169,297.64,169z M400.14,267.49v12.06h-24.12v12.06h24.12v12.06h-24.12
		v12.06h24.12v12.06h-24.12v12.06h24.12v12.06h-36.18v-48.24h-60.3v60.3h48.24v36.18h-12.06v-24.12h-12.06v24.12h-12.06v-24.12
		h-12.06v24.12h-12.06v-24.12h-12.06v24.12h-12.06v-24.12h-12.06v24.12h-12.06v-36.18h48.24v-60.3h-60.3v48.24h-36.18v-12.06h24.12
		v-12.06h-24.12v-12.06h24.12v-12.06h-24.12v-12.06h24.12v-12.06h-24.12v-12.06h24.12v-12.06h-24.12v-12.06h36.18v48.24h60.3v-60.29
		h-48.24v-36.18h12.06v24.12h12.06v-24.12h12.06v24.12h12.06v-24.12h12.06v24.12h12.06v-24.12h12.06v24.12h12.06v-24.12h12.06v36.18
		h-48.24v60.29h60.3v-48.24h36.18v12.06h-24.12v12.06H400.14z"/>
</g>
</svg>
