<?xml version="1.0" encoding="utf-8"?>
<!-- Generator: Adobe Illustrator 25.0.0, SVG Export Plug-In . SVG Version: 6.00 Build 0)  -->
<svg version="1.1" id="Warstwa_1" xmlns="http://www.w3.org/2000/svg" xmlns:xlink="http://www.w3.org/1999/xlink" x="0px" y="0px"
	 viewBox="0 0 595.28 595.28" style="enable-background:new 0 0 595.28 595.28;" xml:space="preserve">
<style type="text/css">
	.st0{fill:#358535;}
	.st1{fill:#FFD400;}
	.st2{fill-rule:evenodd;clip-rule:evenodd;fill:#FFD400;}
</style>
<circle class="st0" cx="298.84" cy="296.84" r="171.28"/>
<g>
	<g>
		<path class="st1" d="M297.64,466.77c-93.26,0-169.13-75.87-169.13-169.13s75.87-169.13,169.13-169.13
			c93.26,0,169.13,75.87,169.13,169.13S390.9,466.77,297.64,466.77z M267.28,450.53l14.83-9.91c-4.2-0.46-8.39-1.1-12.52-1.93
			c-4.1-0.82-8.18-1.81-12.2-2.98L267.28,450.53z M328.1,450.51l9.91-14.83c-4.06,1.18-8.17,2.19-12.31,3.01
			c-4.1,0.82-8.25,1.46-12.41,1.92L328.1,450.51z M297.64,165.92c-72.63,0-131.71,59.09-131.71,131.71
			c0,72.63,59.09,131.72,131.71,131.72c72.63,0,131.72-59.09,131.72-131.72C429.36,225.01,370.27,165.92,297.64,165.92z
			 M211.09,427.27l17.49-3.48c-3.7-2.03-7.33-4.23-10.83-6.57c-3.47-2.32-6.86-4.8-10.13-7.42L211.09,427.27z M384.28,427.21
			l3.48-17.49c-3.3,2.64-6.71,5.15-10.22,7.49c-3.48,2.32-7.07,4.5-10.73,6.52L384.28,427.21z M185.56,387.76
			c-2.64-3.29-5.15-6.71-7.49-10.22c-2.32-3.48-4.5-7.06-6.52-10.73l-3.48,17.47L185.56,387.76z M423.79,366.71
			c-2.03,3.7-4.23,7.33-6.57,10.83c-2.32,3.48-4.8,6.86-7.42,10.13l17.48-3.48L423.79,366.71z M159.6,338.01
			c-1.18-4.06-2.19-8.17-3.01-12.31c-0.81-4.1-1.46-8.25-1.91-12.41l-9.9,14.81L159.6,338.01z M440.62,313.17
			c-0.46,4.2-1.11,8.39-1.93,12.53c-0.81,4.1-1.81,8.18-2.98,12.2l14.81-9.9L440.62,313.17z M154.66,282.11
			c0.46-4.2,1.1-8.39,1.93-12.52c0.82-4.1,1.81-8.18,2.98-12.2l-14.81,9.9L154.66,282.11z M435.68,257.27
			c1.18,4.05,2.19,8.17,3.01,12.31c0.82,4.1,1.46,8.25,1.92,12.41l9.9-14.81L435.68,257.27z M171.49,228.57
			c2.03-3.7,4.23-7.33,6.57-10.83c2.32-3.47,4.8-6.86,7.42-10.13l-17.47,3.48L171.49,228.57z M409.72,207.52
			c2.64,3.29,5.15,6.71,7.49,10.22c2.32,3.47,4.5,7.06,6.52,10.73l3.48-17.47L409.72,207.52z M207.52,185.56
			c3.29-2.64,6.71-5.15,10.22-7.49c3.48-2.32,7.06-4.5,10.73-6.52L211,168.07L207.52,185.56z M366.71,171.49
			c3.7,2.03,7.33,4.23,10.83,6.57c3.48,2.32,6.86,4.81,10.13,7.42l-3.48-17.47L366.71,171.49z M257.27,159.6
			c4.06-1.18,8.17-2.19,12.31-3.01c4.1-0.82,8.25-1.46,12.41-1.92l-14.81-9.9L257.27,159.6z M313.17,154.66
			c4.2,0.46,8.39,1.1,12.53,1.93c4.1,0.82,8.18,1.81,12.2,2.98l-9.9-14.81L313.17,154.66z"/>
		<path class="st0" d="M297.64,131.51c91.75,0,166.13,74.38,166.13,166.13s-74.38,166.13-166.13,166.13
			c-91.75,0-166.13-74.38-166.13-166.13S205.89,131.51,297.64,131.51 M345.19,165.08l-16.36-24.48l-24.51,16.37
			c6.88,0.34,13.83,1.18,20.79,2.56C332.03,160.91,338.73,162.77,345.19,165.08 M249.98,165.12c6.49-2.32,13.23-4.2,20.19-5.59
			c6.92-1.38,13.82-2.22,20.67-2.56l-24.48-16.36L249.98,165.12 M297.64,432.36c74.4,0,134.72-60.32,134.72-134.72
			c0-74.4-60.32-134.71-134.72-134.71c-74.4,0-134.71,60.31-134.71,134.71C162.92,372.04,223.24,432.36,297.64,432.36 M392.3,193.36
			l-5.75-28.88l-28.91,5.75c6.23,2.94,12.33,6.38,18.23,10.33C381.74,184.48,387.22,188.76,392.3,193.36 M202.89,193.45
			c5.1-4.63,10.61-8.94,16.51-12.89c5.87-3.92,11.92-7.34,18.12-10.27l-28.88-5.74L202.89,193.45 M425,237.52l5.74-28.88
			l-28.91-5.75c4.63,5.11,8.94,10.61,12.89,16.52C418.64,225.27,422.06,231.33,425,237.52 M170.23,237.63
			c2.94-6.23,6.38-12.32,10.33-18.23c3.92-5.87,8.21-11.34,12.81-16.42l-28.88,5.74L170.23,237.63 M438.31,290.84l16.36-24.48
			l-24.5-16.37c2.32,6.49,4.2,13.23,5.59,20.19C437.13,277.09,437.97,283.99,438.31,290.84 M156.97,290.96
			c0.34-6.88,1.18-13.83,2.56-20.79c1.38-6.92,3.24-13.62,5.55-20.07l-24.48,16.36L156.97,290.96 M430.2,345.18l24.48-16.36
			l-16.37-24.5c-0.34,6.88-1.18,13.83-2.56,20.79C434.37,332.03,432.51,338.73,430.2,345.18 M165.12,345.3
			c-2.32-6.49-4.2-13.23-5.59-20.19c-1.38-6.92-2.22-13.82-2.56-20.67l-16.36,24.48L165.12,345.3 M401.92,392.3l28.88-5.75
			l-5.75-28.9c-2.94,6.23-6.38,12.32-10.32,18.23C410.8,381.74,406.52,387.22,401.92,392.3 M193.45,392.39
			c-4.63-5.1-8.94-10.61-12.89-16.52c-3.92-5.87-7.34-11.92-10.27-18.11l-5.74,28.88L193.45,392.39 M386.64,430.74l5.75-28.91
			c-5.11,4.63-10.61,8.95-16.52,12.89c-5.87,3.92-11.92,7.34-18.12,10.27L386.64,430.74 M208.73,430.8l28.91-5.75
			c-6.23-2.94-12.32-6.38-18.23-10.33c-5.87-3.92-11.34-8.21-16.42-12.81L208.73,430.8 M328.93,454.67l16.37-24.5
			c-6.49,2.32-13.23,4.2-20.19,5.59c-6.92,1.38-13.82,2.22-20.67,2.56L328.93,454.67 M266.45,454.69l24.5-16.37
			c-6.88-0.34-13.83-1.18-20.79-2.56c-6.92-1.38-13.62-3.24-20.07-5.55L266.45,454.69 M297.64,125.51c-23.23,0-45.78,4.55-67,13.53
			c-20.5,8.67-38.91,21.08-54.71,36.89c-15.81,15.81-28.22,34.21-36.89,54.71c-8.98,21.22-13.53,43.77-13.53,67
			c0,23.23,4.55,45.78,13.53,67c8.67,20.5,21.08,38.91,36.89,54.71c15.81,15.81,34.21,28.22,54.71,36.89
			c21.22,8.98,43.77,13.53,67,13.53c23.23,0,45.78-4.55,67-13.53c20.5-8.67,38.91-21.08,54.71-36.89
			c15.81-15.81,28.22-34.21,36.89-54.71c8.98-21.22,13.53-43.77,13.53-67c0-23.23-4.55-45.78-13.53-67
			c-8.67-20.5-21.08-38.91-36.89-54.71c-15.81-15.81-34.21-28.22-54.71-36.89C343.42,130.06,320.87,125.51,297.64,125.51
			L297.64,125.51z M321.41,152.76l5.76-3.85l3.84,5.75c-1.57-0.37-3.15-0.71-4.73-1.02C324.67,153.32,323.04,153.03,321.41,152.76
			L321.41,152.76z M264.16,154.69l3.85-5.76l5.75,3.84c-1.59,0.26-3.18,0.55-4.76,0.87C267.38,153.97,265.77,154.32,264.16,154.69
			L264.16,154.69z M297.64,426.36c-70.97,0-128.71-57.74-128.71-128.72c0-70.97,57.74-128.71,128.71-128.71
			c70.98,0,128.72,57.74,128.72,128.71C426.36,368.61,368.61,426.36,297.64,426.36L297.64,426.36z M375.05,172.89l6.79-1.35
			l1.35,6.79c-1.31-0.94-2.64-1.86-3.98-2.75C377.84,174.65,376.45,173.76,375.05,172.89L375.05,172.89z M212.01,178.39l1.35-6.79
			l6.79,1.35c-1.37,0.85-2.73,1.73-4.07,2.62C214.7,176.48,213.35,177.42,212.01,178.39L212.01,178.39z M422.34,220.14
			c-0.85-1.37-1.73-2.73-2.62-4.07c-0.92-1.37-1.86-2.73-2.82-4.07l6.79,1.35L422.34,220.14L422.34,220.14z M171.54,213.44
			l6.79-1.35c-0.94,1.31-1.86,2.64-2.75,3.98c-0.92,1.37-1.81,2.76-2.68,4.16L171.54,213.44L171.54,213.44z M442.5,273.76
			c-0.26-1.59-0.55-3.18-0.87-4.76c-0.32-1.62-0.67-3.23-1.05-4.84l5.76,3.85L442.5,273.76L442.5,273.76z M148.92,268.11l5.75-3.84
			c-0.37,1.57-0.71,3.15-1.02,4.73c-0.32,1.62-0.62,3.24-0.88,4.87L148.92,268.11L148.92,268.11z M440.61,331.01
			c0.37-1.57,0.71-3.15,1.02-4.73c0.32-1.62,0.62-3.24,0.88-4.87l3.85,5.76L440.61,331.01L440.61,331.01z M148.94,327.27l3.84-5.75
			c0.26,1.59,0.55,3.18,0.87,4.76c0.32,1.62,0.67,3.23,1.05,4.84L148.94,327.27L148.94,327.27z M416.96,383.19
			c0.94-1.31,1.86-2.64,2.75-3.98c0.92-1.37,1.81-2.76,2.68-4.16l1.35,6.79L416.96,383.19L416.96,383.19z M171.6,381.92l1.35-6.79
			c0.85,1.37,1.73,2.73,2.62,4.07c0.92,1.37,1.86,2.73,2.82,4.07L171.6,381.92L171.6,381.92z M375.14,422.33
			c1.37-0.85,2.73-1.73,4.07-2.62c1.37-0.92,2.73-1.86,4.07-2.82l-1.35,6.79L375.14,422.33L375.14,422.33z M213.44,423.74
			l-1.35-6.79c1.31,0.94,2.64,1.86,3.98,2.75c1.37,0.92,2.76,1.81,4.16,2.68L213.44,423.74L213.44,423.74z M321.52,442.5
			c1.59-0.26,3.18-0.55,4.76-0.87c1.62-0.32,3.23-0.67,4.84-1.05l-3.85,5.76L321.52,442.5L321.52,442.5z M268.11,446.36l-3.84-5.75
			c1.57,0.37,3.15,0.71,4.73,1.02c1.62,0.32,3.24,0.62,4.87,0.88L268.11,446.36L268.11,446.36z"/>
	</g>
	<g>
		<g>
			<g>
				<g>
					<path class="st1" d="M197.84,441.43l5.26,3.37c12.56,8.06,26.19,14.5,40.5,19.15c14.31,4.65,29.12,7.45,44.02,8.31l6.24,0.36
						l-83.03,92.19L197.84,441.43z M222.81,527.96l39.03-43.34c-7.89-0.88-15.71-2.57-23.31-5.04c-7.6-2.47-14.92-5.7-21.82-9.63
						L222.81,527.96z"/>
					<path class="st0" d="M201.48,447.33c12.56,8.06,26.34,14.65,41.19,19.48c14.85,4.83,29.88,7.59,44.78,8.45l-74.34,82.54
						L201.48,447.33 M220.53,534.97l47.58-52.83c-9.53-0.55-19.15-2.32-28.66-5.41c-9.51-3.09-18.33-7.31-26.36-12.47L220.53,534.97
						 M194.21,435.53l1.31,12.42l11.63,110.48l1.41,13.4l9.02-10.01l74.34-82.54l8.36-9.28l-12.47-0.72
						c-14.64-0.85-29.2-3.6-43.27-8.17c-14.07-4.57-27.46-10.9-39.81-18.82L194.21,435.53L194.21,435.53z M225.08,520.94l-4.8-45.66
						c5.56,2.82,11.35,5.21,17.32,7.15c5.96,1.94,12.06,3.41,18.21,4.39L225.08,520.94L225.08,520.94z"/>
				</g>
				<g>
					<path class="st1" d="M220.37,475.26l5.26,3.37c3.54,2.27,7.4,4.09,11.44,5.41c4.05,1.31,8.23,2.1,12.44,2.35l6.23,0.36
						l-30.59,33.96L220.37,475.26z"/>
					<path class="st0" d="M224.01,481.16c3.7,2.37,7.76,4.32,12.14,5.74c4.38,1.42,8.8,2.24,13.19,2.49l-21.9,24.32L224.01,481.16
						 M216.74,469.36l1.31,12.42l3.43,32.55l1.41,13.4l9.02-10.01l21.9-24.32l8.36-9.28l-12.47-0.72
						c-3.95-0.23-7.88-0.97-11.69-2.21c-3.8-1.24-7.42-2.95-10.75-5.08L216.74,469.36L216.74,469.36z"/>
				</g>
			</g>
			<g>
				<g>
					<path class="st1" d="M392.18,150.48c-12.56-8.06-26.19-14.5-40.5-19.15c-14.31-4.65-29.12-7.45-44.02-8.31l-6.24-0.36
						l83.03-92.19l12.98,123.39L392.18,150.48z M333.44,110.66c7.89,0.88,15.71,2.57,23.31,5.04c7.61,2.47,14.92,5.7,21.82,9.63
						l-6.1-58L333.44,110.66z"/>
					<path class="st0" d="M382.17,37.48l11.63,110.48c-12.56-8.06-26.34-14.65-41.19-19.48c-14.85-4.83-29.88-7.59-44.77-8.45
						L382.17,37.48 M382.19,131.02l-7.44-70.71l-47.58,52.83c9.53,0.55,19.15,2.32,28.66,5.41
						C365.34,121.64,374.16,125.86,382.19,131.02 M386.73,23.45l-9.02,10.01L303.37,116l-8.36,9.28l12.47,0.72
						c14.64,0.85,29.2,3.6,43.27,8.17c14.07,4.57,27.46,10.9,39.81,18.82l10.51,6.74l-1.31-12.42L388.14,36.85L386.73,23.45
						L386.73,23.45z M339.47,108.45l30.73-34.12L375,120c-5.56-2.82-11.35-5.21-17.32-7.15
						C351.72,110.91,345.63,109.44,339.47,108.45L339.47,108.45z"/>
				</g>
				<g>
					<path class="st1" d="M369.65,116.65c-3.55-2.28-7.4-4.1-11.44-5.41c-4.05-1.31-8.23-2.1-12.44-2.35l-6.24-0.36l30.59-33.97
						l4.78,45.46L369.65,116.65z"/>
					<path class="st0" d="M367.85,81.57l3.43,32.55c-3.7-2.37-7.76-4.32-12.14-5.74c-4.38-1.42-8.8-2.24-13.19-2.49L367.85,81.57
						 M372.4,67.55l-9.02,10.01l-21.9,24.32l-8.36,9.28l12.47,0.72c3.95,0.23,7.88,0.97,11.69,2.21c3.8,1.24,7.42,2.95,10.75,5.08
						l10.51,6.75l-1.31-12.42l-3.43-32.55L372.4,67.55L372.4,67.55z"/>
				</g>
			</g>
		</g>
		<g>
			<g>
				<g>
					<path class="st1" d="M301.42,472.63l6.24-0.36c14.9-0.86,29.71-3.66,44.02-8.31c14.31-4.65,27.94-11.09,40.5-19.15l5.26-3.37
						l-12.99,123.39L301.42,472.63z M372.47,527.96l6.1-58c-6.9,3.93-14.22,7.16-21.82,9.63c-7.6,2.47-15.42,4.16-23.31,5.04
						L372.47,527.96z"/>
					<path class="st0" d="M393.8,447.33L382.17,557.8l-74.34-82.54c14.89-0.86,29.92-3.63,44.77-8.45
						C367.46,461.98,381.24,455.38,393.8,447.33 M374.75,534.97l7.44-70.71c-8.04,5.16-16.86,9.38-26.36,12.47
						c-9.51,3.09-19.12,4.86-28.66,5.41L374.75,534.97 M401.07,435.53l-10.51,6.74c-12.34,7.92-25.74,14.25-39.81,18.82
						c-14.07,4.57-28.63,7.32-43.27,8.17L295.01,470l8.36,9.28l74.34,82.54l9.02,10.01l1.41-13.4l11.63-110.48L401.07,435.53
						L401.07,435.53z M339.47,486.83c6.16-0.99,12.25-2.45,18.21-4.39c5.96-1.94,11.76-4.33,17.32-7.15l-4.81,45.66L339.47,486.83
						L339.47,486.83z"/>
				</g>
				<g>
					<path class="st1" d="M339.53,486.76l6.24-0.36c4.2-0.24,8.39-1.03,12.44-2.35c4.04-1.31,7.89-3.13,11.44-5.41l5.26-3.37
						l-4.78,45.46L339.53,486.76z"/>
					<path class="st0" d="M371.27,481.16l-3.43,32.55l-21.9-24.32c4.39-0.25,8.82-1.07,13.19-2.49
						C363.51,485.48,367.57,483.53,371.27,481.16 M378.54,469.36l-10.51,6.74c-3.33,2.14-6.95,3.85-10.75,5.08
						c-3.8,1.24-7.73,1.98-11.69,2.21l-12.47,0.72l8.36,9.28l21.9,24.32l9.02,10.01l1.41-13.4l3.43-32.55L378.54,469.36
						L378.54,469.36z"/>
				</g>
			</g>
			<g>
				<g>
					<path class="st1" d="M210.83,30.46l83.03,92.19l-6.24,0.36c-14.89,0.86-29.7,3.66-44.02,8.31
						c-14.31,4.65-27.94,11.1-40.5,19.15l-5.26,3.37L210.83,30.46z M216.7,125.33c6.9-3.93,14.21-7.16,21.82-9.63
						c7.61-2.47,15.42-4.16,23.31-5.04l-39.03-43.34L216.7,125.33z"/>
					<path class="st0" d="M213.11,37.48l74.34,82.54c-14.89,0.86-29.92,3.63-44.77,8.45c-14.85,4.83-28.64,11.42-41.19,19.48
						L213.11,37.48 M213.09,131.02c8.04-5.16,16.86-9.38,26.36-12.47c9.51-3.09,19.12-4.86,28.66-5.41l-47.58-52.83L213.09,131.02
						 M208.55,23.45l-1.41,13.4l-11.63,110.48l-1.31,12.42l10.51-6.74c12.34-7.92,25.74-14.25,39.81-18.82
						c14.07-4.57,28.63-7.32,43.27-8.17l12.47-0.72l-8.36-9.28l-74.34-82.54L208.55,23.45L208.55,23.45z M220.28,120l4.8-45.66
						l30.73,34.12c-6.16,0.99-12.25,2.45-18.21,4.39C231.63,114.78,225.84,117.17,220.28,120L220.28,120z"/>
				</g>
				<g>
					<path class="st1" d="M225.16,74.56l30.59,33.97l-6.24,0.36c-4.21,0.24-8.39,1.03-12.44,2.35c-4.04,1.31-7.9,3.13-11.44,5.41
						l-5.26,3.37L225.16,74.56z"/>
					<path class="st0" d="M227.44,81.57l21.9,24.32c-4.39,0.25-8.82,1.07-13.19,2.49c-4.38,1.42-8.44,3.37-12.14,5.74L227.44,81.57
						 M222.88,67.55l-1.41,13.4l-3.43,32.55l-1.31,12.42l10.51-6.74c3.33-2.14,6.95-3.85,10.75-5.08c3.8-1.24,7.73-1.98,11.69-2.21
						l12.47-0.72l-8.36-9.28l-21.9-24.32L222.88,67.55L222.88,67.55z"/>
				</g>
			</g>
		</g>
		<g>
			<g>
				<g>
					<path class="st1" d="M403.55,436.99l4.83-3.96c11.54-9.45,21.88-20.42,30.73-32.6c8.85-12.18,16.08-25.4,21.51-39.3l2.27-5.82
						l62.02,107.45L403.55,436.99z M493.56,439.98l-29.15-50.51c-3.27,7.23-7.29,14.15-11.99,20.62
						c-4.7,6.47-10.03,12.43-15.9,17.78L493.56,439.98z"/>
					<path class="st0" d="M463.42,362.22l55.53,96.21l-108.66-23.08c11.54-9.45,22.08-20.52,31.26-33.16
						C450.72,389.56,457.99,376.12,463.42,362.22 M499.52,444.32l-35.54-61.58c-3.47,8.89-8.13,17.5-14,25.58
						c-5.88,8.09-12.62,15.17-20,21.22L499.52,444.32 M462.37,348.4l-4.54,11.64c-5.33,13.66-12.44,26.66-21.14,38.63
						c-8.7,11.97-18.86,22.75-30.2,32.04l-9.66,7.92l12.22,2.6L517.7,464.3l13.18,2.8l-6.73-11.67l-55.53-96.21L462.37,348.4
						L462.37,348.4z M442.68,426.11c4.4-4.42,8.47-9.19,12.15-14.26c3.69-5.07,6.97-10.42,9.81-15.96l22.95,39.76L442.68,426.11
						L442.68,426.11z"/>
				</g>
				<g>
					<path class="st1" d="M442.69,426.01l4.83-3.96c3.26-2.67,6.18-5.77,8.68-9.21c2.5-3.44,4.54-7.18,6.08-11.1l2.27-5.82
						l22.85,39.59L442.69,426.01z"/>
					<path class="st0" d="M465.08,402.83l16.36,28.35l-32.01-6.8c3.4-2.79,6.5-6.05,9.21-9.77
						C461.34,410.89,463.48,406.93,465.08,402.83 M464.03,389.01l-4.54,11.64c-1.44,3.69-3.36,7.2-5.71,10.43
						c-2.35,3.24-5.09,6.15-8.16,8.66l-9.66,7.92l12.22,2.6l32.01,6.8l13.18,2.8l-6.73-11.67l-16.36-28.35L464.03,389.01
						L464.03,389.01z"/>
				</g>
			</g>
			<g>
				<g>
					<path class="st1" d="M70.37,132.52l121.36,25.78l-4.83,3.96c-11.54,9.46-21.88,20.42-30.73,32.6s-16.08,25.4-21.51,39.3
						l-2.27,5.82L70.37,132.52z M130.88,205.81c3.27-7.23,7.29-14.15,11.99-20.62c4.7-6.47,10.03-12.43,15.9-17.78l-57.05-12.12
						L130.88,205.81z"/>
					<path class="st0" d="M76.33,136.85l108.66,23.08c-11.54,9.45-22.08,20.52-31.25,33.16c-9.18,12.63-16.45,26.07-21.88,39.97
						L76.33,136.85 M131.3,212.54c3.47-8.89,8.13-17.5,14-25.58c5.88-8.09,12.62-15.17,20-21.22l-69.54-14.77L131.3,212.54
						 M64.4,128.18l6.73,11.67l55.53,96.21l6.24,10.82l4.54-11.64c5.33-13.66,12.45-26.66,21.14-38.63
						c8.7-11.97,18.86-22.75,30.2-32.04l9.66-7.92l-12.22-2.6L77.58,130.98L64.4,128.18L64.4,128.18z M130.64,199.39l-22.95-39.76
						l44.91,9.54c-4.4,4.42-8.47,9.18-12.15,14.26C136.76,188.5,133.48,193.84,130.64,199.39L130.64,199.39z"/>
				</g>
				<g>
					<path class="st1" d="M107.88,159.77l44.71,9.5l-4.83,3.96c-3.26,2.67-6.18,5.77-8.68,9.21c-2.5,3.44-4.54,7.18-6.08,11.1
						l-2.27,5.82L107.88,159.77z"/>
					<path class="st0" d="M113.84,164.1l32.02,6.8c-3.4,2.79-6.5,6.05-9.21,9.77c-2.7,3.72-4.85,7.68-6.45,11.78L113.84,164.1
						 M101.91,155.43l6.73,11.67l16.36,28.35l6.24,10.82l4.54-11.64c1.44-3.69,3.36-7.2,5.71-10.43c2.35-3.23,5.09-6.15,8.16-8.65
						l9.66-7.92l-12.22-2.6l-32.02-6.8L101.91,155.43L101.91,155.43z"/>
				</g>
			</g>
		</g>
		<g>
			<g>
				<g>
					<path class="st1" d="M466.81,342.08c3.78-14.44,5.7-29.39,5.7-44.44s-1.92-30-5.7-44.44l-1.58-6.04l113.33,50.48l-113.33,50.48
						L466.81,342.08z M486.53,273.91c1.6,7.77,2.41,15.73,2.41,23.73c0,8-0.81,15.95-2.41,23.73l53.28-23.73L486.53,273.91z"/>
					<path class="st0" d="M469.72,252.44l101.48,45.2l-101.48,45.2c3.78-14.43,5.8-29.58,5.8-45.2
						C475.51,282.02,473.5,266.88,469.72,252.44 M482.24,326.57l64.95-28.93l-64.95-28.93c2.42,9.24,3.71,18.93,3.71,28.93
						C485.95,307.64,484.66,317.33,482.24,326.57 M460.75,241.88l3.17,12.08c3.72,14.19,5.6,28.88,5.6,43.68
						c0,14.79-1.88,29.49-5.6,43.68l-3.16,12.08l11.41-5.08l101.48-45.2l12.31-5.48l-12.31-5.48l-101.48-45.2L460.75,241.88
						L460.75,241.88z M490.49,316.32c0.96-6.16,1.45-12.41,1.45-18.68c0-6.27-0.49-12.52-1.45-18.68l41.94,18.68L490.49,316.32
						L490.49,316.32z"/>
				</g>
				<g>
					<path class="st1" d="M492.03,310.2c1.07-4.08,1.61-8.3,1.61-12.56c0-4.25-0.54-8.48-1.61-12.56l-1.58-6.04l41.76,18.6
						l-41.76,18.6L492.03,310.2z"/>
					<path class="st0" d="M494.93,284.32l29.9,13.32l-29.9,13.32c1.11-4.25,1.71-8.72,1.71-13.32
						C496.64,293.04,496.04,288.58,494.93,284.32 M485.96,273.76l3.17,12.08c1,3.83,1.51,7.8,1.51,11.8c0,4-0.51,7.96-1.51,11.79
						l-3.17,12.08l11.41-5.08l29.9-13.32l12.31-5.48l-12.31-5.48l-29.9-13.32L485.96,273.76L485.96,273.76z"/>
				</g>
			</g>
			<g>
				<g>
					<path class="st1" d="M16.71,297.64l113.33-50.48l-1.58,6.04c-3.78,14.44-5.7,29.39-5.7,44.44c0,15.05,1.92,30,5.7,44.44
						l1.58,6.04L16.71,297.64z M108.75,321.37c-1.6-7.77-2.41-15.73-2.41-23.73c0-8,0.81-15.96,2.41-23.73l-53.28,23.73
						L108.75,321.37z"/>
					<path class="st0" d="M125.56,252.44c-3.78,14.43-5.8,29.58-5.8,45.2c0,15.62,2.02,30.76,5.8,45.2l-101.48-45.2L125.56,252.44
						 M113.04,326.57c-2.42-9.24-3.71-18.93-3.71-28.93c0-10,1.29-19.69,3.71-28.93L48.1,297.64L113.04,326.57 M134.53,241.88
						l-11.41,5.08l-101.48,45.2l-12.31,5.48l12.31,5.48l101.48,45.2l11.41,5.08l-3.17-12.08c-3.72-14.19-5.6-28.88-5.6-43.68
						c0-14.79,1.88-29.49,5.6-43.68L134.53,241.88L134.53,241.88z M62.85,297.64l41.94-18.68c-0.96,6.16-1.45,12.41-1.45,18.68
						c0,6.27,0.49,12.52,1.45,18.68L62.85,297.64L62.85,297.64z"/>
				</g>
				<g>
					<path class="st1" d="M63.08,297.64l41.76-18.6l-1.58,6.04c-1.07,4.08-1.61,8.3-1.61,12.56c0,4.25,0.54,8.48,1.61,12.56
						l1.58,6.04L63.08,297.64z"/>
					<path class="st0" d="M100.35,284.32c-1.11,4.25-1.71,8.72-1.71,13.32c0,4.6,0.59,9.06,1.71,13.32l-29.9-13.32L100.35,284.32
						 M109.32,273.76l-11.41,5.08l-29.9,13.32l-12.31,5.48l12.31,5.48l29.9,13.32l11.41,5.08l-3.17-12.08
						c-1-3.83-1.51-7.8-1.51-11.8c0-4,0.51-7.97,1.51-11.8L109.32,273.76L109.32,273.76z"/>
				</g>
			</g>
		</g>
		<g>
			<g>
				<g>
					<path class="st1" d="M460.62,234.15c-5.42-13.9-12.66-27.12-21.51-39.3c-8.85-12.18-19.19-23.14-30.73-32.6l-4.83-3.96
						l121.36-25.78l-62.02,107.45L460.62,234.15z M436.51,167.41c5.87,5.35,11.2,11.31,15.9,17.78c4.7,6.47,8.72,13.38,11.99,20.62
						l29.16-50.51L436.51,167.41z"/>
					<path class="st0" d="M518.95,136.85l-55.53,96.21c-5.42-13.9-12.7-27.34-21.88-39.97c-9.18-12.63-19.71-23.7-31.26-33.16
						L518.95,136.85 M463.98,212.54l35.54-61.58l-69.55,14.77c7.39,6.05,14.13,13.13,20,21.22
						C455.86,195.04,460.51,203.64,463.98,212.54 M530.88,128.18l-13.18,2.8l-108.66,23.08l-12.22,2.6l9.66,7.92
						c11.35,9.29,21.51,20.07,30.2,32.04c8.7,11.97,15.81,24.97,21.14,38.63l4.54,11.64l6.24-10.82l55.53-96.21L530.88,128.18
						L530.88,128.18z M442.68,169.17l44.91-9.54l-22.95,39.76c-2.84-5.55-6.12-10.89-9.81-15.96
						C451.15,178.36,447.08,173.59,442.68,169.17L442.68,169.17z"/>
				</g>
				<g>
					<path class="st1" d="M462.28,193.54c-1.53-3.93-3.58-7.66-6.08-11.1c-2.5-3.44-5.42-6.54-8.68-9.21l-4.83-3.96l44.71-9.5
						l-22.85,39.59L462.28,193.54z"/>
					<path class="st0" d="M481.44,164.1l-16.36,28.35c-1.6-4.1-3.74-8.05-6.45-11.78c-2.7-3.72-5.81-6.98-9.21-9.77L481.44,164.1
						 M493.37,155.43l-13.18,2.8l-32.02,6.8l-12.22,2.6l9.66,7.92c3.06,2.51,5.81,5.42,8.16,8.66c2.35,3.23,4.27,6.74,5.71,10.43
						l4.54,11.63l6.24-10.82l16.36-28.35L493.37,155.43L493.37,155.43z"/>
				</g>
			</g>
			<g>
				<g>
					<path class="st1" d="M132.39,355.31l2.27,5.82c5.43,13.9,12.66,27.12,21.51,39.3c8.85,12.17,19.18,23.14,30.73,32.6l4.83,3.96
						L70.37,462.76L132.39,355.31z M101.72,439.98l57.05-12.12c-5.87-5.35-11.2-11.31-15.9-17.78c-4.7-6.47-8.72-13.38-11.99-20.62
						L101.72,439.98z"/>
					<path class="st0" d="M131.86,362.22c5.42,13.9,12.7,27.34,21.88,39.97c9.18,12.63,19.71,23.7,31.26,33.16L76.33,458.43
						L131.86,362.22 M95.76,444.32l69.54-14.77c-7.39-6.05-14.13-13.13-20-21.22c-5.88-8.09-10.53-16.69-14-25.58L95.76,444.32
						 M132.91,348.4l-6.24,10.82l-55.53,96.21L64.4,467.1l13.18-2.8l108.66-23.08l12.22-2.6l-9.66-7.92
						c-11.35-9.29-21.51-20.08-30.2-32.04c-8.7-11.97-15.81-24.96-21.14-38.63L132.91,348.4L132.91,348.4z M107.69,435.65
						l22.95-39.76c2.84,5.55,6.12,10.89,9.81,15.96c3.69,5.07,7.75,9.84,12.15,14.26L107.69,435.65L107.69,435.65z"/>
				</g>
				<g>
					<path class="st1" d="M130.73,395.92l2.27,5.82c1.53,3.93,3.58,7.66,6.08,11.1c2.5,3.44,5.42,6.54,8.68,9.21l4.83,3.96
						l-44.71,9.5L130.73,395.92z"/>
					<path class="st0" d="M130.2,402.83c1.6,4.1,3.74,8.05,6.45,11.78c2.7,3.72,5.81,6.98,9.21,9.77l-32.02,6.8L130.2,402.83
						 M131.25,389.01l-6.24,10.82l-16.36,28.35l-6.73,11.67l13.18-2.8l32.02-6.8l12.22-2.6l-9.66-7.92
						c-3.06-2.51-5.81-5.42-8.16-8.65c-2.35-3.23-4.27-6.74-5.71-10.43L131.25,389.01L131.25,389.01z"/>
				</g>
			</g>
		</g>
	</g>
	<g>
		<path class="st2" d="M297.64,429.28c-72.19,0-130.92-59.05-130.92-131.64c0-72.59,58.73-131.64,130.92-131.64
			c72.19,0,130.92,59.05,130.92,131.64C428.56,370.22,369.83,429.28,297.64,429.28z M348.91,397.14v-30.18h-48.24v-66.29h66.29
			v48.24h30.18v-6.06h-24.12v-18.06h24.12v-6.06h-24.12v-18.06h24.12v-6.06h-24.12v-18.06h24.12v-6.06h-24.12v-18.06h24.12v-6.06
			h-30.18v48.24h-66.29v-66.29h48.24v-30.18h-6.06v24.12h-18.06v-24.12h-6.06v24.12h-18.06v-24.12h-6.06v24.12h-18.06v-24.12h-6.06
			v24.12h-18.06v-24.12h-6.06v30.18h48.24v66.29h-66.3v-48.24h-30.18v6.06h24.12v18.06h-24.12v6.06h24.12v18.06h-24.12v6.06h24.12
			v18.06h-24.12v6.06h24.12v18.06h-24.12v6.06h30.18v-48.24h66.3v66.29h-48.24v30.18h6.06v-24.12h18.06v24.12h6.06v-24.12h18.06
			v24.12h6.06v-24.12h18.06v24.12h6.06v-24.12h18.06v24.12H348.91z"/>
		<path class="st0" d="M297.64,169c70.65,0,127.91,57.59,127.91,128.64c0,71.04-57.27,128.64-127.91,128.64
			c-70.65,0-127.92-57.59-127.92-128.64C169.72,226.6,226.99,169,297.64,169 M327.79,219.26v-24.12h-12.06v24.12h-12.06v-24.12
			h-12.06v24.12h-12.06v-24.12h-12.06v24.12h-12.06v-24.12h-12.06v36.18h48.24v60.29h-60.3v-48.24h-36.18v12.06h24.12v12.06h-24.12
			v12.06h24.12v12.06h-24.12v12.06h24.12v12.06h-24.12v12.06h24.12v12.06h-24.12v12.06h36.18v-48.24h60.3v60.3h-48.24v36.18h12.06
			v-24.12h12.06v24.12h12.06v-24.12h12.06v24.12h12.06v-24.12h12.06v24.12h12.06v-24.12h12.06v24.12h12.06v-36.18h-48.24v-60.3h60.3
			v48.24h36.18v-12.06h-24.12v-12.06h24.12v-12.06h-24.12v-12.06h24.12v-12.06h-24.12v-12.06h24.12v-12.06h-24.12v-12.06h24.12
			v-12.06h-36.18v48.24h-60.3v-60.29h48.24v-36.18h-12.06v24.12H327.79 M297.64,163c-35.78,0-69.41,14.01-94.71,39.45
			c-25.29,25.43-39.21,59.23-39.21,95.19c0,35.96,13.93,69.76,39.21,95.19c25.29,25.44,58.93,39.45,94.71,39.45
			c35.78,0,69.41-14.01,94.7-39.45c25.29-25.43,39.21-59.23,39.21-95.19c0-35.96-13.93-69.76-39.21-95.19
			C367.05,177.01,333.42,163,297.64,163L297.64,163z M345.85,201.14h0.06v24.18h-42.24h-6v6v60.29v6h6h60.3h6v-6v-42.24h24.18v0.06
			h-18.12h-6v6v12.06v6h6h18.12v0.06h-18.12h-6v6v12.06v6h6h18.12v0.06h-18.12h-6v6v12.06v6h6h18.12v0.06h-18.12h-6v6v12.06v6h6
			h18.12v0.06h-24.18v-42.24v-6h-6h-60.3h-6v6v60.3v6h6h42.24v24.18h-0.06v-18.12v-6h-6h-12.06h-6v6v18.12h-0.06v-18.12v-6h-6
			h-12.06h-6v6v18.12h-0.06v-18.12v-6h-6h-12.06h-6v6v18.12h-0.06v-18.12v-6h-6h-12.06h-6v6v18.12h-0.06v-24.18h42.24h6v-6v-60.3v-6
			h-6h-60.3h-6v6v42.24h-24.18v-0.06h18.12h6v-6v-12.06v-6h-6h-18.12v-0.06h18.12h6v-6v-12.06v-6h-6h-18.12v-0.06h18.12h6v-6v-12.06
			v-6h-6h-18.12v-0.06h18.12h6v-6v-12.06v-6h-6h-18.12v-0.06h24.18v42.24v6h6h60.3h6v-6v-60.29v-6h-6h-42.24v-24.18h0.06v18.12v6h6
			h12.06h6v-6v-18.12h0.06v18.12v6h6h12.06h6v-6v-18.12h0.06v18.12v6h6h12.06h6v-6v-18.12h0.06v18.12v6h6h12.06h6v-6V201.14
			L345.85,201.14z"/>
	</g>
</g>
</svg>
