<?xml version="1.0" encoding="utf-8"?>
<!-- Generator: Adobe Illustrator 24.3.0, SVG Export Plug-In . SVG Version: 6.00 Build 0)  -->
<svg version="1.1" id="Warstwa_1" xmlns="http://www.w3.org/2000/svg" xmlns:xlink="http://www.w3.org/1999/xlink" x="0px" y="0px"
	 viewBox="0 0 512 512" style="enable-background:new 0 0 512 512;" xml:space="preserve">
<style type="text/css">
	.st0{fill:#358535;}
</style>
<g>
	<g>
		<g>
			<path class="st0" d="M381.8,158.4c5.2,1.3,10.2,4,14.3,7.6c1.5,1.3,3.4,2,5.3,2c2.2,0,4.4-0.9,6-2.7c2.9-3.3,2.6-8.4-0.7-11.3
				c-4.4-3.9-9.4-7-14.8-9.1v-11.6c0-25-20.4-45.4-45.4-45.4s-45.4,20.4-45.4,45.4v11.6c-5.4,2.2-10.5,5.2-14.8,9.1
				c-3.3,2.9-3.6,8-0.7,11.3s8,3.6,11.3,0.7c4.1-3.6,9-6.2,14.3-7.6c3.5-0.9,6-4.1,6-7.8v-17.4c0-16.2,13.2-29.4,29.4-29.4
				c16.2,0,29.4,13.2,29.4,29.4v17.4C375.7,154.3,378.2,157.4,381.8,158.4z"/>
			<path class="st0" d="M210.2,208v11.6c-19.1,7.6-32,26.1-32,47.2c0,28,22.8,50.7,50.7,50.7h18.7v37.4h-13.3c-4.4,0-8,3.6-8,8
				s3.6,8,8,8h85.4c4.4,0,8-3.6,8-8s-3.6-8-8-8h-56.1v-37.4h18.7c28,0,50.7-22.8,50.7-50.7c0-2.1-0.1-4.1-0.4-6.2
				c-0.5-4.4-4.5-7.5-8.9-7s-7.5,4.5-7,8.9c0.2,1.4,0.3,2.8,0.3,4.2c0,19.1-15.6,34.7-34.7,34.7h-18.7v-34.7c0-4.4-3.6-8-8-8
				s-8,3.6-8,8v34.7h-18.7c-19.1,0-34.7-15.6-34.7-34.7c0-15.8,10.7-29.7,26-33.6c3.5-0.9,6-4.1,6-7.8V208
				c0-16.2,13.2-29.4,29.4-29.4c8.2,0,15.9,3.5,21.4,9.2c-11.1,5.8-18.7,17.4-18.7,30.8c0,19.1,15.6,34.7,34.7,34.7
				s34.7-15.6,34.7-34.7c0-18.8-15-34.1-33.6-34.7c-8.2-13.1-22.8-21.4-38.5-21.4C230.6,162.6,210.2,183,210.2,208z M293,200
				c10.3,0,18.7,8.4,18.7,18.7s-8.4,18.7-18.7,18.7c-10.3,0-18.7-8.4-18.7-18.7S282.7,200,293,200z"/>
			<path class="st0" d="M119.5,133.2v11.6c-5.4,2.2-10.5,5.3-14.9,9.1c-3.3,2.9-3.6,8-0.7,11.3s8,3.6,11.3,0.7
				c4.1-3.6,9-6.2,14.3-7.6c3.5-0.9,6-4.1,6-7.8v-17.4c0-16.2,13.2-29.4,29.4-29.4s29.4,13.2,29.4,29.4v17.4c0,3.7,2.5,6.8,6,7.8
				c5.2,1.4,10.2,4,14.3,7.6c1.5,1.3,3.4,2,5.3,2c2.2,0,4.4-0.9,6-2.7c2.9-3.3,2.6-8.4-0.7-11.3c-4.4-3.9-9.4-7-14.9-9.1v-11.6
				c0-25-20.4-45.4-45.4-45.4C139.8,87.9,119.5,108.2,119.5,133.2z"/>
			<path class="st0" d="M458.3,53.2c0,4.4,3.6,8,8,8h13.6c7.4,0,13.3,6,13.3,13.3c0,7.4-6,13.3-13.3,13.3h-32
				c-7.4,0-13.3-6-13.3-13.3c0-2.4,0.6-4.6,1.8-6.7c2.2-3.8,0.9-8.7-2.9-10.9s-8.7-0.9-10.9,2.9c-2.6,4.5-4,9.6-4,14.7
				c0,16.2,13.2,29.4,29.4,29.4h32c16.2,0,29.4-13.2,29.4-29.4S496,45.2,479.8,45.2h-13.6C461.9,45.2,458.3,48.7,458.3,53.2z"/>
			<path class="st0" d="M309,71.8h96.1c4.4,0,8-3.6,8-8s-3.6-8-8-8H309c-7.4,0-13.3-6-13.3-13.3s6-13.3,13.3-13.3h138.8
				c4.8,0,9.2,2.6,11.6,6.7c2.2,3.8,7.1,5.1,10.9,2.9c3.8-2.2,5.1-7.1,2.9-10.9c-5.2-9.1-15-14.7-25.4-14.7H309
				c-16.2,0-29.4,13.2-29.4,29.4S292.8,71.8,309,71.8z"/>
			<path class="st0" d="M100.8,71.8c9.3,0,18,3.1,25.2,8.9c3.4,2.8,8.5,2.3,11.3-1.2c2.8-3.4,2.3-8.5-1.2-11.3
				c-9.9-8-22.4-12.5-35.2-12.5c-30.9,0-56.1,25.1-56.1,56.1c0,12.8,4.4,25.3,12.5,35.2c1.6,2,3.9,3,6.2,3c1.8,0,3.5-0.6,5-1.8
				c3.4-2.8,4-7.8,1.2-11.3c-5.8-7.2-8.9-15.9-8.9-25.2C60.8,89.8,78.7,71.8,100.8,71.8z"/>
			<path class="st0" d="M79.4,258.7c-4.4,0-8,3.6-8,8v34.7H52.8c-19.1,0-34.7-15.6-34.7-34.7c0-4.4-3.6-8-8-8s-8,3.6-8,8
				c0,28,22.8,50.7,50.7,50.7h18.7v37.4h-8c-4.4,0-8,3.6-8,8s3.6,8,8,8h85.4c4.4,0,8-3.6,8-8s-3.6-8-8-8H87.5v-37.4h18.7
				c28,0,50.7-22.8,50.7-50.7c0-21-12.9-39.6-32-47.2V208c0-25-20.4-45.4-45.4-45.4c-15.8,0-30.5,8.3-38.6,21.6
				c-1.3-0.2-2.7-0.2-4.1-0.2C17.6,184,2,199.5,2,218.7s15.6,34.7,34.7,34.7s34.7-15.6,34.7-34.7c0-11.9-6-22.4-15.2-28.7
				c5.5-7,14.1-11.4,23.2-11.4c16.2,0,29.4,13.2,29.4,29.4v17.4c0,3.7,2.5,6.8,6,7.8c15.3,3.9,26,17.8,26,33.6
				c0,19.1-15.6,34.7-34.7,34.7H87.5v-34.7C87.5,262.3,83.9,258.7,79.4,258.7z M36.7,237.3c-10.3,0-18.7-8.4-18.7-18.7
				s8.4-18.7,18.7-18.7s18.7,8.4,18.7,18.7C55.4,229,47,237.3,36.7,237.3z"/>
			<path class="st0" d="M439.8,218.7c0,19.1,15.6,34.7,34.7,34.7s34.7-15.6,34.7-34.7S493.6,184,474.5,184c-1.4,0-2.7,0.1-4.1,0.2
				c-8.2-13.3-22.9-21.6-38.6-21.6c-25,0-45.4,20.4-45.4,45.4v11.6c-19.1,7.6-32,26.1-32,47.2c0,28,22.8,50.7,50.7,50.7h18.7v37.4
				h-8c-4.4,0-8,3.6-8,8s3.6,8,8,8h85.4c4.4,0,8-3.6,8-8s-3.6-8-8-8h-61.4v-37.4h18.7c28,0,50.7-22.8,50.7-50.7
				c0-2.6-0.2-5.2-0.6-7.7c-0.7-4.4-4.8-7.4-9.1-6.7c-4.4,0.7-7.4,4.8-6.7,9.1c0.3,1.7,0.4,3.5,0.4,5.3c0,19.1-15.6,34.7-34.7,34.7
				h-18.7v-34.7c0-4.4-3.6-8-8-8s-8,3.6-8,8v34.7h-18.7c-19.1,0-34.7-15.6-34.7-34.7c0-15.8,10.7-29.7,26-33.6c3.5-0.9,6-4.1,6-7.8
				V208c0-16.2,13.2-29.4,29.4-29.4c9.1,0,17.7,4.3,23.2,11.4C445.8,196.2,439.8,206.8,439.8,218.7z M474.5,200
				c10.3,0,18.7,8.4,18.7,18.7s-8.4,18.7-18.7,18.7c-10.3,0-18.7-8.4-18.7-18.7S464.2,200,474.5,200z"/>
			<path class="st0" d="M47.5,48.6C62.4,36,81.3,29.1,100.8,29.1c32.4,0,62.1,19.1,75.4,48.7c1.3,3,4.3,4.7,7.3,4.7
				c1.1,0,2.2-0.2,3.3-0.7c4-1.8,5.8-6.6,4-10.6c-16-35.3-51.3-58.1-90-58.1c-23.3,0-45.9,8.3-63.6,23.2c-3.4,2.9-3.8,7.9-1,11.3
				C39,51,44.1,51.5,47.5,48.6z"/>
			<path class="st0" d="M31.4,178.4c1.8,0,3.7-0.6,5.2-1.9c3.4-2.9,3.8-7.9,1-11.3c-12.6-14.9-19.5-33.8-19.5-53.3
				c0-15.5,4.3-30.7,12.5-43.8c2.3-3.8,1.2-8.7-2.5-11c-3.8-2.3-8.7-1.2-11,2.5C7.2,75.2,2,93.3,2,111.9c0,23.3,8.3,45.9,23.2,63.7
				C26.9,177.4,29.1,178.4,31.4,178.4z"/>
		</g>
		<path class="st0" d="M145.3,408.2c0,4.4-3.6,8-8,8H34.6c-4.4,0-8-3.6-8-8s3.6-8,8-8h102.7C141.8,400.2,145.3,403.8,145.3,408.2z"
			/>
		<path class="st0" d="M236.8,453.4c0,4.4-3.6,8-8,8H55.5c-4.4,0-8-3.6-8-8s3.6-8,8-8h173.4C233.3,445.4,236.8,448.9,236.8,453.4z"
			/>
		<path class="st0" d="M498.2,453.4c0,4.4-3.6,8-8,8H316.8c-4.4,0-8-3.6-8-8s3.6-8,8-8h173.4C494.6,445.4,498.2,448.9,498.2,453.4z"
			/>
		<path class="st0" d="M511.1,489.6c0,4.4-3.6,8-8,8H11c-4.4,0-8-3.6-8-8s3.6-8,8-8h492.1C507.5,481.6,511.1,485.2,511.1,489.6z"/>
		<path class="st0" d="M325,408.1c0,4.4-3.6,8-8,8H214.3c-4.4,0-8-3.6-8-8s3.6-8,8-8H317C321.4,400.1,325,403.7,325,408.1z"/>
		<path class="st0" d="M491.2,408.1c0,4.4-3.6,8-8,8H380.5c-4.4,0-8-3.6-8-8s3.6-8,8-8h102.7C487.6,400.1,491.2,403.7,491.2,408.1z"
			/>
	</g>
	<path class="st0" d="M196.3,395.8l-11.5,18.1c-1.5,2.3-4,3.7-6.6,3.7s-5.1-1.4-6.6-3.7l-11.5-18.1c-2.5-3.9-1.5-9.2,2.1-11.8
		c1.4-1,2.9-1.5,4.5-1.5c2.6,0,5.1,1.3,6.6,3.7l4.9,7.7l4.9-7.7c2.5-3.9,7.5-4.9,11.1-2.2c1.8,1.3,3,3.2,3.4,5.4
		S197.5,393.9,196.3,395.8z"/>
	<path class="st0" d="M390.5,349L379,367.1c-1.5,2.3-4,3.7-6.6,3.7s-5.1-1.4-6.6-3.7L354.3,349c-2.5-3.9-1.5-9.2,2.1-11.8
		c1.4-1,2.9-1.5,4.5-1.5c2.6,0,5.1,1.3,6.6,3.7l4.9,7.7l4.9-7.7c2.5-3.9,7.5-4.9,11.1-2.2c1.8,1.3,3,3.2,3.4,5.4
		S391.7,347,390.5,349z"/>
</g>
</svg>
