<?xml version="1.0" encoding="utf-8"?>
<!-- Generator: Adobe Illustrator 24.3.0, SVG Export Plug-In . SVG Version: 6.00 Build 0)  -->
<svg version="1.1" id="Warstwa_1" xmlns="http://www.w3.org/2000/svg" xmlns:xlink="http://www.w3.org/1999/xlink" x="0px" y="0px"
	 viewBox="0 0 512 512" style="enable-background:new 0 0 512 512;" xml:space="preserve">
<style type="text/css">
	.st0{fill:#358535;}
</style>
<g>
	<g>
		<g>
			<path class="st0" d="M40.2,113.7c-5.3,0-9.6,4.9-9.6,10.9s4.3,10.9,9.6,10.9s9.6-4.9,9.6-10.9C49.8,118.6,45.5,113.7,40.2,113.7z
				"/>
		</g>
	</g>
	<g>
		<g>
			<path class="st0" d="M509.1,285.1c-0.1-0.2-10.5-23.3-8.8-50.4c0.1-0.8,0.1-1.8,0.2-2.9c1.4-18.9,5-69.2-22.9-93.7
				c-17.6-15.5-43.8-16.8-78-3.9c-6-4.8-13.2-8.8-21.6-12.1c-35.9-14.3-68.2-4.7-96.8,3.7c-10.9,3.2-21.4,6.3-31.7,8.1
				c-5-5-11.6-13.6-19-23.4c-13-17-30.8-40.4-53.9-62.6C127.9,1.1,48.2,17.7,44.8,18.4c-3.9,0.9-6.8,4.8-6.8,9.3v14.1
				c-0.9-0.8-1.7-1.7-2.7-2.5c-6.8-6.1-12.8-9.9-13-10.1c-2.2-1.4-4.7-1.6-7-0.6s-4.1,3.1-4.9,5.7c-21.3,69,11,168.1,12.4,172.3
				c1,3.1,3.4,5.3,6.2,6c3.9,0.9,7.6,1.3,11,1.3c23.3,0,35.7-18,36.3-18.8c1.7-2.5,2.1-5.7,1.3-8.6c0-0.2-4.5-17.8,4.8-33.9
				c6,8.3,13.3,22.4,12.8,41.1c-0.1,2.6-0.2,5.1-0.2,7.6c-1.1,32.8-2.2,66.8,28.7,85.9c5.3,3.3,11.5,20.4,13.1,58.8
				c0.9,21.4,0,42-0.5,50.6c-7.8,7.4-25.9,27-21.4,47.3c0.9,4.2,4.3,7.2,8.1,7.2h38.1H207c3.3,0,6.3-2.2,7.6-5.6
				c1.4-3.4,0.8-7.4-1.3-10.2c-6.5-8.5-2.8-21.4-2.7-21.4c0.3-0.8,0.4-1.7,0.5-2.5l8-127.6c19,2.7,41.7,3.9,64.1-0.2
				c6.6,16,25,53.4,55.6,64.3l10.2,49.8c-7,6.7-19.3,21.4-21.7,42.7c-0.3,2.7,0.4,5.4,2,7.5s3.9,3.2,6.3,3.2h41.7
				c2.4,0,4.7-1.2,6.3-3.3c1.6-2.1,2.3-4.8,2-7.5c0-0.2-1.7-16.2,6.4-30.4c1.1-1.9,1.5-4.2,1.3-6.4l-7.5-67.8l2-7.8
				c7.9,3.7,14.5,6,18.6,7.3l21.7,61.5c-22.5,15-24.8,42.8-24.9,44.1c-0.2,2.7,0.6,5.3,2.2,7.2c1.6,2,3.8,3.1,6.1,3.1h39
				c4.6,0,8.4-4.3,8.4-9.5c0-14.4,9.8-25.9,9.9-26c2-2.2,2.8-5.4,2.3-8.5L453.7,302c-0.4-2.3-1.5-4.4-3.1-5.8
				c-0.3-0.2-26.2-23-41.1-39c-0.8-3.5,2.7-15.7,5-23.8c4.9-16.9,10.9-37.9,8.5-58.2c-0.6-5.1-1.8-10-3.4-14.5
				c12.9,7.7,20.7,21,23.3,39.8c3.9,27.9,6.9,50,14.5,66.5c8.6,18.8,22.5,28.9,43.8,31.8c0.3,0,0.7,0.1,1,0.1c2.7,0,5.3-1.5,6.9-4.1
				C510.3,292,510.5,288.2,509.1,285.1z M368.5,432.1h-22.3c5.4-14.2,16.3-22.6,16.4-22.6c2.9-2.2,4.4-6.2,3.6-10.1l-12.6-61.3
				c-0.7-3.6-3.2-6.4-6.4-7.1c-24.1-5.9-40.4-35.6-47.5-51.4c7.6-2.4,15-5.6,22.1-9.6c9.1,16.1,21.9,30.2,38.1,42
				c4.1,3,8.2,5.6,12.1,8l-3.1,12.6c-0.3,1.2-0.4,2.5-0.3,3.8l7.3,66.5C370.6,413.4,368.9,424.4,368.5,432.1z M437.3,309.2
				l16.1,97.1c-3.4,5-8.8,14.2-10.9,25.9h-20.7c2.7-7.4,8.2-16.9,19.5-21.9c2.1-0.9,3.7-2.8,4.6-5.1c0.9-2.3,0.9-5,0.1-7.3
				l-26.2-74.2c-1-2.9-3.3-5.1-6-5.7c-0.2-0.1-22.8-5.8-45.4-22.4c-16.2-11.9-28.2-26-36-42.2c-0.1-0.4-0.3-0.8-0.5-1.2
				c0-0.1-0.1-0.2-0.2-0.3c-5.9-12.7-9.2-26.7-9.8-42c-0.2-5.2-4.1-9.3-8.8-9c-4.6,0.3-8.2,4.7-7.9,10c0.7,15,3.6,29.1,8.6,42.2
				c-53.9,30.4-135.2,2.1-136.1,1.8c-2.5-0.9-5.2-0.4-7.3,1.3c-2.1,1.7-3.4,4.5-3.5,7.4l-1.8,59.2c-0.2,5.2,3.4,9.7,8.1,9.8
				c0.1,0,0.2,0,0.3,0c4.5,0,8.2-4,8.3-9.2l1.5-47.1c4.9,1.4,11.4,3.1,18.9,4.6l-8,128c-0.9,3.5-2.8,13-0.7,23.2h-25.2
				c0.2-4.4,1.8-10,7.2-14.1c2.2-1.7,3.6-4.5,3.7-7.6l1.8-58.5c0.2-5.2-3.4-9.7-8.1-9.8c-0.1,0-0.2,0-0.3,0c-4.5,0-8.2,4-8.3,9.2
				l-1.7,54c-8,8-10.7,18.2-11,26.8h-19.8c2.9-8,11.1-17.6,17.4-22.9c1.9-1.6,3.2-4.2,3.4-6.9c0.1-1.1,1.9-27.8,0.7-56.9
				c-1.7-42.3-8.8-66.8-21.8-74.8c-20.8-12.8-21.1-33.3-20-68.5c0.1-2.6,0.2-5.1,0.2-7.7c0.9-31.4-14.9-52.7-22.6-61.2
				c1.6-13.4-3.1-24.8-6.9-30.3c-2.9-4.1-8.1-4.8-11.7-1.5s-4.2,9.3-1.3,13.4c0,0,2,3,3,7.7c1.4,6.4,0.3,12.8-3.4,18.9
				c-10.5,17.5-9.7,36-8.4,45.1c-3.7,3.7-11.6,9.5-23.7,8.4C31,175.5,12.3,105.8,23.1,52.7c6.1,5.2,13,12.5,15.4,19.8
				c0,0.1,0.1,0.2,0.1,0.3c0,0.1,0,0.1,0.1,0.2c0.1,0.3,0.3,0.7,0.4,1v0.1c0.6,1.1,1.3,2,2.2,2.7c0,0,0,0,0.1,0
				c0.3,0.2,0.5,0.4,0.8,0.6l0.1,0.1c0.1,0,0.1,0.1,0.2,0.1c0.2,0.1,0.4,0.2,0.7,0.4c0.1,0.1,0.2,0.1,0.3,0.2c0.1,0,0.1,0.1,0.2,0.1
				c0.2,0.1,0.3,0.1,0.5,0.2c0.1,0,0.2,0.1,0.3,0.1c0.7,0.2,1.4,0.3,2.1,0.3c0.1,0,0.2,0,0.3,0c0.2,0,0.5,0,0.7-0.1
				c0.1,0,0.2,0,0.4-0.1c0.2,0,0.4-0.1,0.6-0.2c0.1,0,0.2-0.1,0.4-0.1c0.2-0.1,0.4-0.2,0.6-0.3c0.1,0,0.2-0.1,0.3-0.1
				c0.3-0.2,0.6-0.3,0.9-0.5c0.3-0.2,2.4-1.6,5.9-3.2c12-5.5,41.2-13.7,77.4,13.2c3.9,2.9,9,1.6,11.6-2.8c2.4-4.1,1.6-9.6-1.7-12.6
				c-0.2-0.2-0.5-0.4-0.7-0.6c-1.3-1-2.6-1.9-3.8-2.7c-0.4-0.2-0.7-0.5-1.1-0.7c-0.9-0.6-1.8-1.2-2.7-1.8c-0.4-0.3-0.9-0.6-1.3-0.8
				c-0.8-0.5-1.6-1-2.4-1.5c-0.5-0.3-1-0.6-1.4-0.8c-0.8-0.4-1.5-0.9-2.3-1.3c-0.5-0.3-1-0.5-1.5-0.8c-0.7-0.4-1.5-0.8-2.2-1.1
				c-0.5-0.2-1-0.5-1.4-0.7c-0.7-0.4-1.5-0.7-2.2-1c-0.5-0.2-0.9-0.4-1.4-0.6c-0.7-0.3-1.5-0.6-2.2-0.9c-0.4-0.2-0.9-0.4-1.3-0.5
				c-0.8-0.3-1.5-0.6-2.3-0.9c-0.4-0.1-0.8-0.3-1.1-0.4c-0.9-0.3-1.8-0.6-2.6-0.9c-0.2-0.1-0.5-0.2-0.7-0.2c-1.1-0.4-2.3-0.7-3.4-1
				c-0.1,0-0.1,0-0.2-0.1c-1-0.3-2-0.5-3.1-0.8c-0.3-0.1-0.7-0.1-1-0.2c-0.7-0.2-1.5-0.3-2.2-0.5c-0.4-0.1-0.8-0.1-1.2-0.2
				c-0.7-0.1-1.3-0.2-2-0.3c-0.4-0.1-0.8-0.1-1.2-0.2C94.3,50,93.6,50,93,49.9c-0.4,0-0.8-0.1-1.2-0.1c-0.6-0.1-1.2-0.1-1.8-0.2
				c-0.4,0-0.8-0.1-1.2-0.1c-0.6,0-1.2-0.1-1.7-0.1c-0.4,0-0.8,0-1.2,0c-0.6,0-1.1,0-1.7,0c-0.4,0-0.8,0-1.1,0c-0.6,0-1.2,0-1.8,0
				c-0.3,0-0.7,0-1,0c-0.7,0-1.4,0.1-2,0.1c-0.2,0-0.4,0-0.7,0c-0.9,0.1-1.7,0.1-2.6,0.2c-0.3,0-0.5,0.1-0.8,0.1
				c-0.6,0.1-1.2,0.1-1.7,0.2c-0.3,0-0.7,0.1-1,0.1c-0.5,0.1-1,0.1-1.4,0.2c-0.4,0.1-0.7,0.1-1,0.2c-0.4,0.1-0.9,0.2-1.3,0.2
				c-0.4,0.1-0.7,0.1-1,0.2c-0.4,0.1-0.8,0.2-1.2,0.3c-0.3,0.1-0.7,0.2-1,0.2c-0.4,0.1-0.8,0.2-1.2,0.3c-0.3,0.1-0.7,0.2-1,0.3
				c-0.4,0.1-0.7,0.2-1.1,0.3c-0.3,0.1-0.6,0.2-0.9,0.3c-0.4,0.1-0.7,0.2-1.1,0.3c-0.3,0.1-0.6,0.2-0.9,0.3
				c-0.4,0.1-0.7,0.2-1.1,0.4c-0.3,0.1-0.5,0.2-0.8,0.3c-0.4,0.2-0.8,0.3-1.2,0.5c-0.2,0.1-0.3,0.1-0.5,0.2V36
				c19.4-2.8,75.9-7.3,111,26.4c22.2,21.3,38.8,43.1,52.1,60.6c3.3,4.3,6.3,8.3,9.2,11.9c-13.1-1.4-26.1-6.7-39.3-19
				c-0.1-0.1-0.2-0.2-0.3-0.3c-0.4-0.4-0.9-0.8-1.3-1.2c-0.2-0.2-0.4-0.4-0.6-0.6c-0.3-0.3-0.7-0.6-1-1c-0.3-0.3-0.6-0.6-0.9-0.9
				c-0.3-0.3-0.5-0.5-0.8-0.8c-0.4-0.4-0.7-0.8-1.1-1.1c-0.2-0.2-0.4-0.4-0.6-0.6c-0.4-0.5-0.8-0.9-1.2-1.4
				c-0.1-0.2-0.3-0.3-0.4-0.5c-0.5-0.6-1-1.2-1.5-1.8c0-0.1-0.1-0.1-0.1-0.2c-0.6-0.7-1.1-1.4-1.7-2.1c-5.5-6.7-7-8.5-12.6-14
				c-3.5-3.4-8.8-2.9-11.8,1.1c-0.9,1.2-1.5,2.7-1.8,4.2c0,0.1,0,0.1,0,0.2c0,0.2-0.1,0.5-0.1,0.7c-0.3,3,0.7,6.2,2.9,8.3
				c2.1,2,3.5,3.4,4.8,4.9l0.1,0.1c1.7,1.9,3.3,3.8,6.3,7.5c14.6,17.8,29.6,29.1,46.4,34.3c7.9,2.5,15.7,3.5,23.5,3.5c0,0,0,0,0.1,0
				h0.1c1,0,2,0,3.1-0.1c0.3,0,0.7,0,1,0c0.5,0,1.1-0.1,1.6-0.1c1-0.1,1.9-0.1,2.9-0.2l0,0c1.8-0.2,3.6-0.3,5.4-0.6
				c0.1,0,0.1,0,0.2,0c12.5-1.8,24.9-5.4,37.1-9c27.5-8.2,56-16.6,87.1-4.2c6.2,2.5,13.5,6,19.7,11.4c0.4,0.5,0.9,0.9,1.4,1.3
				c6.1,5.9,11,13.9,12.3,25.1c1.9,16-3.2,33.9-7.8,49.7c-5.2,18.1-9.8,33.8-0.9,43.3C410,284.7,430.2,302.9,437.3,309.2z
				 M458.8,197.6c-4-28.9-17.6-44.2-29.6-52.2c16.4-2.7,29.2-0.1,38.1,7.8c8.6,7.5,14.1,20.4,16.2,38.1c1.9,15.5,0.8,30.8,0.2,39
				c-0.1,1.2-0.2,2.2-0.2,3.1c-1,16.6,1.6,31.7,4.6,42.8C469.5,267.2,465.4,245.1,458.8,197.6z"/>
		</g>
	</g>
	<path class="st0" d="M43.8,445.1l-11.5,18.1c-1.5,2.3-4,3.7-6.6,3.7s-5.1-1.4-6.6-3.7L7.6,445.1c-2.5-3.9-1.5-9.2,2.1-11.8
		c1.4-1,2.9-1.5,4.5-1.5c2.6,0,5.1,1.3,6.6,3.7l4.9,7.7l4.9-7.7c2.5-3.9,7.5-4.9,11.1-2.2c1.8,1.3,3,3.2,3.4,5.4
		S45,443.2,43.8,445.1z"/>
	<path class="st0" d="M113.1,392.7l-11.5,18.1c-1.5,2.3-4,3.7-6.6,3.7s-5.1-1.4-6.6-3.7l-11.5-18.1c-2.5-3.9-1.5-9.2,2.1-11.8
		c1.4-1,2.9-1.5,4.5-1.5c2.6,0,5.1,1.3,6.6,3.7l4.9,7.7l4.9-7.7c2.5-3.9,7.5-4.9,11.1-2.2c1.8,1.3,3,3.2,3.4,5.4
		S114.3,390.8,113.1,392.7z"/>
	<path class="st0" d="M274.1,445.1l-11.5,18.1c-1.5,2.3-4,3.7-6.6,3.7s-5.1-1.4-6.6-3.7l-11.5-18.1c-2.5-3.9-1.5-9.2,2.1-11.8
		c1.4-1,2.9-1.5,4.5-1.5c2.6,0,5.1,1.3,6.6,3.7l4.9,7.7l4.9-7.7c2.5-3.9,7.5-4.9,11.1-2.2c1.8,1.3,3,3.2,3.4,5.4
		S275.3,443.2,274.1,445.1z"/>
	<path class="st0" d="M163.6,475.4l-11.5,18.1c-1.5,2.3-4,3.7-6.6,3.7s-5.1-1.4-6.6-3.7l-11.5-18.1c-2.5-3.9-1.5-9.2,2.1-11.8
		c1.4-1,2.9-1.5,4.5-1.5c2.6,0,5.1,1.3,6.6,3.7l4.9,7.7l4.9-7.7c2.5-3.9,7.5-4.9,11.1-2.2c1.8,1.3,3,3.2,3.4,5.4
		S164.8,473.5,163.6,475.4z"/>
	<path class="st0" d="M384.5,475.4L373,493.5c-1.5,2.3-4,3.7-6.6,3.7s-5.1-1.4-6.6-3.7l-11.5-18.1c-2.5-3.9-1.5-9.2,2.1-11.8
		c1.4-1,2.9-1.5,4.5-1.5c2.6,0,5.1,1.3,6.6,3.7l4.9,7.7l4.9-7.7c2.5-3.9,7.5-4.9,11.1-2.2c1.8,1.3,3,3.2,3.4,5.4
		S385.7,473.5,384.5,475.4z"/>
	<path class="st0" d="M506.3,445.1l-11.5,18.1c-1.5,2.3-4,3.7-6.6,3.7s-5.1-1.4-6.6-3.7l-11.5-18.1c-2.5-3.9-1.5-9.2,2.1-11.8
		c1.4-1,2.9-1.5,4.5-1.5c2.6,0,5.1,1.3,6.6,3.7l4.9,7.7l4.9-7.7c2.5-3.9,7.5-4.9,11.1-2.2c1.8,1.3,3,3.2,3.4,5.4
		S507.5,443.2,506.3,445.1z"/>
</g>
</svg>
