<?xml version="1.0" encoding="utf-8"?>
<!-- Generator: Adobe Illustrator 24.3.0, SVG Export Plug-In . SVG Version: 6.00 Build 0)  -->
<svg version="1.1" id="Warstwa_1" xmlns="http://www.w3.org/2000/svg" xmlns:xlink="http://www.w3.org/1999/xlink" x="0px" y="0px"
	 viewBox="0 0 512 512" style="enable-background:new 0 0 512 512;" xml:space="preserve">
<style type="text/css">
	.st0{fill:#358535;}
</style>
<g>
	<path class="st0" d="M262.6,483.1H58.4v-27.4h179.1c-0.6-0.5-1.2-1.1-1.7-1.6c-3.8-3.8-6.9-8.3-9.1-13.2H112.8
		c2.6-4.4,4-9.5,4-14.9c0-8.9-3.9-16.9-10.1-22.3c6.2-5.4,10.1-13.4,10.1-22.3s-3.9-16.9-10.1-22.3c6.2-5.4,10.1-13.4,10.1-22.3
		c0-9.1-4.1-17.6-11.2-23.3l-9.2,11.6c3.6,2.9,5.7,7.1,5.7,11.7c0,8.2-6.7,14.9-14.9,14.9c-4.6,0-8.8-2-11.7-5.6l-11.6,9.1
		c1.1,1.4,2.3,2.7,3.6,3.8c-6.2,5.4-10.1,13.4-10.1,22.3s3.9,16.9,10.1,22.3c-6.2,5.5-10.1,13.4-10.1,22.3c0,5.4,1.5,10.5,4,14.9
		H43.7v56.9h218.9C260.8,493,260.9,487.8,262.6,483.1z M87.2,366.4c8.2,0,14.9,6.7,14.9,14.9c0,8.2-6.7,14.9-14.9,14.9
		s-14.9-6.7-14.9-14.9C72.2,373.1,78.9,366.4,87.2,366.4z M87.2,411.1c8.2,0,14.9,6.7,14.9,14.9c0,8.2-6.7,14.9-14.9,14.9
		s-14.9-6.7-14.9-14.9C72.2,417.8,78.9,411.1,87.2,411.1z"/>
	<path class="st0" d="M209.6,87.9H136v-8.1h38.5V65H136V54.7h27.8V35.4l6.9-6.9h64.9V13.8h-71l-15.5,15.5v10.6h-27.8v62.7h88.4V87.9
		H209.6z"/>
	<path class="st0" d="M222.1,42.4v13l13.7,13.7l10.4-10.4l-9.4-9.4v-6.9L222.1,42.4z"/>
	<path class="st0" d="M299.9,246.4c0-24.8-20.2-45-45-45s-45,20.2-45,45s20.2,45,45,45S299.9,271.2,299.9,246.4z M224.6,246.4
		c0-16.7,13.6-30.3,30.3-30.3s30.3,13.6,30.3,30.3s-13.6,30.3-30.3,30.3S224.6,263.1,224.6,246.4z"/>
	<path class="st0" d="M122.8,396.2h66.4V411h-66.4C122.8,411,122.8,396.2,122.8,396.2z"/>
	<path class="st0" d="M122.8,351.4h66.4v14.8h-66.4C122.8,366.1,122.8,351.4,122.8,351.4z"/>
	<path class="st0" d="M122.8,306.4h66.4v14.8h-66.4C122.8,321.1,122.8,306.4,122.8,306.4z"/>
	<path class="st0" d="M303.8,116.3l-10.4,10.4l103.2,103.2l2-2l0.8-0.8l0.9-0.7c1.5-1.1,3.2-2,5-2.6l4.5-1.6L303.8,116.3z
		 M300,102.7h88.6V40h-27.8V29.3l-15.5-15.5h-97.6v23.8L260,49.8h12.5L2.8,319.4l40.4,40.4l83.4-83.5h75.5v-14.8h-60.7l30.1-30.2
		h30.6v-14.8h-15.8l30.1-30.2h76.8l30.1,30.2h-15.8v14.8h30.6l28.5,28.5l10.4-10.4L274,146.2l-10.4,10.4l15,15h-47.3L300,102.7z
		 M43.2,338.9l-19.5-19.5l264-264V35H266l-3.6-3.6v-2.9h76.7l6.9,6.9v19.3h27.8V65h-38.4v14.8h38.4v8.1h-80L43.2,338.9z
		 M307.5,261.5v14.7h42.6l14.8-14.8L307.5,261.5L307.5,261.5z"/>
	<polygon class="st0" points="308.2,306.4 308.2,318.2 293.5,333 293.5,321.2 216.2,321.2 216.2,428.6 201.6,428.6 201.6,306.4 	"/>
	<g>
		<g>
			<g>
				<g>
					<path class="st0" d="M504.4,265.7c-2.9-1.2-6.2-0.5-8.4,1.7l-78.4,78.4l0,0l0,0l-91.4,91.4l0,0l0,0l-47.9,47.9
						c-2.2,2.2-2.9,5.5-1.7,8.4c1.2,2.9,4,4.8,7.1,4.8h217.7c4.2,0,7.7-3.4,7.7-7.7V272.8C509,269.7,507.2,266.9,504.4,265.7z
						 M493.6,482.9H302.3l29.4-29.4l7.3,7.3c1.5,1.5,3.5,2.3,5.4,2.3s3.9-0.8,5.4-2.3c3-3,3-7.9,0-10.9l-7.3-7.3l19.6-19.6l7.3,7.3
						c1.5,1.5,3.5,2.3,5.4,2.3c2,0,3.9-0.8,5.4-2.3c3-3,3-7.9,0-10.9l-7.3-7.3l19.5-19.6l7.3,7.3c1.5,1.5,3.5,2.3,5.4,2.3
						c2,0,3.9-0.7,5.4-2.3c3-3,3-7.9,0-10.9l-7.3-7.3l19.6-19.6l7.3,7.3c1.5,1.5,3.5,2.3,5.4,2.3c2,0,3.9-0.7,5.4-2.3
						c3-3,3-7.9,0-10.9l-7.3-7.3l19.6-19.6l7.3,7.3c1.5,1.5,3.5,2.3,5.4,2.3c2,0,3.9-0.7,5.4-2.3c3-3,3-7.9,0-10.9l-7.3-7.3
						l29.4-29.4v191.7L493.6,482.9L493.6,482.9z"/>
				</g>
			</g>
		</g>
		<g>
			<g>
				<g>
					<path class="st0" d="M465.9,358.6c-2.9-1.2-6.2-0.5-8.4,1.7l-86.4,86.4c-2.2,2.2-2.9,5.5-1.7,8.4c1.2,2.9,4,4.8,7.1,4.8h86.4
						c4.2,0,7.7-3.4,7.7-7.7v-86.4C470.5,362.6,468.8,359.8,465.9,358.6z M455.3,444.4h-60.1l60.1-60.1V444.4z"/>
				</g>
			</g>
		</g>
		<g>
			<g>
				<g>
					<path class="st0" d="M471.5,219.2c-2.1-2.1-5.3-2.8-8.1-1.8l-52.6,19.2c-0.6,0.2-1.2,0.5-1.7,0.9L244.6,402.1
						c-10.2,12.3-9.6,30.6,1.9,42.1c6.1,6.1,14.1,9.1,22.1,9.1s16-3,22.1-9.1l64.9-64.9c3-3,3-7.9,0-10.9s-7.9-3-10.9,0l-49.3,49.2
						L273,395.2l140.6-140.6L436,277l-53.7,53.7c-3,3-3,7.9,0,10.9s7.9,3,10.9,0l59-59c0.8-0.8,1.4-1.7,1.8-2.8l19.2-52.5
						C474.3,224.4,473.5,221.3,471.5,219.2z M284.5,428.4l-4.8,4.8c-3,3-7,4.6-11.2,4.6s-8.2-1.7-11.2-4.6c-3-3-4.6-7-4.6-11.2
						s1.6-8.2,4.6-11.2l4.8-4.8L284.5,428.4z M443.8,262.9l-16.1-16.1l25.4-9.3L443.8,262.9z"/>
				</g>
			</g>
		</g>
		<g>
			<g>
				<g>
					<path class="st0" d="M374.2,349.7c-1.4-1.4-3.4-2.3-5.4-2.3s-4,0.8-5.4,2.3c-1.4,1.4-2.3,3.4-2.3,5.4s0.8,4,2.3,5.4
						c1.4,1.4,3.4,2.2,5.4,2.2s4-0.8,5.4-2.2c1.4-1.4,2.3-3.4,2.3-5.4S375.6,351.1,374.2,349.7z"/>
				</g>
			</g>
		</g>
	</g>
	<g>
		<g>
			<g>
				<path class="st0" d="M386.9,228.9c-1.4-1.4-3.4-2.3-5.4-2.3s-4,0.8-5.4,2.3c-1.4,1.4-2.3,3.4-2.3,5.4s0.8,4,2.3,5.4
					c1.4,1.4,3.4,2.2,5.4,2.2s4-0.8,5.4-2.2s2.3-3.4,2.3-5.4S388.4,230.3,386.9,228.9z"/>
			</g>
		</g>
	</g>
	<g>
		<g>
			<g>
				<path class="st0" d="M370.4,211.5c-1.4-1.4-3.4-2.3-5.4-2.3s-4,0.8-5.4,2.3c-1.4,1.4-2.3,3.4-2.3,5.4s0.8,4,2.3,5.4
					c1.4,1.4,3.4,2.2,5.4,2.2s4-0.8,5.4-2.2s2.3-3.4,2.3-5.4S371.9,212.9,370.4,211.5z"/>
			</g>
		</g>
	</g>
	<g>
		<g>
			<g>
				<path class="st0" d="M353.3,194.9c-1.4-1.4-3.4-2.3-5.4-2.3s-4,0.8-5.4,2.3c-1.4,1.4-2.3,3.4-2.3,5.4s0.8,4,2.3,5.4
					c1.4,1.4,3.4,2.2,5.4,2.2s4-0.8,5.4-2.2s2.3-3.4,2.3-5.4C355.5,198.3,354.6,196.3,353.3,194.9z"/>
			</g>
		</g>
	</g>
</g>
</svg>
