<?xml version="1.0" encoding="utf-8"?>
<!-- Generator: Adobe Illustrator 24.3.0, SVG Export Plug-In . SVG Version: 6.00 Build 0)  -->
<svg version="1.1" id="Warstwa_1" xmlns="http://www.w3.org/2000/svg" xmlns:xlink="http://www.w3.org/1999/xlink" x="0px" y="0px"
	 viewBox="0 0 512 512" style="enable-background:new 0 0 512 512;" xml:space="preserve">
<g>
	<path d="M224,380.2c-2.6,0-5.1-1-7-2.9l-107-107c-3.8-3.8-3.8-10.1,0-13.9l55.7-55.7c3.8-3.8,10.1-3.8,13.9,0l44.4,44.4
		l110.3-110.3c1.8-1.8,4.4-2.9,7-2.9s5.1,1,7,2.9l55.7,55.7c3.8,3.8,3.8,10.1,0,13.9l-173,173C229.1,379.1,226.6,380.2,224,380.2z
		 M130.9,263.3l93.1,93.1l159.1-159.1l-41.8-41.8L231,265.9c-3.8,3.8-10.1,3.8-13.9,0l-44.4-44.4L130.9,263.3z"/>
	<path d="M256.9,508c-6.4,0-12.9-0.2-19.3-0.7c-59.9-4.6-116.3-30.5-158.8-73.1C31.2,386.6,5,323.3,5,256S31.2,125.4,78.8,77.8
		S189.7,4,257,4s130.6,26.2,178.2,73.8c42.5,42.5,68.5,98.9,73.1,158.8c4.5,59.2-12,118.3-46.4,166.3c-3.2,4.4-9.3,5.4-13.7,2.2
		c-4.4-3.2-5.4-9.3-2.2-13.7c66.7-92.7,56.3-218.8-24.6-299.7c-90.6-90.6-238-90.6-328.5,0c-90.6,90.6-90.6,238,0,328.5
		c80.9,80.9,206.9,91.2,299.7,24.6c4.4-3.2,10.6-2.2,13.7,2.2c3.2,4.4,2.2,10.6-2.2,13.7C361.1,491.6,309.6,508,256.9,508z"/>
	<path d="M428.2,437.1c-2.6,0-5.1-1.1-7-2.9c-1.8-1.8-2.9-4.4-2.9-7s1.1-5.1,2.9-7s4.4-2.9,7-2.9s5.1,1.1,7,2.9
		c1.8,1.8,2.9,4.4,2.9,7s-1.1,5.1-2.9,7C433.4,436,430.8,437.1,428.2,437.1z"/>
</g>
</svg>
