<?xml version="1.0" encoding="utf-8"?>
<!-- Generator: Adobe Illustrator 24.3.0, SVG Export Plug-In . SVG Version: 6.00 Build 0)  -->
<svg version="1.1" id="Warstwa_1" xmlns="http://www.w3.org/2000/svg" xmlns:xlink="http://www.w3.org/1999/xlink" x="0px" y="0px"
	 viewBox="0 0 512 512" style="enable-background:new 0 0 512 512;" xml:space="preserve">
<style type="text/css">
	.st0{fill:#358535;}
</style>
<g>
	<path class="st0" d="M132.3,372.8c0,4.2-3.3,7.6-7.4,7.6H60.7c-4.1,0-7.4-3.4-7.4-7.6s3.3-7.6,7.4-7.6h64.1
		C129,365.2,132.3,368.6,132.3,372.8z"/>
	<path class="st0" d="M240.6,309.5c0,4.2-3.3,7.6-7.4,7.6h-87.9c-4.1,0-7.4-3.4-7.4-7.6s3.3-7.5,7.4-7.5h87.9
		C237.3,301.9,240.6,305.3,240.6,309.5z"/>
	<path class="st0" d="M221.1,98.4c0,9.2-4.4,17.6-11.4,23.8c-7.1,6.1-16.8,9.9-27.5,9.9H74.5c-10.7,0-20.4-3.8-27.5-9.9
		c-7.1-6-11.4-14.5-11.4-23.8S40,80.8,47,74.6c5.3-4.6,12.3-8,20.2-9.2c1.4-5.3,4.6-10,8.8-13.7c6-5.2,14.2-8.4,23.3-8.4
		c4,0,7.8,0.7,11.3,1.8c0.5,0.2,1.2,0.4,1.7,0.6c3.7-4.5,8.3-8.5,13.6-11.4c7.8-4.3,17.1-6.9,26.8-6.8c4.5,0,8.2,3.2,8.1,7.1
		c0,3.9-3.7,7.1-8.2,7c-6.5,0-12.6,1.6-17.9,4.5c-5.1,2.9-9.4,7.1-11.9,12.1c-0.3,0.7-0.8,1.3-1.3,1.9c-2.9,2.9-8.1,3.3-11.4,0.8
		c-3.1-2.3-6.9-3.4-10.8-3.4c-4.6,0-8.7,1.6-11.8,4.2c-3.1,2.6-4.9,6.2-4.9,10.2s-3.6,7.1-8.2,7.1c-6.2,0-11.8,2.2-15.9,5.8
		c-4,3.6-6.6,8.4-6.6,13.8s2.5,10.2,6.6,13.8c4,3.6,9.7,5.8,15.9,5.8h107.7c6.2,0,11.8-2.2,15.9-5.8c4.1-3.5,6.6-8.4,6.6-13.8
		c0-4.1-1.5-7.9-4-11.1s-6.1-5.7-10.2-7.1c-3.7-1-6.1-4.1-5.7-7.5c0.1-1,0.2-2.1,0.2-3.1c0-3.2-0.5-6.1-1.6-8.9
		c-1.1-2.9-2.7-5.6-4.8-7.9c-2.7-3.1-2.1-7.5,1.6-9.9c3.6-2.4,8.7-1.7,11.4,1.3c3.2,3.6,5.6,7.6,7.3,12c1.5,4.1,2.5,8.5,2.5,12.9
		c5.1,2.5,9.5,6,12.9,10.1C218.5,84.7,221.1,91.3,221.1,98.4z"/>
	<path class="st0" d="M709.9,154.6L709.9,154.6z"/>
	<path class="st0" d="M472.8,441.6l-11.5,18.1c-1.5,2.3-4,3.7-6.6,3.7s-5.1-1.4-6.6-3.7l-11.5-18.1c-2.5-3.9-1.5-9.2,2.1-11.8
		c1.4-1,2.9-1.5,4.5-1.5c2.6,0,5.1,1.3,6.6,3.7l4.9,7.7l4.9-7.7c2.5-3.9,7.5-4.9,11.1-2.2c1.8,1.3,3,3.2,3.4,5.4
		S474,439.7,472.8,441.6z"/>
	<path class="st0" d="M240.5,380.1L229,398.2c-1.5,2.3-4,3.7-6.6,3.7s-5.1-1.4-6.6-3.7l-11.5-18.1c-2.5-3.9-1.5-9.2,2.1-11.8
		c1.4-1,2.9-1.5,4.5-1.5c2.6,0,5.1,1.3,6.6,3.7l4.9,7.7l4.9-7.7c2.5-3.9,7.5-4.9,11.1-2.2c1.8,1.3,3,3.2,3.4,5.4
		S241.7,378.2,240.5,380.1z"/>
	<path class="st0" d="M305,368.5l-11.5,18.1c-1.5,2.3-4,3.7-6.6,3.7s-5.1-1.4-6.6-3.7l-11.5-18.1c-2.5-3.9-1.5-9.2,2.1-11.8
		c1.4-1,2.9-1.5,4.5-1.5c2.6,0,5.1,1.3,6.6,3.7l4.9,7.7l4.9-7.7c2.5-3.9,7.5-4.9,11.1-2.2c1.8,1.3,3,3.2,3.4,5.4
		S306.2,366.6,305,368.5z"/>
	<path class="st0" d="M207.6,427.3l-11.5,18.1c-1.5,2.3-4,3.7-6.6,3.7s-5.1-1.4-6.6-3.7l-11.5-18.1c-2.5-3.9-1.5-9.2,2.1-11.8
		c1.4-1,2.9-1.5,4.5-1.5c2.6,0,5.1,1.3,6.6,3.7l4.9,7.7l4.9-7.7c2.5-3.9,7.5-4.9,11.1-2.2c1.8,1.3,3,3.2,3.4,5.4
		S208.8,425.4,207.6,427.3z"/>
	<path class="st0" d="M504.5,271.5h-32.9c3.1-4.4,5.8-9.1,8.2-14l6.7-16.8c3.5-11.3,5.5-23.4,5.5-36.1c0-15-2.8-29.4-7.7-42.5
		c-4.6-12.2-11.2-23.3-19.2-32.8c-5.6-6.6-4.6-1.6-2.1-10.4c0.9-3.2,1.6-6.5,2.1-9.8c0.7-4.6,1.1-9.3,1.1-14.1
		c0-5.2-0.5-10.3-1.3-15.3c-0.9-5.1-2.2-10-3.9-14.8c-1.6-4.3-5.9-6.4-9.8-4.7c-2.9,1.3-4.7,4.4-4.7,7.8c0,1,0.2,2.1,0.5,3.1
		c1.3,3.7,2.4,7.6,3.1,11.6c0.6,3.9,1,8,1,12.2c0,3.9-0.3,7.6-0.9,11.3c-0.6,3.8-1.5,7.4-2.6,10.8c-1.4,4.4-2.2,7.2-1.6,10.8
		c0.6,3.8,2.3,6.4,5.7,10.1c8,8.7,14.4,19,18.8,30.5c4.2,11,6.5,23.2,6.5,36.1c0,25.8-9.5,49.2-24.8,66.1
		c-13.7,15.1-32.1,25.1-52.6,27.1V260l27.6-27.6c2.9-2.9,2.9-7.7,0-10.6s-7.7-2.9-10.6,0l-17,17v-28.1l27.6-27.7
		c2.9-2.9,2.9-7.7,0-10.6c-2.9-2.9-7.7-2.9-10.6,0l-17,17v-28.1l27.6-27.7c2.9-2.9,2.9-7.7,0-10.6s-7.7-2.9-10.6,0l-17,17v-28.5l0,0
		l27.6-27.7c2.9-2.9,2.9-7.7,0-10.6s-7.7-2.9-10.6,0l-17,17V61.5c0-4.1-3.4-7.5-7.5-7.5s-7.5,3.4-7.5,7.5v29.1l-17-17
		c-2.9-2.9-7.7-2.9-10.6,0s-2.9,7.7,0,10.6l27.6,27.7v28.5l-17-17c-2.9-2.9-7.7-2.9-10.6,0s-2.9,7.7,0,10.6l27.6,27.7v28.1l-17-17
		c-2.9-2.9-7.7-2.9-10.6,0s-2.9,7.7,0,10.6l27.6,27.7v28.1l-17-17c-2.9-2.9-7.7-2.9-10.6,0s-2.9,7.7,0,10.6l27.6,27.6v37.7
		c-20.5-2-38.9-11.9-52.6-27.1c-15.3-16.9-24.8-40.3-24.8-66.1c0-12.7,2.3-24.8,6.4-35.8c4.3-11.5,10.7-21.8,18.5-30.4
		c3.5-3.9,5.3-6,6-10c0.7-3.9-0.1-6.5-1.8-11.6c-2.2-7-3.4-14.4-3.4-21.8c0-17.9,6.6-34.2,17.3-45.9c10.9-12.1,25.7-19.4,42-19.4
		c6.9,0,13.6,1.3,19.7,3.7c6.4,2.5,12.2,6.1,17.4,10.8c3.2,2.9,7.9,2.3,10.5-1.3s2-8.9-1.2-11.8c-6.4-5.8-13.8-10.3-21.8-13.4
		c-7.7-3-16-4.7-24.6-4.7c-20.4,0-38.9,9.1-52.3,23.9C326.5,52,318.1,72.5,318.1,95c0,7,0.8,14,2.4,20.8c3.3,13.7,5.3,5.5-2.4,14.8
		c-7.6,9.3-13.8,20-18.3,31.7c-4.9,13.1-7.6,27.4-7.6,42.3c0,12.6,1.9,24.8,5.5,36.1l6.7,16.7c2.4,4.9,5.1,9.5,8.2,13.9H171.5
		c-4.5,0-8.2,3.4-8.2,7.5c0,4.2,3.7,7.6,8.2,7.6h118.8c-0.6,4.7-1.9,9.2-3.6,13.4c-2.8,6.7-6.9,12.8-12,17.8c-5,5-11,9-17.6,11.8
		c-6.3,2.6-13.2,4-20.3,4h-42l0,0c-7.7,0-14.6,3.1-19.6,8c-4.7,4.7-7.7,11.1-7.9,18.2c-0.8,6.6-2.7,12.8-5.7,18.5
		c-3,5.9-7.1,11.2-11.9,15.6c-4.9,4.5-10.6,8-16.9,10.5c-6,2.3-12.5,3.6-19.4,3.6H15.1V344h62.4c4.5,0,8.2-3.4,8.2-7.5
		c0-4.2-3.6-7.6-8.2-7.6H15.1v-42.4h119.3c4.5,0,8.2-3.4,8.2-7.6s-3.7-7.5-8.2-7.5H7c-2.9,0-5.5,1.4-7,3.6c-0.8,1.1,0,174.8,0,174.8
		c0.4,12.9,5.8,24.5,14.3,33.1c8.8,8.8,21,14.3,34.4,14.3h414.5c13.4,0,25.6-5.5,34.4-14.3s14.3-21,14.3-34.4V279
		C512,274.8,508.7,271.5,504.5,271.5z M497,448.4c0,9.3-3.8,17.7-9.9,23.8c-6.1,6.1-14.5,9.9-23.8,9.9H48.8
		c-9.3,0-17.7-3.8-23.8-9.9c-5.8-5.8-9.5-13.8-9.9-22.5h0.1V423h98.4c9,0,17.7-1.7,25.6-4.8c8.3-3.2,15.7-7.9,22.1-13.7
		c6.2-5.7,11.4-12.4,15.2-19.9c3.7-7.2,6.2-15.2,7.1-23.6c0.4-3.8,0.5-6.2,3.6-9.3c2-2,4.8-3.2,7.7-3.2h42c9.5,0,18.7-1.9,27.1-5.4
		c8.6-3.6,16.3-8.8,22.8-15.3s11.7-14.1,15.2-22.6c2.5-5.9,4.1-12.3,4.9-18.9h18.5c16,16,36.7,26.3,59.5,28.1v42.5
		c0,4.1,3.4,7.5,7.5,7.5s7.5-3.3,7.5-7.5v-42.5c22.8-1.9,43.5-12.2,59.5-28.1H497V448.4z"/>
</g>
</svg>
