<?xml version="1.0" encoding="utf-8"?>
<!-- Generator: Adobe Illustrator 25.1.0, SVG Export Plug-In . SVG Version: 6.00 Build 0)  -->
<svg version="1.1" id="Warstwa_1" xmlns="http://www.w3.org/2000/svg" xmlns:xlink="http://www.w3.org/1999/xlink" x="0px" y="0px"
	 viewBox="0 0 300 300" style="enable-background:new 0 0 300 300;" xml:space="preserve">
<style type="text/css">
	.st0{fill:#E64065;stroke:#FFFFFF;stroke-miterlimit:10;}
	.st1{fill:#FFFEFE;}
	.st2{fill:#FFFFFF;}
	.st3{fill:#E64065;}
</style>
<g>
	<circle class="st0" cx="150" cy="150" r="145"/>
	<path class="st1" d="M166.8,149.5c-5.1-2.6-10.6-4.1-16.1-5.4c-5.6-1.4-11.2-2.7-16.5-5.1c-8.6-3.9-12.3-13.6-11.4-20.5
		c0.5-4.4,1.8-8.7,4-12.6c4.7-8.4,11.7-13.6,21.4-14.9c2.1-0.3,3.1-1.1,3.6-3.1c1.1-4.1,2.5-8.1,3.9-12.1c0.7-2.3,1.6-4.6,2.6-7.4
		c0,0,0-0.1,0-0.1c-0.5,0-0.9,0-1.3,0c-0.4,0-0.7,0-1,0c-0.4,0-0.7,0-1.1,0h-0.5c-0.2,0-0.4,0-0.7,0c-6.9,0-13.7,0.7-20.4,2.1
		c-14.6,3-27.7,9.1-38.5,19.6c-10,9.8-16.4,21.7-20.4,35c-3.6,12.1-5.1,24.3-2.7,36.7c4.6,23.4,16.3,42.5,36.1,56.1
		c14.6,10.1,30.9,15.2,48.7,15.2h0.2c1,0,2-0.2,3.3-0.3c-0.5-1.1-0.7-1.8-1.1-2.5c-3.7-8.1-7-16.3-9.3-24.9c-0.7-2.5-2-3.3-4.3-3.7
		c-7.9-1.4-15.4-3.9-22.5-7.8c-2.6-1.4-5.1-3.2-7.3-5.3c-2.4-2.2-2.4-4.5-0.7-7.2c1.5-2.4,3.7-3.6,6-3.6c1.3,0,2.7,0.4,4.1,1.2
		c8.1,4.6,16.6,8.4,26.1,9.3c1.2,0.1,2.4,0.2,3.6,0.2c5.9,0,11.3-1.5,16.1-5.5C179.7,175.5,181.1,156.7,166.8,149.5z"/>
	<g>
		<g>
			<path class="st2" d="M280.3,127.3l0-0.6l-0.3-0.6c-2.2-8.3-8.6-13.2-17-13.2c-0.4,0-0.8,0-1.2,0l-0.3,0c-1.3,0.1-2.6,0.2-3.7,0.4
				c0-0.1-0.1-0.2-0.1-0.2l-0.2-0.6l0,0c-1.4-3.5-2.9-6.9-4.2-9.9c-2.7-6.1-6.1-11-10.4-14.8c0.3-1.2,0.6-2.4,1-3.5
				c0.6-1.8,1.3-3.7,2.1-5.7l0-0.1c0.4-1.1,0.9-2.3,1.3-3.5c2.3-6.3,0.8-11-1-13.8c-2.4-4-6.6-6.5-11.7-7.1l-0.3,0
				c-2.3-0.3-4.8-0.2-7,0.1c-10.1,1.6-18.3,5-25,10.4c-9-3.6-18.2-5.6-27-7.5l-1.6-0.3l-15.5-1.7L157,55c-1.4,0-2.2,0-2.9,0h-1
				c-8,0-16,0.8-23.7,2.4c-18,3.7-33.2,11.5-45,23.1c-7.2,7-12.9,15-17.5,24.4c-1.1-0.5-2.2-0.8-3.3-1.1c-8.4-2.1-16.5-1.3-23.8,2.1
				l-1.2,0.6c-0.1,0.1-0.3,0.1-0.4,0.2l-0.2,0.1c-8.5,4.8-12.4,14.3-9.7,23.4c-5.6,3.1-9.2,8.8-9.2,15.2c0,4.5,1.7,8.8,4.8,12
				c2.9,3,6.6,4.8,11,5.4c0.9,0.1,1.8,0.2,2.8,0.2c0.6,0,1.2,0,1.7,0c5.7-0.2,11.2-1.8,16.3-4.7l1.3,0.6c0.2,1.8,0.5,3.5,0.8,5.3
				c5.3,27.4,19.3,49.1,41.5,64.4c16.5,11.4,35,17.3,55,17.5h10.7l8.9-1.7l6.2-1.7c12.7-3.1,25-8.3,37.7-15.8
				c16.1-9.5,28.5-20.4,37.8-33.3c0.6-0.8,1.1-1.6,1.6-2.4l2.5-3.8c0.3-0.2,0.6-0.4,0.9-0.6c2.4-1.8,4.3-3.1,6-3.9
				c5.8-2.8,9.8-7.4,11.6-13.1c0.6-1.9,1.2-4.2,1.5-6.8l0.1-0.2V162c0.5-8.4,1-17.3,1.6-28C281.1,131.4,280.8,129.2,280.3,127.3z
				 M64.5,138.8l1.4,0.4c0.1,0.8,0.1,1.7,0,3.3c-0.1,1.4-0.2,2.8-0.3,4.2c0,0.1-0.2,0.3-0.5,0.8c-2-1-4.2-1.9-6.1-3.1
				c-1-0.6-1.8-0.9-2.6-0.9c-0.2,0-0.5,0-0.7,0.1c-0.7,0.1-1.4,0.5-2.2,1.1c-3.9,3-8.4,4.9-13.4,5.1c-0.4,0-0.8,0-1.2,0
				c-0.2,0-0.4,0-0.6,0c-0.2,0-0.4,0-0.6,0c-2.6-0.3-4.2-2-4.2-4.3c0-2.2,1.8-4,4.3-4.3c2.2-0.3,4.5-0.6,6.7-1.3
				c1.5-0.5,2.9-1.6,4.6-2.6c-1-1.1-1.8-1.8-2.3-2.7c-1.5-2.5-3.3-4.8-4.4-7.5c-1.4-3.6,0.1-7.2,3.6-9c2.9-1.5,5.9-2.2,9-2.3
				c1.8,0.1,3.6,0.3,5.4,0.8c3.9,1,6.3,5,5.6,9.1c-0.4,2.4-1.5,4.7-2.4,7c-0.4,1-1.1,2-1.8,3C63.4,137.1,64.2,137.8,64.5,138.8z
				 M70.6,120.6c0-0.1,0-0.1-0.1-0.2L70.6,120.6C70.6,120.5,70.6,120.6,70.6,120.6z M156.8,232.9h-0.2c-17.8,0-34.1-5.1-48.7-15.2
				C88.1,204,76.4,185,71.8,161.6c-2.5-12.4-0.9-24.7,2.7-36.7c4-13.3,10.4-25.2,20.4-35c10.8-10.6,23.9-16.6,38.5-19.6
				c6.8-1.4,13.5-2.1,20.4-2.1h1.2c0.3,0,0.7,0,1.1,0c0.3,0,0.6,0,1,0h1.3c0,0,0,0.1,0,0.1c-1,2.9-1.9,5.2-2.6,7.4
				c-1.3,4-2.7,8.1-3.9,12.1c-0.5,2-1.6,2.9-3.6,3.1c-9.6,1.3-16.7,6.5-21.4,14.9c-2.2,3.9-3.5,8.2-4,12.6
				c-0.8,6.9,2.8,16.5,11.4,20.5c5.3,2.4,10.9,3.7,16.5,5.1c5.5,1.4,11,2.8,16.1,5.4c14.3,7.2,12.9,26,4.1,33.3
				c-4.8,4-10.3,5.5-16.1,5.5c-1.2,0-2.4-0.1-3.6-0.2c-9.4-0.9-17.9-4.6-26.1-9.3c-1.4-0.8-2.8-1.2-4.1-1.2c-2.4,0-4.5,1.2-6,3.6
				c-1.7,2.7-1.7,5,0.6,7.2c2.2,2,4.7,3.8,7.3,5.2c7,3.9,14.6,6.4,22.5,7.8c2.4,0.4,3.7,1.2,4.3,3.7c2.3,8.6,5.6,16.8,9.2,24.9
				c0.3,0.7,0.6,1.4,1.1,2.5C158.8,232.7,157.8,232.9,156.8,232.9z M266.3,161.3c-0.1,1.5-0.5,3-1,4.4c-0.8,2.5-2.4,4.1-4.9,5.3
				c-2.9,1.4-5.6,3.3-8.2,5.3c-1.4,1.1-2.7,1.5-4.3,1.6h-0.5c-4.7,0-9.3-1-13.9-2.2c-0.4-0.1-0.8-0.3-1.2-0.5
				c-0.3-0.1-0.6-0.2-0.8-0.2c-0.4,0-0.8,0.2-1,0.8c-0.5,1.5,1.3,1.6,2.2,2c3,1.2,6.1,2.3,9.2,3.5c1.5,0.5,2.8,1.2,4.4,2
				c-0.7,1.1-1.1,1.8-1.6,2.5c-9,12.6-20.6,22-33.8,29.8c-10.8,6.3-22.2,11.4-34.4,14.4l-1.5,0.4c-0.8-0.2-1.2-0.9-2.1-2.6
				c-3.9-8-7.2-16.1-9.8-24.7c-0.2-0.7-0.3-1.4-0.4-1.8c4.4-1.9,8.7-3.6,12.7-5.7c6.5-3.3,11.9-8,15.5-14.5
				c6-10.7,4.7-21.5-3.5-30.6c-4.6-5.1-10.3-8.6-16.9-10.5c-4.6-1.3-9.2-2.6-13.7-4.2c-2.6-1-5.2-2.4-7.4-4.1
				c-9.9-7.5-6.8-21.2,2-26.1c3.6-2,7.3-2.9,11.1-2.9c2.7,0,5.5,0.5,8.2,1.3c5.1,1.6,9.9,3.8,14.8,5.8c0.5,0.2,1,0.5,1.4,0.7
				c1.5,0.7,2.7,1,3.8,1c1.3,0,2.3-0.5,3.3-1.5c1.7-1.9,2-5.4,0.6-8c-1.4-2.6-3.6-4.3-6.1-5.7c-5-2.8-10.5-4.1-16.1-5
				c-2.2-0.4-4.5-0.6-7.2-1c2.1-7,4.3-13.6,7.2-20.3c0-0.1,0.1-0.2,0.1-0.3c11.5,2.5,22.8,4.8,33.1,10.3c0.3,0.1,0.5,0.3,0.8,0.4
				c0.3-0.2,0.7-0.4,0.9-0.7c6.1-7.5,14.3-11.1,23.6-12.5c0.4-0.1,0.8-0.1,1.2-0.1c0.4,0,0.8,0,1.2,0.1c2.2,0.3,2.7,1.2,1.9,3.3
				c-1.2,3.3-2.6,6.6-3.7,9.9c-1,3.3-1.8,6.7-2.6,10c-0.5,1.9-0.1,3.3,1.7,4.4c5.1,3.1,8.4,7.7,10.8,13.1c1.4,3.2,2.9,6.5,4.1,9.8
				c1.1,3,3,5.4,5.3,7.5c1.2,1.2,2.7,1.7,4.3,1.7c0.2,0,0.5,0,0.7,0c0.1,0,0.3,0,0.4,0c2.1-0.3,4.2-0.7,6.3-0.9c0.2,0,0.4,0,0.6,0
				c0.2,0,0.4,0,0.6,0c2.1,0.2,3.1,1.3,3.7,3.7c0.3,1.1,0.5,2.3,0.4,3.4C267.4,142.6,266.9,151.9,266.3,161.3z"/>
		</g>
	</g>
	<path class="st2" d="M154.9,68.1h-0.5c-0.2,0-0.4,0-0.7,0c0.6,0,1.3,0,2.2,0C155.6,68.2,155.3,68.2,154.9,68.1z M157,68.2l1.3,0.1
		c0,0,0-0.1,0-0.1C157.8,68.2,157.4,68.2,157,68.2z"/>
	<path class="st3" d="M64.4,138.8c-0.3-1-1-1.7-2.7-3.2c0.6-1.1,1.4-2,1.8-3c0.9-2.3,1.9-4.6,2.4-7c0.8-4.1-1.7-8.2-5.6-9.1
		c-1.8-0.4-3.6-0.7-5.4-0.8c-3.1,0.1-6.1,0.8-9,2.3c-3.4,1.8-5,5.4-3.6,9c1.1,2.7,2.9,5,4.4,7.5c0.5,0.9,1.3,1.6,2.3,2.7
		c-1.8,1-3.1,2.1-4.6,2.6c-2.2,0.7-4.5,0.9-6.7,1.3c-2.5,0.4-4.3,2.1-4.3,4.3c0,2.3,1.6,4,4.2,4.3c0.2,0,0.4,0,0.6,0.1
		c0.2,0,0.4,0,0.6,0c0.4,0,0.8,0,1.2,0c5.1-0.2,9.5-2,13.5-5.1c0.8-0.6,1.5-1,2.2-1.1c0.2-0.1,0.5-0.1,0.7-0.1
		c0.8,0,1.6,0.3,2.6,0.9c1.9,1.3,4.1,2.1,6.1,3.1c0.4-0.5,0.5-0.7,0.5-0.8c0.1-1.4,0.2-2.8,0.3-4.2c0.1-1.6,0.1-2.6,0-3.3
		L64.4,138.8z M55.3,131.3L55.3,131.3c-0.3,0-0.5,0-0.7-0.1c-1.6-0.3-2.9-1.8-3-3.5c-0.1-1.8,1.3-3.4,3-3.7c0.2,0,0.4-0.1,0.6-0.1
		c0,0,0,0,0.1,0c2.1,0,3.6,1.5,3.6,3.6C58.9,129.7,57.2,131.3,55.3,131.3z"/>
	<path class="st3" d="M170.9,182.8c-4.8,4-10.3,5.5-16.1,5.5c-1.2,0-2.4-0.1-3.6-0.2c-9.4-0.9-17.9-4.6-26.1-9.3
		c-1.4-0.8-2.8-1.2-4.1-1.2c-2.4,0-4.5,1.2-6,3.6c-1.7,2.7-1.7,5,0.7,7.2c2.2,2,4.6,3.8,7.3,5.3c7,3.9,14.6,6.4,22.5,7.8
		c2.4,0.4,3.7,1.2,4.3,3.7c2.3,8.6,5.6,16.8,9.3,24.9c0.3,0.7,0.6,1.4,1.1,2.5c-1.3,0.1-2.3,0.3-3.3,0.3h-0.2
		c-17.8,0-34.1-5.1-48.7-15.2C88.1,204,76.4,185,71.8,161.6c-2.5-12.4-0.9-24.7,2.7-36.7c4-13.3,10.3-25.2,20.4-35
		c10.8-10.6,23.9-16.6,38.5-19.6c6.8-1.4,13.6-2.1,20.4-2.1c0.2,0,0.4,0,0.7,0h0.5c0.3,0,0.7,0,1.1,0c0.3,0,0.6,0,1,0
		c0.4,0,0.8,0,1.3,0c0,0,0,0.1,0,0.1c-1,2.9-1.8,5.2-2.6,7.4c-1.3,4-2.7,8.1-3.9,12.1c-0.5,2-1.6,2.9-3.6,3.1
		c-9.6,1.3-16.7,6.5-21.4,14.9c-2.2,3.9-3.4,8.2-4,12.6c-0.8,6.9,2.8,16.5,11.4,20.5c5.3,2.4,10.9,3.7,16.5,5.1
		c5.5,1.4,11,2.8,16.1,5.4C181.1,156.7,179.7,175.5,170.9,182.8z"/>
	<path class="st3" d="M267.4,129.8c-0.6-2.4-1.6-3.5-3.7-3.7c-0.2,0-0.4,0-0.6,0c-0.2,0-0.4,0-0.6,0c-2.1,0.1-4.2,0.6-6.3,0.9
		c-0.1,0-0.3,0-0.4,0c-0.2,0-0.5,0-0.7,0c-1.6,0-3.1-0.5-4.3-1.7c-2.3-2.1-4.2-4.5-5.3-7.5c-1.3-3.3-2.7-6.5-4.1-9.8
		c-2.4-5.4-5.7-10-10.8-13.1c-1.8-1.1-2.3-2.5-1.7-4.4c0.9-3.3,1.6-6.7,2.6-10c1.1-3.3,2.5-6.6,3.7-9.9c0.8-2.1,0.3-3-1.9-3.3
		c-0.4,0-0.8-0.1-1.1-0.1c-0.4,0-0.8,0.1-1.2,0.1c-9.3,1.4-17.5,5-23.6,12.5c-0.2,0.3-0.5,0.4-0.9,0.7c-0.3-0.1-0.5-0.3-0.8-0.4
		c-10.4-5.5-21.7-7.8-33.2-10.3c0,0.1-0.1,0.2-0.1,0.3c-2.9,6.7-5.1,13.3-7.2,20.3c2.7,0.4,5,0.6,7.2,1c5.6,0.9,11.1,2.2,16.1,5.1
		c2.5,1.4,4.7,3.2,6.1,5.7c1.4,2.6,1.2,6.1-0.6,8c-0.9,1-2,1.5-3.3,1.5c-1.1,0-2.3-0.3-3.8-1c-0.5-0.2-1-0.4-1.4-0.7
		c-4.9-2-9.8-4.2-14.8-5.8c-2.7-0.9-5.5-1.3-8.2-1.3c-3.8,0-7.5,0.9-11.1,2.9c-8.8,4.9-12,18.7-2.1,26.1c2.3,1.7,4.8,3.1,7.4,4.1
		c4.5,1.6,9.1,2.9,13.7,4.2c6.7,1.8,12.3,5.3,16.9,10.4c8.2,9.1,9.5,19.9,3.5,30.6c-3.6,6.5-9,11.1-15.5,14.5
		c-4,2.1-8.3,3.8-12.7,5.7c0.1,0.4,0.2,1.2,0.4,1.8c2.6,8.5,5.9,16.7,9.8,24.7c0.9,1.7,1.3,2.5,2.1,2.6l1.5-0.4
		c12.2-3,23.6-8,34.4-14.4c13.2-7.7,24.9-17.2,33.8-29.8c0.5-0.7,1-1.4,1.6-2.5c-1.6-0.8-2.9-1.4-4.4-1.9c-3-1.2-6.1-2.3-9.2-3.5
		c-0.9-0.4-2.7-0.5-2.2-2c0.2-0.6,0.6-0.8,1-0.8c0.2,0,0.5,0.1,0.8,0.2c0.4,0.1,0.9,0.4,1.2,0.5c4.5,1.3,9.1,2.2,13.9,2.2
		c0.2,0,0.3,0,0.5,0h0c1.7,0,3-0.5,4.3-1.6c2.6-2,5.3-3.9,8.2-5.3c2.4-1.2,4.1-2.8,4.8-5.3c0.4-1.4,0.9-2.9,1-4.4
		c0.6-9.4,1.1-18.7,1.6-28.1C267.9,132.1,267.7,130.9,267.4,129.8z M232.3,138.8c-3-0.3-5.4-2.6-5.5-5.6c-0.1-3.1,2.3-5.6,5.4-5.9
		c0.2,0,0.5,0,0.7,0c3.3,0,6.1,2.6,6.1,5.7c0,3.2-2.7,5.8-6,5.8C232.7,138.8,232.5,138.8,232.3,138.8z"/>
	<path class="st2" d="M58.9,127.7c0,2-1.7,3.7-3.6,3.7h-0.1c-0.2,0-0.4,0-0.6-0.1c-1.6-0.3-2.9-1.8-3-3.5c-0.1-1.8,1.3-3.4,3-3.7
		c0.2,0,0.4-0.1,0.6-0.1c0,0,0,0,0.1,0C57.4,124,58.9,125.5,58.9,127.7z"/>
	<path class="st2" d="M239,133c0,3.2-2.7,5.8-6,5.8c-0.2,0-0.5,0-0.7,0c-3-0.3-5.4-2.6-5.5-5.6c-0.1-3.1,2.3-5.6,5.4-5.9
		c0.2,0,0.5,0,0.7,0C236.2,127.3,239,129.9,239,133z"/>
</g>
</svg>
